Commissioner-LoudItalic.ufo
<glyph name="numbersign" format="2">
  <advance width="1365.536842105263"/>
  <unicode hex="0023"/>
  <outline>
    <contour>
      <point x="-6.231578947368421" y="300.2315789473684" type="line"/>
      <point x="119.62105263157895" y="303.3263157894737"/>
      <point x="258.5473684210526" y="306.42105263157896"/>
      <point x="341.13684210526316" y="307.5157894736842" type="curve"/>
      <point x="832.378947368421" y="307.5157894736842" type="line"/>
      <point x="913.8736842105262" y="306.42105263157896"/>
      <point x="1052.8000000000002" y="303.3263157894737"/>
      <point x="1177.5578947368422" y="300.2315789473684" type="curve"/>
      <point x="1206.5263157894735" y="443.0526315789474" type="line"/>
      <point x="1081.221052631579" y="439.9578947368421"/>
      <point x="941.7473684210526" y="436.86315789473684"/>
      <point x="859.7052631578947" y="435.7684210526316" type="curve"/>
      <point x="368.46315789473687" y="435.7684210526316" type="line"/>
      <point x="286.42105263157896" y="436.86315789473684"/>
      <point x="148.0421052631579" y="439.9578947368421"/>
      <point x="22.736842105263158" y="443.0526315789474" type="curve"/>
    </contour>
    <contour>
      <point x="119.89473684210525" y="0.0" type="curve"/>
      <point x="283.11578947368423" y="0.0" type="line"/>
      <point x="335.28421052631575" y="135.09473684210525"/>
      <point x="380.5473684210526" y="254.92631578947368"/>
      <point x="445.62105263157895" y="423.4736842105263" type="curve"/>
      <point x="634.1473684210526" y="882.7578947368421" type="line"/>
      <point x="710.6947368421052" y="1060.042105263158"/>
      <point x="759.0526315789474" y="1172.7578947368422"/>
      <point x="821.6" y="1316.9473684210527" type="curve"/>
      <point x="661.1157894736842" y="1316.9473684210527" type="line"/>
      <point x="607.3052631578947" y="1175.4736842105262"/>
      <point x="562.2315789473685" y="1059.3052631578948"/>
      <point x="494.25263157894733" y="882.7578947368421" type="curve"/>
      <point x="305.7263157894737" y="423.4736842105263" type="line"/>
      <point x="232.0842105263158" y="255.2842105263158"/>
      <point x="177.89473684210532" y="132.90526315789472"/>
    </contour>
    <contour>
      <point x="226.1052631578947" y="867.8947368421053" type="line"/>
      <point x="351.95789473684215" y="870.9894736842106"/>
      <point x="491.43157894736845" y="874.0842105263158"/>
      <point x="573.4736842105264" y="875.1789473684211" type="curve"/>
      <point x="1064.7157894736843" y="875.1789473684211" type="line"/>
      <point x="1146.7578947368422" y="874.0842105263158"/>
      <point x="1285.1368421052632" y="870.9894736842106"/>
      <point x="1409.8947368421054" y="867.8947368421053" type="curve"/>
      <point x="1439.4105263157896" y="1010.7157894736841" type="line"/>
      <point x="1313.5578947368422" y="1007.6210526315789"/>
      <point x="1174.6315789473686" y="1004.5263157894736"/>
      <point x="1092.042105263158" y="1003.4315789473684" type="curve"/>
      <point x="600.8000000000001" y="1003.4315789473684" type="line"/>
      <point x="519.3052631578947" y="1004.5263157894736"/>
      <point x="380.37894736842105" y="1007.6210526315789"/>
      <point x="255.62105263157895" y="1010.7157894736841" type="curve"/>
    </contour>
    <contour>
      <point x="596.3157894736842" y="0.0" type="curve"/>
      <point x="759.5368421052632" y="0.0" type="line"/>
      <point x="811.7052631578948" y="135.09473684210525"/>
      <point x="856.9684210526316" y="254.92631578947368"/>
      <point x="922.0421052631579" y="423.4736842105263" type="curve"/>
      <point x="1110.5684210526315" y="882.7578947368421" type="line"/>
      <point x="1187.1157894736841" y="1060.042105263158"/>
      <point x="1235.4736842105262" y="1172.7578947368422"/>
      <point x="1298.0210526315789" y="1316.9473684210527" type="curve"/>
      <point x="1137.5368421052633" y="1316.9473684210527" type="line"/>
      <point x="1083.7263157894738" y="1175.4736842105262"/>
      <point x="1038.6526315789474" y="1059.3052631578948"/>
      <point x="970.6736842105263" y="882.7578947368421" type="curve"/>
      <point x="782.1473684210526" y="423.4736842105263" type="line"/>
      <point x="708.5052631578948" y="255.2842105263158"/>
      <point x="654.3157894736842" y="132.90526315789472"/>
    </contour>
  </outline>
</glyph>
<glyph name="dollar" format="2">
  <advance width="1123.7052631578947"/>
  <unicode hex="0024"/>
  <outline>
    <contour>
      <point x="515.2842105263157" y="-21.28421052631579" type="curve" smooth="yes"/>
      <point x="815.9157894736842" y="-21.28421052631579"/>
      <point x="963.3894736842105" y="97.78947368421052"/>
      <point x="1009.7684210526315" y="321.6842105263158" type="curve" smooth="yes"/>
      <point x="1049.6" y="512.2947368421053"/>
      <point x="972.5052631578948" y="636.8421052631578"/>
      <point x="675.4315789473684" y="759.1789473684211" type="curve" smooth="yes"/>
      <point x="434.42105263157896" y="859.4947368421052"/>
      <point x="354.0842105263158" y="925.642105263158"/>
      <point x="382.9684210526316" y="1059.1578947368419" type="curve" smooth="yes"/>
      <point x="414.2105263157895" y="1209.557894736842"/>
      <point x="562.8210526315789" y="1246.4421052631578"/>
      <point x="706.9263157894736" y="1246.4421052631578" type="curve"/>
      <point x="748.1894736842106" y="1246.4421052631578"/>
      <point x="918.7578947368421" y="1189.3473684210526"/>
      <point x="1076.421052631579" y="1124.2526315789473" type="curve"/>
      <point x="1129.0526315789473" y="1276.378947368421" type="line"/>
      <point x="1009.5368421052631" y="1316.5684210526315"/>
      <point x="792.0421052631579" y="1394.1894736842105"/>
      <point x="699.8105263157895" y="1394.1894736842105" type="curve" smooth="yes"/>
      <point x="422.65263157894736" y="1394.1894736842105"/>
      <point x="269.5578947368421" y="1282.9052631578948"/>
      <point x="227.17894736842106" y="1080.463157894737" type="curve" smooth="yes"/>
      <point x="179.89473684210526" y="857.8526315789474"/>
      <point x="296.63157894736844" y="752.378947368421"/>
      <point x="550.7578947368421" y="644.2315789473685" type="curve" smooth="yes"/>
      <point x="757.7684210526315" y="556.2736842105263"/>
      <point x="882.8631578947368" y="480.86315789473684"/>
      <point x="853.4315789473684" y="339.1578947368421" type="curve" smooth="yes"/>
      <point x="816.9263157894736" y="162.8"/>
      <point x="669.0526315789473" y="124.27368421052631"/>
      <point x="518.5684210526316" y="124.27368421052633" type="curve"/>
      <point x="438.98947368421057" y="124.27368421052633"/>
      <point x="273.11578947368423" y="186.46315789473684"/>
      <point x="93.09473684210526" y="265.3684210526316" type="curve"/>
      <point x="42.46315789473684" y="107.41052631578947" type="line"/>
      <point x="213.76842105263157" y="42.33684210526316"/>
      <point x="414.18947368421055" y="-21.28421052631579"/>
    </contour>
    <contour>
      <point x="333.89473684210526" y="-274.0" type="curve"/>
      <point x="483.99999999999994" y="-274.0" type="line"/>
      <point x="539.2631578947368" y="0.905263157894737"/>
      <point x="599.0736842105263" y="307.4526315789474"/>
      <point x="614.5263157894736" y="384.0" type="curve"/>
      <point x="734.5263157894736" y="948.0" type="line"/>
      <point x="751.6210526315789" y="1025.0947368421052"/>
      <point x="821.8105263157894" y="1329.0947368421052"/>
      <point x="884.0" y="1606.0" type="curve"/>
      <point x="733.8947368421052" y="1606.0" type="line"/>
      <point x="678.6315789473684" y="1329.0947368421052"/>
      <point x="618.8210526315789" y="1024.5473684210526"/>
      <point x="603.3684210526316" y="948.0" type="curve"/>
      <point x="483.36842105263156" y="384.0" type="line"/>
      <point x="466.82105263157894" y="308.5473684210526"/>
      <point x="396.08421052631576" y="1.4526315789473685"/>
    </contour>
  </outline>
</glyph>
<glyph name="quotesingle" format="2">
  <advance width="403.7684210526316"/>
  <unicode hex="0027"/>
  <outline>
    <contour>
      <point x="196.6315789473684" y="873.4315789473684" type="curve"/>
      <point x="323.4315789473684" y="875.4315789473684" type="line"/>
      <point x="373.8315789473684" y="1081.6842105263158"/>
      <point x="432.0421052631579" y="1286.2947368421053"/>
      <point x="491.15789473684214" y="1488.5473684210526" type="curve"/>
      <point x="288.821052631579" y="1484.3578947368421" type="line"/>
      <point x="262.63157894736844" y="1283.7473684210527"/>
      <point x="234.9894736842105" y="1081.6842105263158"/>
    </contour>
  </outline>
</glyph>
<glyph name="parenleft" format="2">
  <advance width="770.1473684210526"/>
  <unicode hex="0028"/>
  <outline>
    <contour>
      <point x="410.5052631578947" y="-242.61052631578946" type="curve"/>
      <point x="558.0421052631579" y="-193.24210526315787" type="line"/>
      <point x="407.32631578947377" y="75.89473684210526"/>
      <point x="260.2947368421053" y="361.99999999999994"/>
      <point x="326.10526315789474" y="675.4315789473684" type="curve" smooth="yes"/>
      <point x="391.9157894736842" y="989.4105263157896"/>
      <point x="656.2105263157894" y="1240.084210526316"/>
      <point x="906.4000000000001" y="1477.2421052631578" type="curve"/>
      <point x="764.5052631578947" y="1537.5157894736842" type="line"/>
      <point x="528.5263157894738" y="1316.442105263158"/>
      <point x="235.93684210526317" y="1053.0105263157893"/>
      <point x="160.65263157894736" y="694.5684210526316" type="curve" smooth="yes"/>
      <point x="85.36842105263158" y="337.578947368421"/>
      <point x="270.8842105263158" y="13.368421052631575"/>
    </contour>
  </outline>
</glyph>
<glyph name="asterisk" format="2">
  <advance width="946.1052631578948"/>
  <unicode hex="002A"/>
  <outline>
    <contour>
      <point x="872.5473684210526" y="673.9157894736842" type="curve"/>
      <point x="962.5052631578947" y="770.8" type="line"/>
      <point x="847.0315789473684" y="867.5157894736842"/>
      <point x="729.0105263157894" y="965.1368421052632"/>
      <point x="613.5368421052631" y="1061.8526315789475" type="curve"/>
      <point x="510.0842105263158" y="1174.5894736842106"/>
      <point x="404.2736842105263" y="1285.5157894736842"/>
      <point x="301.36842105263156" y="1395.3473684210526" type="curve"/>
      <point x="212.86315789473684" y="1297.915789473684" type="line"/>
      <point x="326.8842105263158" y="1200.6526315789474"/>
      <point x="443.8105263157895" y="1103.578947368421"/>
      <point x="560.3789473684211" y="1004.8631578947368" type="curve"/>
      <point x="664.7368421052631" y="895.0315789473684"/>
      <point x="769.6421052631579" y="783.1999999999999"/>
    </contour>
    <contour>
      <point x="180.42105263157893" y="821.5368421052632" type="line"/>
      <point x="319.5157894736842" y="879.9157894736842"/>
      <point x="459.5157894736842" y="938.2947368421053"/>
      <point x="600.0631578947368" y="998.1263157894737" type="curve"/>
      <point x="745.3473684210526" y="1040.1052631578948"/>
      <point x="891.1789473684211" y="1081.1789473684212"/>
      <point x="1036.463157894737" y="1123.157894736842" type="curve"/>
      <point x="992.9473684210526" y="1247.7263157894736" type="line"/>
      <point x="854.4" y="1189.3473684210526"/>
      <point x="714.4" y="1130.9684210526316"/>
      <point x="575.3052631578947" y="1072.5894736842106" type="curve"/>
      <point x="428.5684210526316" y="1028.6105263157895"/>
      <point x="282.18947368421055" y="988.0842105263157"/>
      <point x="136.90526315789472" y="946.1052631578947" type="curve"/>
    </contour>
    <contour>
      <point x="427.0315789473685" y="604.0" type="curve"/>
      <point x="556.6947368421053" y="575.4105263157894" type="line"/>
      <point x="580.3157894736842" y="726.1473684210525"/>
      <point x="602.8421052631579" y="876.3368421052633"/>
      <point x="625.0105263157895" y="1028.5263157894738" type="curve"/>
      <point x="665.9368421052632" y="1173.621052631579"/>
      <point x="705.4105263157894" y="1318.7157894736843"/>
      <point x="746.3368421052631" y="1465.2631578947369" type="curve"/>
      <point x="617.2210526315789" y="1493.3052631578946" type="line"/>
      <point x="593.6" y="1343.1157894736841"/>
      <point x="571.0736842105264" y="1192.378947368421"/>
      <point x="548.9052631578948" y="1044.5473684210526" type="curve"/>
      <point x="507.9789473684211" y="896.5473684210527"/>
      <point x="467.95789473684215" y="750.5473684210526"/>
    </contour>
  </outline>
</glyph>
<glyph name="plus" format="2">
  <advance width="1176.421052631579"/>
  <unicode hex="002B"/>
  <outline>
    <contour>
      <point x="424.2105263157895" y="118.50526315789473" type="curve"/>
      <point x="592.1894736842105" y="118.50526315789473" type="line"/>
      <point x="616.7368421052631" y="246.7157894736842"/>
      <point x="642.7368421052631" y="382.7368421052632"/>
      <point x="658.378947368421" y="464.77894736842103" type="curve"/>
      <point x="715.0947368421052" y="730.5473684210526" type="line"/>
      <point x="734.9263157894736" y="813.6842105263157"/>
      <point x="767.1157894736841" y="951.5157894736842"/>
      <point x="796.4" y="1076.821052631579" type="curve"/>
      <point x="628.4210526315791" y="1076.821052631579" type="line"/>
      <point x="605.3263157894737" y="954.0631578947368"/>
      <point x="577.3263157894737" y="810.5894736842105"/>
      <point x="561.6842105263158" y="730.5473684210526" type="curve"/>
      <point x="504.96842105263164" y="464.77894736842103" type="line"/>
      <point x="487.1368421052632" y="384.18947368421055"/>
      <point x="454.9473684210527" y="245.26315789473682"/>
    </contour>
    <contour>
      <point x="128.27368421052628" y="516.5894736842106" type="line"/>
      <point x="254.12631578947367" y="519.6842105263158"/>
      <point x="393.59999999999997" y="522.7789473684211"/>
      <point x="475.6421052631579" y="523.8736842105263" type="curve"/>
      <point x="712.3578947368421" y="523.8736842105263" type="line"/>
      <point x="794.4" y="522.7789473684211"/>
      <point x="932.7789473684211" y="519.6842105263158"/>
      <point x="1057.5368421052633" y="516.5894736842106" type="curve"/>
      <point x="1091.7894736842106" y="678.7368421052631" type="line"/>
      <point x="966.4842105263158" y="675.6421052631579"/>
      <point x="825.5578947368421" y="672.5473684210526"/>
      <point x="743.5157894736842" y="671.4526315789474" type="curve"/>
      <point x="506.8" y="671.4526315789474" type="line"/>
      <point x="424.7578947368421" y="672.5473684210526"/>
      <point x="287.8315789473684" y="675.6421052631579"/>
      <point x="162.52631578947367" y="678.7368421052631" type="curve"/>
    </contour>
  </outline>
</glyph>
<glyph name="comma" format="2">
  <advance width="461.3894736842105"/>
  <unicode hex="002C"/>
  <outline>
    <contour>
      <point x="-80.82105263157895" y="-314.0" type="curve"/>
      <point x="16.252631578947366" y="-311.4526315789474" type="line"/>
      <point x="101.34736842105268" y="-194.04210526315794"/>
      <point x="257.64210526315793" y="13.83157894736842"/>
      <point x="274.37894736842105" y="99.1578947368421" type="curve" smooth="yes"/>
      <point x="288.75789473684205" y="173.7894736842105"/>
      <point x="268.37894736842105" y="230.23157894736843"/>
      <point x="197.0105263157895" y="245.34736842105264" type="curve"/>
      <point x="97.2" y="238.96842105263158" type="line"/>
      <point x="89.19999999999999" y="174.0"/>
      <point x="82.10526315789473" y="109.03157894736842"/>
      <point x="73.55789473684212" y="47.347368421052636" type="curve"/>
      <point x="26.105263157894733" y="-69.93684210526315"/>
      <point x="-28.463157894736852" y="-196.54736842105262"/>
    </contour>
  </outline>
</glyph>
<glyph name="hyphen" format="2">
  <advance width="845.4736842105264"/>
  <unicode hex="002D"/>
  <outline>
    <contour>
      <point x="127.72631578947367" y="513.8526315789475" type="line"/>
      <point x="236.29473684210527" y="516.9473684210527"/>
      <point x="356.12631578947367" y="520.042105263158"/>
      <point x="427.43157894736845" y="521.1368421052632" type="curve"/>
      <point x="498.7368421052632" y="520.042105263158"/>
      <point x="617.4736842105264" y="516.9473684210527"/>
      <point x="726.042105263158" y="513.8526315789475" type="curve"/>
      <point x="759.7473684210527" y="676.0" type="line"/>
      <point x="650.6315789473684" y="672.9052631578948"/>
      <point x="529.8947368421052" y="669.8105263157895"/>
      <point x="458.0421052631579" y="668.7157894736843" type="curve"/>
      <point x="387.28421052631575" y="669.8105263157895"/>
      <point x="269.4526315789474" y="672.9052631578948"/>
      <point x="161.4315789473684" y="676.0" type="curve"/>
    </contour>
  </outline>
</glyph>
<glyph name="period" format="2">
  <advance width="472.33684210526314"/>
  <unicode hex="002E"/>
  <outline>
    <contour>
      <point x="144.2736842105263" y="-21.83157894736842" type="curve" smooth="yes"/>
      <point x="225.64210526315787" y="-21.83157894736842"/>
      <point x="269.32631578947365" y="14.399999999999999"/>
      <point x="287.1578947368421" y="100.65263157894738" type="curve" smooth="yes"/>
      <point x="300.98947368421057" y="177.81052631578947"/>
      <point x="255.68421052631578" y="237.53684210526316"/>
      <point x="164.8421052631579" y="237.53684210526316" type="curve" smooth="yes"/>
      <point x="79.45263157894738" y="237.53684210526316"/>
      <point x="39.78947368421052" y="203.30526315789473"/>
      <point x="26.50526315789473" y="134.8842105263158" type="curve" smooth="yes"/>
      <point x="8.126315789473681" y="46.800000000000004"/>
      <point x="53.621052631578955" y="-21.83157894736842"/>
    </contour>
  </outline>
</glyph>
<glyph name="slash" format="2">
  <advance width="901.7263157894737"/>
  <unicode hex="002F"/>
  <outline>
    <contour>
      <point x="-51.53684210526316" y="0.0" type="curve"/>
      <point x="145.60000000000002" y="0.0" type="line"/>
      <point x="235.03157894736844" y="148.0"/>
      <point x="310.46315789473687" y="272.0"/>
      <point x="421.70526315789476" y="456.0" type="curve"/>
      <point x="731.8315789473685" y="948.0" type="line"/>
      <point x="854.5473684210526" y="1137.4526315789474"/>
      <point x="938.3578947368421" y="1265.4526315789474"/>
      <point x="1044.1684210526316" y="1426.0" type="curve"/>
      <point x="847.578947368421" y="1426.0" type="line"/>
      <point x="754.6947368421053" y="1273.4526315789474"/>
      <point x="677.263157894737" y="1144.0"/>
      <point x="560.5684210526316" y="952.5473684210526" type="curve"/>
      <point x="247.89473684210526" y="456.0" type="line"/>
      <point x="127.17894736842102" y="273.6421052631579"/>
      <point x="45.368421052631575" y="147.6421052631579"/>
    </contour>
  </outline>
</glyph>
<glyph name="one" format="2">
  <advance width="860.8842105263159"/>
  <unicode hex="0031"/>
  <outline>
    <contour>
      <point x="208.69473684210527" y="959.1578947368421" type="line"/>
      <point x="374.88421052631577" y="1042.4210526315792"/>
      <point x="538.1684210526316" y="1124.2315789473685"/>
      <point x="705.4526315789474" y="1208.042105263158" type="curve"/>
      <point x="744.0842105263158" y="1377.4736842105262" type="line"/>
      <point x="559.8526315789474" y="1293.1157894736841"/>
      <point x="377.2631578947368" y="1210.757894736842"/>
      <point x="193.57894736842104" y="1126.3999999999999" type="curve"/>
    </contour>
    <contour>
      <point x="352.7578947368421" y="0.0" type="curve"/>
      <point x="549.2" y="0.0" type="line"/>
      <point x="575.9157894736842" y="146.7157894736842"/>
      <point x="600.0842105263158" y="273.9789473684211"/>
      <point x="629.3473684210527" y="437.62105263157895" type="curve"/>
      <point x="726.4421052631579" y="895.0947368421052" type="line"/>
      <point x="766.0842105263158" y="1061.8105263157895"/>
      <point x="804.8210526315789" y="1221.2631578947369"/>
      <point x="840.6526315789474" y="1371.2842105263157" type="curve"/>
      <point x="744.0842105263158" y="1377.4736842105262" type="line"/>
      <point x="633.8315789473684" y="1297.1368421052632" type="line"/>
      <point x="606.021052631579" y="1153.5157894736842"/>
      <point x="575.8526315789474" y="995.9157894736843"/>
      <point x="550.9473684210526" y="868.2736842105263" type="curve"/>
      <point x="459.87368421052633" y="437.62105263157895" type="line"/>
      <point x="418.58947368421053" y="273.9789473684211"/>
      <point x="388.9473684210526" y="146.7157894736842"/>
    </contour>
  </outline>
</glyph>
<glyph name="two" format="2">
  <advance width="1108.9894736842105"/>
  <unicode hex="0032"/>
  <outline>
    <contour>
      <point x="-6.757894736842104" y="0.0" type="line"/>
      <point x="898.6736842105263" y="0.0" type="line"/>
      <point x="934.0210526315789" y="166.1684210526316" type="line"/>
      <point x="782.0631578947368" y="160.8842105263158"/>
      <point x="629.7473684210526" y="155.60000000000002"/>
      <point x="474.14736842105265" y="149.7684210526316" type="curve"/>
      <point x="195.6842105263158" y="149.7684210526316" type="line"/>
      <point x="217.89473684210526" y="107.51578947368422" type="line"/>
      <point x="478.7157894736842" y="295.2421052631579" type="line"/>
      <point x="835.1578947368422" y="551.8526315789474"/>
      <point x="1026.3368421052633" y="723.2631578947369"/>
      <point x="1074.1473684210528" y="953.221052631579" type="curve" smooth="yes"/>
      <point x="1124.5263157894738" y="1196.7368421052631"/>
      <point x="998.6315789473684" y="1397.4736842105262"/>
      <point x="699.6421052631579" y="1397.4736842105262" type="curve" smooth="yes"/>
      <point x="609.0947368421052" y="1397.4736842105262"/>
      <point x="375.1157894736843" y="1322.7789473684209"/>
      <point x="255.43157894736842" y="1285.3263157894737" type="curve"/>
      <point x="239.19999999999996" y="1102.421052631579" type="line"/>
      <point x="411.87368421052633" y="1172.5894736842106"/>
      <point x="620.4631578947368" y="1246.9894736842105"/>
      <point x="666.8" y="1246.9894736842105" type="curve"/>
      <point x="860.4842105263158" y="1243.8947368421052"/>
      <point x="935.1789473684211" y="1125.2631578947367"/>
      <point x="899.7473684210526" y="959.5578947368422" type="curve" smooth="yes"/>
      <point x="856.6736842105263" y="753.2842105263157"/>
      <point x="646.3578947368421" y="586.0631578947368"/>
      <point x="308.65263157894736" y="335.4315789473684" type="curve"/>
      <point x="213.4105263157895" y="268.7368421052632"/>
      <point x="116.35789473684211" y="201.13684210526316"/>
      <point x="21.115789473684213" y="134.4421052631579" type="curve"/>
    </contour>
  </outline>
</glyph>
<glyph name="three" format="2">
  <advance width="1142.3218390804598"/>
  <unicode hex="0033"/>
  <outline>
    <contour>
      <point x="482.7816091954023" y="-21.586206896551722" type="curve" smooth="yes"/>
      <point x="804.2758620689656" y="-21.586206896551722"/>
      <point x="960.6666666666667" y="101.21839080459769"/>
      <point x="1007.0574712643679" y="319.97701149425285" type="curve" smooth="yes"/>
      <point x="1053.057471264368" y="541.1954022988506"/>
      <point x="902.2068965517242" y="676.8275862068965"/>
      <point x="781.0114942528736" y="709.2183908045977" type="curve"/>
      <point x="784.2068965517242" y="727.1954022988506" type="line"/>
      <point x="940.2298850574713" y="756.0"/>
      <point x="1067.4482758620688" y="836.4367816091954"/>
      <point x="1103.4482758620688" y="1005.632183908046" type="curve" smooth="yes"/>
      <point x="1150.2528735632184" y="1224.0229885057472"/>
      <point x="986.2758620689656" y="1397.9770114942528"/>
      <point x="716.0" y="1397.9770114942528" type="curve" smooth="yes"/>
      <point x="628.8045977011495" y="1397.9770114942528"/>
      <point x="400.39080459770116" y="1322.3448275862067"/>
      <point x="282.8505747126437" y="1285.5402298850574" type="curve"/>
      <point x="266.5057471264368" y="1103.9310344827588" type="line"/>
      <point x="435.3563218390804" y="1173.1494252873565"/>
      <point x="640.0919540229886" y="1246.712643678161"/>
      <point x="684.9195402298851" y="1246.712643678161" type="curve"/>
      <point x="859.0344827586207" y="1243.5172413793105"/>
      <point x="958.3218390804598" y="1152.2298850574714"/>
      <point x="925.4942528735631" y="998.0919540229885" type="curve" smooth="yes"/>
      <point x="895.471264367816" y="859.1724137931034"/>
      <point x="773.3563218390805" y="787.080459770115"/>
      <point x="523.5402298850574" y="784.6896551724138" type="curve"/>
      <point x="483.1724137931035" y="787.080459770115"/>
      <point x="440.0" y="790.2758620689656"/>
      <point x="402.02298850574715" y="791.4712643678162" type="curve"/>
      <point x="368.8965517241379" y="637.8160919540229" type="line"/>
      <point x="411.6551724137931" y="639.0114942528735"/>
      <point x="456.8275862068965" y="642.2068965517241"/>
      <point x="499.58620689655174" y="643.4022988505747" type="curve"/>
      <point x="751.4022988505748" y="642.2068965517241"/>
      <point x="874.7126436781609" y="524.8735632183908"/>
      <point x="837.080459770115" y="351.10344827586204" type="curve" smooth="yes"/>
      <point x="806.2528735632185" y="206.96551724137933"/>
      <point x="704.1609195402299" y="131.67816091954023"/>
      <point x="483.97701149425285" y="128.48275862068965" type="curve"/>
      <point x="404.29885057471273" y="128.48275862068965"/>
      <point x="222.0" y="198.8505747126437"/>
      <point x="57.95402298850575" y="271.67816091954023" type="curve"/>
      <point x="6.850574712643676" y="108.04597701149426" type="line"/>
      <point x="165.67816091954023" y="49.60919540229885"/>
      <point x="384.7586206896552" y="-21.586206896551722"/>
    </contour>
  </outline>
</glyph>
<glyph name="four" format="2">
  <advance width="1199.5172413793102"/>
  <unicode hex="0034"/>
  <outline>
    <contour>
      <point x="602.5977011494252" y="0.0" type="curve"/>
      <point x="799.3103448275863" y="0.0" type="line"/>
      <point x="822.1149425287357" y="126.7816091954023"/>
      <point x="839.7241379310345" y="228.75862068965517"/>
      <point x="866.528735632184" y="377.9310344827586" type="curve"/>
      <point x="974.9425287356322" y="889.5862068965517" type="line"/>
      <point x="1013.3333333333334" y="1049.5862068965516"/>
      <point x="1050.919540229885" y="1204.781609195402"/>
      <point x="1091.310344827586" y="1371.5862068965516" type="curve"/>
      <point x="890.5977011494252" y="1371.5862068965516" type="line"/>
      <point x="812.5747126436781" y="1281.1724137931035"/>
      <point x="733.7471264367816" y="1191.1494252873563"/>
      <point x="656.919540229885" y="1101.9310344827586" type="curve"/>
      <point x="427.67816091954023" y="851.4942528735633" type="line"/>
      <point x="313.6551724137931" y="729.8620689655173"/>
      <point x="158.41379310344828" y="564.6206896551724"/>
      <point x="50.39080459770115" y="448.98850574712645" type="curve"/>
      <point x="23.6551724137931" y="316.48275862068965" type="line"/>
      <point x="758.0689655172414" y="316.48275862068965" type="line"/>
      <point x="861.6321839080459" y="314.0919540229885"/>
      <point x="1011.9770114942529" y="310.8965517241379"/>
      <point x="1107.5402298850574" y="307.7011494252873" type="curve"/>
      <point x="1143.0574712643677" y="476.11494252873564" type="line"/>
      <point x="1046.2988505747128" y="472.9195402298851"/>
      <point x="893.9540229885057" y="468.52873563218395"/>
      <point x="788.0" y="466.1379310344828" type="curve"/>
      <point x="759.6091954022988" y="466.1379310344828" type="line"/>
      <point x="193.26436781609195" y="466.1379310344828" type="line"/>
      <point x="203.24137931034483" y="423.7701149425288" type="line"/>
      <point x="282.0689655172414" y="513.7931034482758"/>
      <point x="361.2873563218391" y="604.2068965517242"/>
      <point x="440.11494252873564" y="694.2298850574713" type="curve"/>
      <point x="750.5977011494253" y="1032.712643678161" type="line"/>
      <point x="844.6206896551724" y="1133.1494252873565"/>
      <point x="938.2528735632184" y="1234.3908045977012"/>
      <point x="1034.2758620689658" y="1336.022988505747" type="curve"/>
      <point x="884.2068965517241" y="1290.1379310344828" type="line"/>
      <point x="856.5977011494252" y="1144.919540229885"/>
      <point x="830.183908045977" y="1007.3103448275862"/>
      <point x="803.7701149425287" y="862.0919540229885" type="curve"/>
      <point x="708.528735632184" y="412.2988505747127" type="line"/>
      <point x="696.551724137931" y="377.9310344827586" type="line"/>
      <point x="659.7701149425287" y="228.75862068965517"/>
      <point x="634.183908045977" y="127.97701149425288"/>
    </contour>
  </outline>
</glyph>
<glyph name="five" format="2">
  <advance width="1150.3448275862067"/>
  <unicode hex="0035"/>
  <outline>
    <contour>
      <point x="472.7816091954023" y="-21.586206896551722" type="curve" smooth="yes"/>
      <point x="788.6666666666667" y="-21.586206896551722"/>
      <point x="968.2758620689655" y="117.58620689655172"/>
      <point x="1027.4712643678158" y="397.95402298850576" type="curve" smooth="yes"/>
      <point x="1090.2758620689654" y="693.9540229885057"/>
      <point x="905.8390804597701" y="883.9310344827586"/>
      <point x="669.816091954023" y="883.9310344827586" type="curve" smooth="yes"/>
      <point x="590.528735632184" y="883.9310344827586"/>
      <point x="498.87356321839076" y="851.4942528735633"/>
      <point x="422.82758620689657" y="820.2758620689655" type="curve"/>
      <point x="406.04597701149424" y="820.2758620689655" type="line"/>
      <point x="424.45977011494256" y="907.1494252873563" type="line"/>
      <point x="451.65517241379314" y="1022.3908045977014"/>
      <point x="482.4827586206897" y="1155.7241379310344"/>
      <point x="511.28735632183907" y="1281.0114942528735" type="curve"/>
      <point x="431.4712643678161" y="1221.9310344827586" type="line"/>
      <point x="635.8850574712644" y="1221.9310344827586" type="line"/>
      <point x="792.2988505747127" y="1216.344827586207"/>
      <point x="955.9080459770115" y="1210.7586206896553"/>
      <point x="1115.126436781609" y="1205.1724137931035" type="curve"/>
      <point x="1149.4482758620688" y="1371.5862068965516" type="line"/>
      <point x="344.89655172413796" y="1371.5862068965516" type="line"/>
      <point x="318.0919540229885" y="1219.2183908045977"/>
      <point x="286.0919540229885" y="1048.4597701149426"/>
      <point x="252.09195402298852" y="867.7011494252873" type="curve"/>
      <point x="207.70114942528735" y="653.7471264367816" type="line"/>
      <point x="281.93103448275866" y="647.3563218390805" type="line"/>
      <point x="388.8275862068965" y="704.6206896551724"/>
      <point x="512.0919540229885" y="739.8390804597701"/>
      <point x="590.1149425287357" y="739.8390804597701" type="curve"/>
      <point x="768.6206896551723" y="736.6436781609195"/>
      <point x="899.1494252873564" y="628.551724137931"/>
      <point x="855.1034482758621" y="411.54022988505744" type="curve" smooth="yes"/>
      <point x="814.6666666666666" y="212.16091954022988"/>
      <point x="684.1609195402299" y="131.67816091954023"/>
      <point x="471.97701149425285" y="128.48275862068965" type="curve"/>
      <point x="393.10344827586215" y="128.48275862068965"/>
      <point x="218.0" y="198.8505747126437"/>
      <point x="57.95402298850575" y="271.67816091954023" type="curve"/>
      <point x="6.850574712643676" y="108.04597701149426" type="line"/>
      <point x="161.67816091954023" y="49.60919540229885"/>
      <point x="376.7586206896552" y="-21.586206896551722"/>
    </contour>
  </outline>
</glyph>
<glyph name="seven" format="2">
  <advance width="1055.9368421052632"/>
  <unicode hex="0037"/>
  <outline>
    <contour>
      <point x="105.70526315789475" y="0.0" type="curve"/>
      <point x="326.5473684210526" y="0.0" type="line"/>
      <point x="429.0526315789474" y="163.78947368421052"/>
      <point x="529.9157894736842" y="327.93684210526317"/>
      <point x="630.9684210526316" y="488.82105263157894" type="curve"/>
      <point x="815.2842105263157" y="766.5894736842105" type="line"/>
      <point x="925.4315789473684" y="930.9052631578948"/>
      <point x="1026.6736842105263" y="1080.863157894737"/>
      <point x="1132.4631578947367" y="1239.3684210526314" type="curve"/>
      <point x="1160.8842105263157" y="1371.2842105263157" type="line"/>
      <point x="234.0" y="1371.2842105263157" type="line"/>
      <point x="198.65263157894736" y="1203.4736842105262" type="line"/>
      <point x="366.80000000000007" y="1209.3052631578948"/>
      <point x="535.4947368421053" y="1215.6842105263158"/>
      <point x="703.6421052631579" y="1221.5157894736842" type="curve"/>
      <point x="984.1263157894737" y="1221.5157894736842" type="line"/>
      <point x="939.1157894736842" y="1259.578947368421" type="line"/>
      <point x="873.3263157894737" y="1157.6"/>
      <point x="809.8947368421053" y="1056.5263157894738"/>
      <point x="747.0105263157894" y="954.5473684210526" type="curve"/>
      <point x="471.2631578947368" y="540.0842105263158" type="line"/>
      <point x="350.9263157894737" y="362.84210526315786"/>
      <point x="228.0421052631579" y="180.69473684210524"/>
    </contour>
  </outline>
</glyph>
<glyph name="less" format="2">
  <advance width="1136.421052631579"/>
  <unicode hex="003C"/>
  <outline>
    <contour>
      <point x="936.9052631578948" y="137.5157894736842" type="curve"/>
      <point x="973.1578947368421" y="304.7578947368421" type="line"/>
      <point x="845.3894736842105" y="360.71578947368425"/>
      <point x="705.0947368421052" y="422.4842105263158"/>
      <point x="574.4210526315788" y="479.89473684210526" type="curve"/>
      <point x="363.7894736842105" y="578.7368421052632" type="line"/>
      <point x="368.33684210526314" y="596.2105263157895" type="line"/>
      <point x="618.7578947368421" y="693.9578947368421" type="line"/>
      <point x="773.957894736842" y="750.821052631579"/>
      <point x="940.7789473684211" y="812.5894736842106"/>
      <point x="1093.0736842105264" y="868.0" type="curve"/>
      <point x="1130.9684210526316" y="1054.9052631578948" type="line"/>
      <point x="994.021052631579" y="998.7157894736841"/>
      <point x="864.3578947368421" y="945.6210526315789"/>
      <point x="750.6947368421053" y="899.978947368421" type="curve"/>
      <point x="537.0736842105263" y="816.5473684210526" type="line"/>
      <point x="426.8631578947368" y="775.6421052631579"/>
      <point x="296.6526315789473" y="727.2842105263157"/>
      <point x="162.79999999999998" y="679.8315789473685" type="curve"/>
      <point x="126.54736842105261" y="512.5894736842105" type="line"/>
      <point x="240.4" y="465.13684210526316"/>
      <point x="351.1578947368421" y="416.7789473684211"/>
      <point x="442.4631578947368" y="375.87368421052633" type="curve"/>
      <point x="622.2736842105263" y="292.4421052631579" type="line"/>
      <point x="715.3894736842105" y="246.79999999999998"/>
      <point x="823.9578947368421" y="192.25263157894736"/>
    </contour>
  </outline>
</glyph>
<glyph name="equal" format="2">
  <advance width="1136.421052631579"/>
  <unicode hex="003D"/>
  <outline>
    <contour>
      <point x="87.01052631578946" y="292.9052631578947" type="line"/>
      <point x="212.86315789473682" y="296.0"/>
      <point x="352.33684210526314" y="299.09473684210525"/>
      <point x="434.37894736842105" y="300.1894736842105" type="curve"/>
      <point x="620.1473684210526" y="300.1894736842105" type="line"/>
      <point x="702.1894736842105" y="299.09473684210525"/>
      <point x="840.5684210526316" y="296.0"/>
      <point x="965.3263157894737" y="292.9052631578947" type="curve"/>
      <point x="999.578947368421" y="455.0526315789474" type="line"/>
      <point x="874.2736842105263" y="451.9578947368421"/>
      <point x="733.3473684210526" y="448.86315789473684"/>
      <point x="651.3052631578947" y="447.7684210526316" type="curve"/>
      <point x="465.5368421052632" y="447.7684210526316" type="line"/>
      <point x="383.4947368421053" y="448.86315789473684"/>
      <point x="246.56842105263158" y="451.9578947368421"/>
      <point x="121.26315789473685" y="455.0526315789474" type="curve"/>
    </contour>
    <contour>
      <point x="179.57894736842107" y="740.2736842105263" type="line"/>
      <point x="305.43157894736845" y="743.3684210526316"/>
      <point x="444.90526315789475" y="746.4631578947368"/>
      <point x="526.9473684210526" y="747.5578947368421" type="curve"/>
      <point x="712.7157894736841" y="747.5578947368421" type="line"/>
      <point x="794.757894736842" y="746.4631578947368"/>
      <point x="933.1368421052631" y="743.3684210526316"/>
      <point x="1057.8947368421054" y="740.2736842105263" type="curve"/>
      <point x="1092.1473684210528" y="902.421052631579" type="line"/>
      <point x="966.8421052631579" y="899.3263157894737"/>
      <point x="825.9157894736842" y="896.2315789473685"/>
      <point x="743.8736842105263" y="895.1368421052632" type="curve"/>
      <point x="558.1052631578948" y="895.1368421052632" type="line"/>
      <point x="476.06315789473683" y="896.2315789473685"/>
      <point x="339.13684210526316" y="899.3263157894737"/>
      <point x="213.83157894736843" y="902.421052631579" type="curve"/>
    </contour>
  </outline>
</glyph>
<glyph name="greater" format="2">
  <advance width="1136.421052631579"/>
  <unicode hex="003E"/>
  <outline>
    <contour>
      <point x="47.915789473684214" y="137.5157894736842" type="line"/>
      <point x="184.86315789473682" y="193.70526315789473"/>
      <point x="314.52631578947364" y="246.79999999999998"/>
      <point x="428.1894736842105" y="292.4421052631579" type="curve"/>
      <point x="641.8105263157895" y="375.87368421052633" type="line"/>
      <point x="752.021052631579" y="416.7789473684211"/>
      <point x="882.2315789473685" y="465.13684210526316"/>
      <point x="1016.0842105263158" y="512.5894736842105" type="curve"/>
      <point x="1052.3368421052633" y="679.8315789473685" type="line"/>
      <point x="938.4842105263158" y="727.2842105263157"/>
      <point x="827.7263157894737" y="775.6421052631579"/>
      <point x="736.421052631579" y="816.5473684210526" type="curve"/>
      <point x="556.6105263157895" y="899.978947368421" type="line"/>
      <point x="463.4947368421052" y="945.6210526315789"/>
      <point x="354.9263157894736" y="1000.1684210526315"/>
      <point x="241.97894736842105" y="1054.9052631578948" type="curve"/>
      <point x="205.7263157894737" y="887.6631578947369" type="line"/>
      <point x="333.4947368421052" y="831.7052631578947"/>
      <point x="473.7894736842105" y="769.9368421052632"/>
      <point x="604.4631578947368" y="712.5263157894736" type="curve"/>
      <point x="815.0947368421052" y="613.6842105263157" type="line"/>
      <point x="810.5473684210526" y="596.2105263157895" type="line"/>
      <point x="560.1263157894737" y="498.46315789473687" type="line"/>
      <point x="404.9263157894737" y="441.6"/>
      <point x="238.10526315789474" y="379.8315789473685"/>
      <point x="85.81052631578949" y="324.42105263157896" type="curve"/>
    </contour>
  </outline>
</glyph>
<glyph name="at" format="2">
  <advance width="1764.778947368421"/>
  <unicode hex="0040"/>
  <outline>
    <contour>
      <point x="954.9473684210527" y="-263.1578947368421" type="curve" smooth="yes"/>
      <point x="1084.042105263158" y="-263.1578947368421"/>
      <point x="1336.3999999999999" y="-176.98947368421054"/>
      <point x="1520.0421052631577" y="-118.82105263157895" type="curve"/>
      <point x="1520.0421052631577" y="11.557894736842108" type="line"/>
      <point x="1291.4736842105262" y="-75.17894736842105"/>
      <point x="1048.1894736842105" y="-147.89473684210523"/>
      <point x="954.9473684210527" y="-152.44210526315788" type="curve"/>
      <point x="400.65263157894736" y="-145.3473684210526"/>
      <point x="152.31578947368422" y="235.09473684210528"/>
      <point x="244.50526315789475" y="668.7368421052631" type="curve" smooth="yes"/>
      <point x="325.93684210526317" y="1052.6105263157895"/>
      <point x="591.4736842105264" y="1233.3894736842105"/>
      <point x="944.9473684210527" y="1240.4842105263158" type="curve"/>
      <point x="1376.336842105263" y="1233.3894736842105"/>
      <point x="1618.4842105263158" y="925.8736842105263"/>
      <point x="1542.6736842105263" y="517.3473684210526" type="curve" smooth="yes"/>
      <point x="1529.4105263157894" y="447.0315789473684"/>
      <point x="1358.2315789473685" y="244.56842105263155"/>
      <point x="1292.421052631579" y="236.90526315789472" type="curve"/>
      <point x="1193.0105263157895" y="243.45263157894735"/>
      <point x="1153.221052631579" y="297.62105263157895"/>
      <point x="1181.957894736842" y="438.5684210526316" type="curve"/>
      <point x="1234.2736842105264" y="689.7894736842105" type="line"/>
      <point x="1258.6526315789472" y="773.0947368421052"/>
      <point x="1287.3894736842103" y="871.8315789473684"/>
      <point x="1314.673684210526" y="962.5684210526316" type="curve"/>
      <point x="1175.1368421052632" y="953.8315789473684" type="line"/>
      <point x="1143.494736842105" y="845.8526315789474" type="line"/>
      <point x="1129.1157894736841" y="845.8526315789474" type="line"/>
      <point x="1059.663157894737" y="908.2315789473683"/>
      <point x="948.2526315789474" y="974.021052631579"/>
      <point x="869.7473684210527" y="974.021052631579" type="curve" smooth="yes"/>
      <point x="682.8421052631579" y="974.021052631579"/>
      <point x="541.9578947368421" y="826.7157894736843"/>
      <point x="496.69473684210527" y="607.6631578947369" type="curve" smooth="yes"/>
      <point x="446.1473684210526" y="364.5473684210526"/>
      <point x="544.7157894736843" y="142.7157894736842"/>
      <point x="779.0526315789474" y="142.7157894736842" type="curve" smooth="yes"/>
      <point x="839.3894736842105" y="142.7157894736842"/>
      <point x="946.0842105263158" y="202.8842105263158"/>
      <point x="1037.7263157894736" y="279.05263157894734" type="curve"/>
      <point x="1051.557894736842" y="279.05263157894734" type="line"/>
      <point x="1075.4105263157894" y="199.78947368421052"/>
      <point x="1148.2105263157894" y="123.81052631578947"/>
      <point x="1306.4210526315787" y="123.81052631578947" type="curve" smooth="yes"/>
      <point x="1382.4421052631578" y="123.81052631578947"/>
      <point x="1629.578947368421" y="354.35789473684207"/>
      <point x="1656.3157894736842" y="494.4" type="curve" smooth="yes"/>
      <point x="1746.1473684210525" y="963.1789473684211"/>
      <point x="1441.557894736842" y="1351.2"/>
      <point x="947.4947368421053" y="1351.2" type="curve" smooth="yes"/>
      <point x="563.1157894736842" y="1351.2"/>
      <point x="223.78947368421055" y="1145.9157894736843"/>
      <point x="129.95789473684212" y="690.421052631579" type="curve" smooth="yes"/>
      <point x="28.294736842105262" y="200.86315789473684"/>
      <point x="327.978947368421" y="-263.1578947368421"/>
    </contour>
    <contour>
      <point x="814.9684210526316" y="268.94736842105266" type="curve"/>
      <point x="656.7578947368421" y="272.94736842105266"/>
      <point x="596.9894736842106" y="411.0315789473684"/>
      <point x="633.6842105263158" y="585.7894736842105" type="curve" smooth="yes"/>
      <point x="665.1157894736842" y="733.6842105263158"/>
      <point x="752.5052631578948" y="840.1473684210526"/>
      <point x="898.3789473684211" y="844.6947368421053" type="curve"/>
      <point x="960.1473684210528" y="841.6"/>
      <point x="1046.7789473684209" y="794.378947368421"/>
      <point x="1107.6210526315788" y="743.1578947368421" type="curve"/>
      <point x="1036.2105263157894" y="412.63157894736844" type="line"/>
      <point x="963.0105263157895" y="327.0736842105263"/>
      <point x="868.5684210526317" y="274.58947368421053"/>
    </contour>
  </outline>
</glyph>
<glyph name="A" format="2">
  <advance width="1382.5263157894738"/>
  <unicode hex="0041"/>
  <anchor x="586.9894736842106" y="0.0" name="bottom"/>
  <anchor x="1230.0421052631577" y="0.0" name="ogonek"/>
  <anchor x="885.8947368421053" y="1426.0" name="top"/>
  <outline>
    <contour>
      <point x="-61.705263157894734" y="0.0" type="curve"/>
      <point x="166.23157894736846" y="0.0" type="line"/>
      <point x="254.1684210526316" y="168.31578947368425"/>
      <point x="348.10526315789474" y="347.3684210526316"/>
      <point x="434.58947368421053" y="512.7789473684211" type="curve"/>
      <point x="850.5473684210526" y="1262.5894736842106" type="line"/>
      <point x="868.021052631579" y="1262.5894736842106" type="line"/>
      <point x="969.3473684210527" y="510.2315789473684" type="line"/>
      <point x="986.4000000000001" y="348.2736842105263"/>
      <point x="1005.8105263157894" y="162.50526315789475"/>
      <point x="1022.8631578947368" y="0.0" type="curve"/>
      <point x="1233.3263157894737" y="0.0" type="line"/>
      <point x="1206.421052631579" y="148.90526315789472"/>
      <point x="1174.9684210526316" y="325.6421052631579"/>
      <point x="1146.6105263157895" y="483.2631578947368" type="curve"/>
      <point x="1074.6526315789474" y="974.0" type="line"/>
      <point x="1056.3157894736842" y="1143.0947368421052"/>
      <point x="1040.8842105263157" y="1281.8105263157895"/>
      <point x="1025.4526315789474" y="1426.0" type="curve"/>
      <point x="752.3368421052631" y="1426.0" type="line"/>
      <point x="672.9052631578948" y="1278.0"/>
      <point x="600.9263157894736" y="1143.4526315789474"/>
      <point x="510.58947368421053" y="975.4526315789474" type="curve"/>
      <point x="231.7263157894737" y="486.0" type="line"/>
      <point x="139.3684210526316" y="333.4526315789474"/>
      <point x="32.10526315789474" y="155.45263157894738"/>
    </contour>
    <contour>
      <point x="294.86315789473684" y="358.37894736842105" type="line"/>
      <point x="1045.4526315789474" y="358.37894736842105" type="line"/>
      <point x="1061.8315789473684" y="500.4842105263158" type="line"/>
      <point x="339.15789473684214" y="500.4842105263158" type="line"/>
    </contour>
  </outline>
</glyph>
<glyph name="C" format="2">
  <advance width="1369.9894736842105"/>
  <unicode hex="0043"/>
  <anchor x="693.8" y="0.0" name="bottom"/>
  <anchor x="979.2736842105263" y="1426.0" name="top"/>
  <outline>
    <contour>
      <point x="765.4631578947369" y="-21.83157894736842" type="curve" smooth="yes"/>
      <point x="850.8947368421051" y="-21.83157894736842"/>
      <point x="1053.4842105263156" y="30.33684210526316"/>
      <point x="1170.2" y="70.50526315789475" type="curve"/>
      <point x="1193.9052631578948" y="257.7684210526316" type="line"/>
      <point x="1049.736842105263" y="191.60000000000002"/>
      <point x="850.2631578947368" y="134.4842105263158"/>
      <point x="788.6421052631579" y="134.4842105263158" type="curve"/>
      <point x="413.0210526315789" y="141.03157894736842"/>
      <point x="273.8421052631579" y="449.6"/>
      <point x="342.34736842105264" y="773.9578947368421" type="curve" smooth="yes"/>
      <point x="417.94736842105266" y="1130.8842105263157"/>
      <point x="656.5578947368421" y="1285.4947368421053"/>
      <point x="955.7578947368422" y="1292.042105263158" type="curve"/>
      <point x="1006.284210526316" y="1292.042105263158"/>
      <point x="1205.5684210526315" y="1235.8526315789475"/>
      <point x="1394.4736842105262" y="1166.2105263157894" type="curve"/>
      <point x="1447.4842105263156" y="1341.6631578947367" type="line"/>
      <point x="1312.5157894736842" y="1382.9473684210527"/>
      <point x="1064.5157894736842" y="1452.1894736842105"/>
      <point x="972.3473684210527" y="1452.1894736842105" type="curve" smooth="yes"/>
      <point x="543.7157894736841" y="1452.1894736842105"/>
      <point x="249.56842105263158" y="1226.1894736842105"/>
      <point x="160.1157894736842" y="800.1894736842106" type="curve" smooth="yes"/>
      <point x="69.92631578947369" y="372.6947368421052"/>
      <point x="282.8736842105263" y="-21.83157894736842"/>
    </contour>
  </outline>
</glyph>
<glyph name="E" format="2">
  <advance width="1188.5747126436784"/>
  <unicode hex="0045"/>
  <anchor x="525.83908045977" y="0.0" name="bottom"/>
  <anchor x="968.1379310344827" y="0.0" name="ogonek"/>
  <anchor x="825.83908045977" y="1426.0" name="top"/>
  <anchor x="269.4022988505747" y="1426.0" name="topleft"/>
  <outline>
    <contour>
      <point x="69.5632183908046" y="0.0" type="curve"/>
      <point x="275.05747126436785" y="0.0" type="line"/>
      <point x="281.8390804597702" y="27.126436781609197" type="line"/>
      <point x="310.25287356321843" y="184.3448275862069"/>
      <point x="333.8620689655173" y="322.3448275862069"/>
      <point x="366.2758620689656" y="498.3448275862069" type="curve"/>
      <point x="455.90804597701157" y="923.6781609195402" type="line"/>
      <point x="498.68965517241384" y="1103.2643678160919"/>
      <point x="531.8850574712644" y="1240.0689655172414"/>
      <point x="570.2758620689656" y="1399.6781609195402" type="curve"/>
      <point x="575.0574712643679" y="1426.0" type="line"/>
      <point x="369.5632183908046" y="1426.0" type="line"/>
      <point x="339.9540229885057" y="1269.1954022988507"/>
      <point x="315.54022988505744" y="1129.9770114942528"/>
      <point x="283.1264367816092" y="946.0" type="curve"/>
      <point x="181.9310344827586" y="471.2183908045977" type="line"/>
      <point x="139.14942528735634" y="294.82758620689657"/>
      <point x="107.95402298850576" y="161.2183908045977"/>
    </contour>
    <contour>
      <point x="237.93103448275858" y="0.0" type="line"/>
      <point x="970.5287356321838" y="0.0" type="line"/>
      <point x="1007.2413793103448" y="171.60919540229884" type="line"/>
      <point x="862.8045977011494" y="167.2183908045977"/>
      <point x="707.1724137931035" y="160.82758620689654"/>
      <point x="533.1264367816092" y="155.24137931034483" type="curve"/>
      <point x="271.0574712643678" y="155.24137931034483" type="line"/>
    </contour>
    <contour>
      <point x="356.4367816091954" y="647.3793103448276" type="line"/>
      <point x="632.4827586206897" y="647.3793103448276" type="line"/>
      <point x="812.1149425287356" y="644.9885057471264"/>
      <point x="933.3333333333333" y="641.7931034482758"/>
      <point x="1064.16091954023" y="640.5977011494252" type="curve"/>
      <point x="1099.6781609195402" y="808.6206896551724" type="line"/>
      <point x="974.4597701149424" y="805.4252873563219"/>
      <point x="849.2413793103448" y="802.2298850574713"/>
      <point x="666.4137931034483" y="797.8390804597701" type="curve"/>
      <point x="388.367816091954" y="797.8390804597701" type="line"/>
    </contour>
    <contour>
      <point x="495.2413793103449" y="1270.7586206896551" type="line"/>
      <point x="751.7011494252872" y="1270.7586206896551" type="line"/>
      <point x="956.1609195402298" y="1265.1724137931033"/>
      <point x="1098.5977011494256" y="1258.7816091954023"/>
      <point x="1233.4252873563219" y="1254.3908045977012" type="curve"/>
      <point x="1268.9425287356323" y="1426.0" type="line"/>
      <point x="528.367816091954" y="1426.0" type="line"/>
    </contour>
  </outline>
</glyph>
<glyph name="F" format="2">
  <advance width="1150.2105263157894"/>
  <unicode hex="0046"/>
  <outline>
    <contour>
      <point x="69.85263157894738" y="0.0" type="curve"/>
      <point x="275.7684210526316" y="0.0" type="line"/>
      <point x="304.4842105263158" y="158.16842105263157"/>
      <point x="327.2" y="290.5263157894737"/>
      <point x="359.91578947368424" y="471.0736842105263" type="curve"/>
      <point x="456.0842105263158" y="923.2" type="line"/>
      <point x="498.46315789473687" y="1103.0315789473684"/>
      <point x="533.1999999999999" y="1239.9368421052632"/>
      <point x="571.3894736842104" y="1399.7473684210527" type="curve"/>
      <point x="575.7684210526315" y="1426.0" type="line"/>
      <point x="369.85263157894735" y="1426.0" type="line"/>
      <point x="341.13684210526316" y="1269.0947368421052"/>
      <point x="316.42105263157896" y="1130.0210526315789"/>
      <point x="283.15789473684214" y="946.5473684210526" type="curve"/>
      <point x="182.06315789473683" y="471.0736842105263" type="line"/>
      <point x="139.68421052631578" y="294.33684210526314"/>
      <point x="108.0421052631579" y="161.07368421052632"/>
    </contour>
    <contour>
      <point x="352.3157894736842" y="638.1684210526316" type="line"/>
      <point x="613.7473684210527" y="638.1684210526316" type="line"/>
      <point x="792.9894736842106" y="635.4315789473685"/>
      <point x="913.5157894736842" y="632.3368421052633"/>
      <point x="1044.9473684210527" y="630.6947368421053" type="curve"/>
      <point x="1080.2947368421053" y="799.7684210526317" type="line"/>
      <point x="955.2210526315789" y="796.6736842105263"/>
      <point x="830.6947368421053" y="793.0315789473684"/>
      <point x="647.2631578947369" y="788.8421052631579" type="curve"/>
      <point x="384.37894736842105" y="788.8421052631579" type="line"/>
    </contour>
    <contour>
      <point x="493.41052631578947" y="1270.4" type="line"/>
      <point x="735.0105263157894" y="1270.4" type="line"/>
      <point x="940.7789473684211" y="1264.5684210526317"/>
      <point x="1082.3789473684212" y="1258.9263157894738"/>
      <point x="1216.7157894736843" y="1254.7368421052633" type="curve"/>
      <point x="1252.0631578947368" y="1426.0" type="line"/>
      <point x="526.5684210526315" y="1426.0" type="line"/>
    </contour>
  </outline>
</glyph>
<glyph name="G" format="2">
  <advance width="1466.5157894736842"/>
  <unicode hex="0047"/>
  <anchor x="693.8" y="0.0" name="bottom"/>
  <anchor x="993.8" y="1426.0" name="top"/>
  <outline>
    <contour>
      <point x="800.0105263157895" y="-21.28421052631579" type="curve" smooth="yes"/>
      <point x="903.8421052631579" y="-21.28421052631579"/>
      <point x="1114.0315789473684" y="24.88421052631579"/>
      <point x="1245.8631578947368" y="59.410526315789475" type="curve"/>
      <point x="1245.6947368421054" y="235.38947368421054" type="line"/>
      <point x="1091.1473684210528" y="179.7684210526316"/>
      <point x="876.0315789473683" y="131.74736842105264"/>
      <point x="810.2210526315789" y="131.74736842105264" type="curve"/>
      <point x="402.4947368421053" y="138.29473684210527"/>
      <point x="271.6526315789474" y="446.31578947368416"/>
      <point x="341.2526315789474" y="775.0526315789474" type="curve" smooth="yes"/>
      <point x="418.8526315789474" y="1139.4315789473683"/>
      <point x="662.4105263157895" y="1286.042105263158"/>
      <point x="958.3263157894738" y="1292.042105263158" type="curve"/>
      <point x="1012.3052631578948" y="1292.042105263158"/>
      <point x="1223.5894736842106" y="1228.5894736842106"/>
      <point x="1423.5894736842104" y="1148.2315789473682" type="curve"/>
      <point x="1476.6000000000001" y="1323.6842105263156" type="line"/>
      <point x="1329.2526315789473" y="1370.7789473684209"/>
      <point x="1059.421052631579" y="1452.1894736842105"/>
      <point x="960.1578947368421" y="1452.1894736842105" type="curve" smooth="yes"/>
      <point x="537.021052631579" y="1452.1894736842105"/>
      <point x="250.66315789473686" y="1227.6631578947367"/>
      <point x="160.1157894736842" y="800.1894736842106" type="curve" smooth="yes"/>
      <point x="69.56842105263158" y="371.8105263157895"/>
      <point x="270.85263157894735" y="-21.28421052631579"/>
    </contour>
    <contour>
      <point x="1057.2736842105262" y="59.410526315789475" type="curve"/>
      <point x="1245.8631578947368" y="59.410526315789475" type="line"/>
      <point x="1271.3157894736842" y="196.88421052631577"/>
      <point x="1288.7684210526315" y="298.3578947368421"/>
      <point x="1308.7684210526318" y="403.8315789473684" type="curve"/>
      <point x="1340.6000000000001" y="528.2105263157895"/>
      <point x="1364.4315789473685" y="616.5894736842105"/>
      <point x="1389.7157894736845" y="715.5157894736842" type="curve"/>
      <point x="1186.915789473684" y="715.5157894736842" type="line"/>
      <point x="1171.1052631578948" y="616.5894736842105"/>
      <point x="1156.7473684210527" y="528.2105263157895"/>
      <point x="1136.9368421052632" y="403.8315789473684" type="curve"/>
      <point x="1112.1999999999998" y="298.3578947368421"/>
      <point x="1088.0105263157893" y="193.07368421052632"/>
    </contour>
  </outline>
</glyph>
<glyph name="H" format="2">
  <advance width="1506.0210526315789"/>
  <unicode hex="0048"/>
  <anchor x="648.7368421052631" y="0.0" name="bottom"/>
  <anchor x="798.7368421052631" y="714.0" name="center"/>
  <anchor x="948.7368421052631" y="1426.0" name="top"/>
  <anchor x="271.2842105263158" y="1426.0" name="topleft"/>
  <outline>
    <contour>
      <point x="1017.8736842105262" y="0.0" type="curve"/>
      <point x="1227.0736842105264" y="0.0" type="line"/>
      <point x="1255.2421052631578" y="157.0736842105263"/>
      <point x="1278.5052631578947" y="289.43157894736845"/>
      <point x="1311.221052631579" y="471.0736842105263" type="curve"/>
      <point x="1412.3157894736842" y="946.5473684210526" type="line"/>
      <point x="1456.6947368421052" y="1130.9263157894736"/>
      <point x="1488.8842105263157" y="1266.1894736842105"/>
      <point x="1527.0736842105264" y="1426.0" type="curve"/>
      <point x="1317.8736842105263" y="1426.0" type="line"/>
      <point x="1289.157894736842" y="1269.0947368421052"/>
      <point x="1264.4421052631578" y="1130.0210526315789"/>
      <point x="1231.178947368421" y="946.5473684210526" type="curve"/>
      <point x="1130.0842105263157" y="471.0736842105263" type="line"/>
      <point x="1087.7052631578947" y="294.33684210526314"/>
      <point x="1056.0631578947368" y="161.07368421052632"/>
    </contour>
    <contour>
      <point x="69.85263157894738" y="0.0" type="curve"/>
      <point x="279.0526315789474" y="0.0" type="line"/>
      <point x="307.22105263157897" y="157.0736842105263"/>
      <point x="330.4842105263158" y="289.43157894736845"/>
      <point x="363.20000000000005" y="471.0736842105263" type="curve"/>
      <point x="464.2947368421053" y="946.5473684210526" type="line"/>
      <point x="508.67368421052635" y="1130.9263157894736"/>
      <point x="540.8631578947369" y="1266.1894736842105"/>
      <point x="579.0526315789474" y="1426.0" type="curve"/>
      <point x="369.85263157894735" y="1426.0" type="line"/>
      <point x="341.13684210526316" y="1269.0947368421052"/>
      <point x="316.42105263157896" y="1130.0210526315789"/>
      <point x="283.15789473684214" y="946.5473684210526" type="curve"/>
      <point x="182.06315789473683" y="471.0736842105263" type="line"/>
      <point x="139.68421052631578" y="294.33684210526314"/>
      <point x="108.0421052631579" y="161.07368421052632"/>
    </contour>
    <contour>
      <point x="336.0" y="644.1894736842105" type="line"/>
      <point x="1235.578947368421" y="644.1894736842105" type="line"/>
      <point x="1269.284210526316" y="799.7894736842105" type="line"/>
      <point x="369.70526315789476" y="799.7894736842105" type="line"/>
    </contour>
  </outline>
</glyph>
<glyph name="I" format="2">
  <advance width="566.2105263157895"/>
  <unicode hex="0049"/>
  <anchor x="175.3684210526316" y="0.0" name="bottom"/>
  <anchor x="281.7894736842105" y="0.0" name="ogonek"/>
  <anchor x="475.3684210526316" y="1426.0" name="top"/>
  <anchor x="266.1684210526316" y="1426.0" name="topleft"/>
  <outline>
    <contour>
      <point x="72.58947368421053" y="0.0" type="curve"/>
      <point x="284.5263157894737" y="0.0" type="line"/>
      <point x="312.69473684210527" y="157.0736842105263"/>
      <point x="335.9578947368421" y="289.43157894736845"/>
      <point x="368.67368421052635" y="471.0736842105263" type="curve"/>
      <point x="469.7684210526316" y="946.5473684210526" type="line"/>
      <point x="514.1473684210526" y="1130.9263157894736"/>
      <point x="546.3368421052631" y="1266.1894736842105"/>
      <point x="584.5263157894736" y="1426.0" type="curve"/>
      <point x="372.5894736842105" y="1426.0" type="line"/>
      <point x="343.8736842105263" y="1269.0947368421052"/>
      <point x="319.1578947368421" y="1130.0210526315789"/>
      <point x="285.89473684210526" y="946.5473684210526" type="curve"/>
      <point x="184.79999999999998" y="471.0736842105263" type="line"/>
      <point x="142.42105263157893" y="294.33684210526314"/>
      <point x="110.77894736842104" y="161.07368421052632"/>
    </contour>
  </outline>
</glyph>
<glyph name="J" format="2">
  <advance width="589.0736842105263"/>
  <unicode hex="004A"/>
  <anchor x="198.96842105263158" y="0.0" name="bottom"/>
  <anchor x="498.9684210526316" y="1426.0" name="top"/>
  <outline>
    <contour>
      <point x="-129.68421052631578" y="-315.62105263157895" type="curve"/>
      <point x="56.294736842105266" y="-315.62105263157895" type="line"/>
      <point x="132.48421052631582" y="-214.3578947368421"/>
      <point x="308.1052631578948" y="29.242105263157892"/>
      <point x="321.221052631579" y="94.0842105263158" type="curve" smooth="yes"/>
      <point x="356.3157894736842" y="255.7473684210526"/>
      <point x="381.38947368421054" y="423.6"/>
      <point x="417.5789473684211" y="594.5473684210526" type="curve"/>
      <point x="492.63157894736844" y="946.5473684210526" type="line"/>
      <point x="537.0105263157895" y="1130.9263157894736"/>
      <point x="569.1999999999999" y="1266.1894736842105"/>
      <point x="607.3894736842105" y="1426.0" type="curve"/>
      <point x="398.1894736842105" y="1426.0" type="line"/>
      <point x="369.47368421052624" y="1269.0947368421052"/>
      <point x="344.75789473684205" y="1130.0210526315789"/>
      <point x="311.4947368421052" y="946.5473684210526" type="curve"/>
      <point x="226.2736842105263" y="546.6105263157895" type="line"/>
      <point x="122.9684210526316" y="90.82105263157894" type="line"/>
      <point x="24.463157894736867" y="-65.91578947368421"/>
      <point x="-49.70526315789474" y="-187.41052631578947"/>
    </contour>
  </outline>
</glyph>
<glyph name="K" format="2">
  <advance width="1344.5263157894738"/>
  <unicode hex="004B"/>
  <anchor x="583.5368421052631" y="0.0" name="bottom"/>
  <anchor x="883.5368421052631" y="1426.0" name="top"/>
  <outline>
    <contour>
      <point x="952.6526315789474" y="0.0" type="curve"/>
      <point x="1197.5157894736844" y="0.0" type="line"/>
      <point x="1100.6526315789472" y="122.92631578947369"/>
      <point x="946.9052631578946" y="318.2315789473684"/>
      <point x="832.778947368421" y="463.1578947368421" type="curve"/>
      <point x="594.0" y="781.9368421052632" type="line"/>
      <point x="595.8105263157895" y="696.6736842105263" type="line"/>
      <point x="921.1578947368421" y="977.7894736842105" type="line"/>
      <point x="1096.378947368421" y="1123.621052631579"/>
      <point x="1272.5052631578947" y="1269.8105263157895"/>
      <point x="1460.9894736842107" y="1426.0" type="curve"/>
      <point x="1194.2947368421053" y="1426.0" type="line"/>
      <point x="1027.3473684210526" y="1278.042105263158"/>
      <point x="913.621052631579" y="1174.0631578947368"/>
      <point x="784.2736842105262" y="1057.7263157894736" type="curve"/>
      <point x="497.0315789473685" y="811.978947368421" type="line"/>
      <point x="414.67368421052635" y="811.978947368421" type="line"/>
      <point x="383.15789473684214" y="663.4947368421052" type="line"/>
      <point x="466.2526315789474" y="663.4947368421052" type="line"/>
      <point x="686.9473684210526" y="370.10526315789474" type="line"/>
      <point x="767.7684210526315" y="256.6736842105263"/>
      <point x="852.3999999999999" y="139.78947368421052"/>
    </contour>
    <contour>
      <point x="69.85263157894738" y="0.0" type="curve"/>
      <point x="278.5052631578948" y="0.0" type="line"/>
      <point x="306.67368421052635" y="157.0736842105263"/>
      <point x="329.93684210526317" y="289.43157894736845"/>
      <point x="362.6526315789474" y="471.0736842105263" type="curve"/>
      <point x="463.74736842105267" y="946.5473684210526" type="line"/>
      <point x="508.1263157894737" y="1130.9263157894736"/>
      <point x="540.3157894736843" y="1266.1894736842105"/>
      <point x="578.5052631578948" y="1426.0" type="curve"/>
      <point x="369.85263157894735" y="1426.0" type="line"/>
      <point x="341.13684210526316" y="1269.0947368421052"/>
      <point x="316.42105263157896" y="1130.0210526315789"/>
      <point x="283.15789473684214" y="946.5473684210526" type="curve"/>
      <point x="182.06315789473683" y="471.0736842105263" type="line"/>
      <point x="139.68421052631578" y="294.33684210526314"/>
      <point x="108.0421052631579" y="161.07368421052632"/>
    </contour>
  </outline>
</glyph>
<glyph name="L" format="2">
  <advance width="1139.1157894736843"/>
  <unicode hex="004C"/>
  <anchor x="521.9578947368421" y="0.0" name="bottom"/>
  <anchor x="893.5368421052632" y="715.6421052631579" name="center"/>
  <anchor x="600.5052631578948" y="1426.0" name="top"/>
  <anchor x="672.2947368421053" y="992.3789473684211" name="topright"/>
  <outline>
    <contour>
      <point x="69.85263157894738" y="0.0" type="curve"/>
      <point x="279.0526315789474" y="0.0" type="line"/>
      <point x="285.43157894736845" y="27.705263157894738" type="line"/>
      <point x="309.7684210526316" y="185.8736842105263"/>
      <point x="333.0315789473684" y="321.13684210526316"/>
      <point x="369.5789473684211" y="498.77894736842103" type="curve"/>
      <point x="464.2947368421053" y="946.5473684210526" type="line"/>
      <point x="508.67368421052635" y="1130.9263157894736"/>
      <point x="540.8631578947369" y="1266.1894736842105"/>
      <point x="579.0526315789474" y="1426.0" type="curve"/>
      <point x="369.85263157894735" y="1426.0" type="line"/>
      <point x="341.13684210526316" y="1269.0947368421052"/>
      <point x="316.42105263157896" y="1130.0210526315789"/>
      <point x="283.15789473684214" y="946.5473684210526" type="curve"/>
      <point x="182.06315789473683" y="471.0736842105263" type="line"/>
      <point x="139.68421052631578" y="294.33684210526314"/>
      <point x="108.0421052631579" y="161.07368421052632"/>
    </contour>
    <contour>
      <point x="238.06315789473683" y="0.0" type="line"/>
      <point x="966.2315789473685" y="0.0" type="line"/>
      <point x="1003.7684210526315" y="180.56842105263158" type="line"/>
      <point x="846.1684210526315" y="174.73684210526318"/>
      <point x="713.4736842105262" y="170.0"/>
      <point x="484.44210526315794" y="161.07368421052632" type="curve"/>
      <point x="272.8631578947369" y="161.07368421052632" type="line"/>
    </contour>
  </outline>
</glyph>
<glyph name="M" format="2">
  <advance width="1912.9473684210527"/>
  <unicode hex="004D"/>
  <anchor x="850.9263157894737" y="0.0" name="bottom"/>
  <anchor x="1150.9263157894736" y="1426.0" name="top"/>
  <outline>
    <contour>
      <point x="14.063157894736845" y="0.0" type="curve"/>
      <point x="217.9578947368421" y="0.0" type="line"/>
      <point x="293.34736842105264" y="245.49473684210525"/>
      <point x="365.8315789473684" y="480.98947368421057"/>
      <point x="427.05263157894734" y="679.7894736842105" type="curve"/>
      <point x="567.1578947368421" y="1106.2736842105264" type="line"/>
      <point x="580.2736842105264" y="1106.2736842105264" type="line"/>
      <point x="671.2842105263157" y="643.4526315789474" type="line"/>
      <point x="707.6" y="427.57894736842104"/>
      <point x="747.7263157894737" y="184.2736842105263"/>
      <point x="778.2315789473685" y="0.0" type="curve"/>
      <point x="931.0947368421054" y="0.0" type="line"/>
      <point x="1043.3684210526317" y="190.9894736842105"/>
      <point x="1179.4315789473683" y="423.57894736842104"/>
      <point x="1310.2315789473685" y="646.3578947368421" type="curve"/>
      <point x="1587.4736842105262" y="1106.2736842105264" type="line"/>
      <point x="1600.5894736842106" y="1106.2736842105264" type="line"/>
      <point x="1562.6105263157895" y="679.7894736842105" type="line"/>
      <point x="1538.0631578947368" y="478.63157894736844"/>
      <point x="1511.5157894736844" y="251.85263157894738"/>
      <point x="1481.5157894736842" y="0.0" type="curve"/>
      <point x="1688.3368421052633" y="0.0" type="line"/>
      <point x="1698.5052631578947" y="157.62105263157895"/>
      <point x="1707.221052631579" y="298.5263157894737"/>
      <point x="1717.3894736842105" y="471.0736842105263" type="curve"/>
      <point x="1759.7473684210527" y="945.4526315789474" type="line"/>
      <point x="1779.9368421052632" y="1120.3578947368421"/>
      <point x="1796.1263157894737" y="1264.1894736842105"/>
      <point x="1813.7684210526318" y="1426.0" type="curve"/>
      <point x="1598.2105263157896" y="1426.0" type="line"/>
      <point x="1477.3894736842105" y="1220.463157894737"/>
      <point x="1370.021052631579" y="1036.5684210526317"/>
      <point x="1257.2" y="844.6736842105263" type="curve"/>
      <point x="915.978947368421" y="286.2526315789474" type="line"/>
      <point x="901.957894736842" y="286.2526315789474" type="line"/>
      <point x="794.5894736842105" y="844.6736842105263" type="line"/>
      <point x="762.9894736842105" y="1035.1157894736843"/>
      <point x="731.936842105263" y="1222.1052631578948"/>
      <point x="698.8842105263157" y="1426.0" type="curve"/>
      <point x="489.70526315789476" y="1426.0" type="line"/>
      <point x="440.4421052631579" y="1264.1894736842105"/>
      <point x="395.53684210526313" y="1116.0"/>
      <point x="343.7263157894737" y="945.4526315789474" type="curve"/>
      <point x="186.0842105263158" y="471.0736842105263" type="line"/>
      <point x="123.34736842105264" y="298.1684210526316"/>
      <point x="70.61052631578949" y="156.52631578947367"/>
    </contour>
  </outline>
</glyph>
<glyph name="N" format="2">
  <advance width="1519.2631578947369"/>
  <unicode hex="004E"/>
  <anchor x="653.4526315789474" y="0.0" name="bottom"/>
  <anchor x="953.4526315789474" y="1426.0" name="top"/>
  <outline>
    <contour>
      <point x="69.85263157894738" y="0.0" type="curve"/>
      <point x="269.74736842105267" y="0.0" type="line"/>
      <point x="297.91578947368424" y="157.0736842105263"/>
      <point x="321.17894736842106" y="289.43157894736845"/>
      <point x="353.8947368421053" y="471.0736842105263" type="curve"/>
      <point x="494.12631578947367" y="1137.536842105263" type="line"/>
      <point x="508.69473684210527" y="1137.536842105263" type="line"/>
      <point x="725.4526315789473" y="690.5263157894738" type="line"/>
      <point x="849.3473684210526" y="423.95789473684215"/>
      <point x="950.7157894736841" y="204.6315789473684"/>
      <point x="1043.9157894736843" y="0.0" type="curve"/>
      <point x="1235.9578947368423" y="0.0" type="line"/>
      <point x="1264.1263157894737" y="157.0736842105263"/>
      <point x="1287.3894736842105" y="289.43157894736845"/>
      <point x="1320.1052631578948" y="471.0736842105263" type="curve"/>
      <point x="1421.2" y="946.5473684210526" type="line"/>
      <point x="1465.578947368421" y="1130.9263157894736"/>
      <point x="1497.7684210526315" y="1266.1894736842105"/>
      <point x="1535.9578947368423" y="1426.0" type="curve"/>
      <point x="1336.0631578947368" y="1426.0" type="line"/>
      <point x="1307.3473684210526" y="1269.0947368421052"/>
      <point x="1282.6315789473683" y="1130.0210526315789"/>
      <point x="1249.3684210526314" y="946.5473684210526" type="curve"/>
      <point x="1110.2315789473682" y="294.2736842105263" type="line"/>
      <point x="1095.1157894736841" y="294.2736842105263" type="line"/>
      <point x="881.4526315789474" y="737.8315789473684" type="line"/>
      <point x="781.7263157894737" y="955.5157894736842"/>
      <point x="679.4526315789474" y="1179.3894736842105"/>
      <point x="567.7263157894737" y="1426.0" type="curve"/>
      <point x="369.85263157894735" y="1426.0" type="line"/>
      <point x="341.13684210526316" y="1269.0947368421052"/>
      <point x="316.42105263157896" y="1130.0210526315789"/>
      <point x="283.15789473684214" y="946.5473684210526" type="curve"/>
      <point x="182.06315789473683" y="471.0736842105263" type="line"/>
      <point x="139.68421052631578" y="294.33684210526314"/>
      <point x="108.0421052631579" y="161.07368421052632"/>
    </contour>
  </outline>
</glyph>
<glyph name="P" format="2">
  <advance width="1256.4597701149428"/>
  <unicode hex="0050"/>
  <outline>
    <contour>
      <point x="701.6321839080459" y="565.0114942528736" type="curve"/>
      <point x="1093.7011494252874" y="565.0114942528736"/>
      <point x="1221.632183908046" y="712.5977011494252"/>
      <point x="1276.0229885057472" y="974.5287356321838" type="curve" smooth="yes"/>
      <point x="1335.195402298851" y="1258.7816091954023"/>
      <point x="1188.0459770114944" y="1431.5862068965516"/>
      <point x="863.3103448275862" y="1431.5862068965516" type="curve"/>
      <point x="645.4022988505747" y="1429.1954022988505"/>
      <point x="491.9080459770115" y="1427.1954022988505"/>
      <point x="369.5632183908046" y="1426.0" type="curve"/>
      <point x="506.75862068965523" y="1275.5402298850574" type="line"/>
      <point x="830.2068965517241" y="1275.5402298850574" type="line" smooth="yes"/>
      <point x="972.7126436781608" y="1275.5402298850574"/>
      <point x="1143.7241379310346" y="1223.1494252873563"/>
      <point x="1092.873563218391" y="985.7241379310345" type="curve" smooth="yes"/>
      <point x="1049.632183908046" y="779.1034482758621"/>
      <point x="945.9310344827585" y="717.8620689655172"/>
      <point x="694.4827586206895" y="717.8620689655172" type="curve" smooth="yes"/>
      <point x="389.9080459770115" y="717.8620689655172" type="line"/>
      <point x="357.9770114942529" y="568.2068965517242" type="line"/>
      <point x="437.9770114942529" y="568.2068965517242"/>
      <point x="600.8275862068965" y="566.2068965517242"/>
    </contour>
    <contour>
      <point x="69.5632183908046" y="0.0" type="curve"/>
      <point x="276.25287356321843" y="0.0" type="line"/>
      <point x="305.86206896551727" y="158.41379310344828"/>
      <point x="328.2758620689656" y="292.4137931034483"/>
      <point x="360.68965517241384" y="471.2183908045977" type="curve"/>
      <point x="457.10344827586215" y="923.6781609195402" type="line"/>
      <point x="499.8850574712644" y="1103.2643678160919"/>
      <point x="534.2758620689656" y="1240.0689655172414"/>
      <point x="572.6666666666667" y="1399.6781609195402" type="curve"/>
      <point x="369.5632183908046" y="1426.0" type="line"/>
      <point x="339.9540229885057" y="1269.1954022988507"/>
      <point x="315.54022988505744" y="1129.9770114942528"/>
      <point x="283.1264367816092" y="946.0" type="curve"/>
      <point x="181.9310344827586" y="471.2183908045977" type="line"/>
      <point x="139.14942528735634" y="294.82758620689657"/>
      <point x="107.95402298850574" y="161.2183908045977"/>
    </contour>
  </outline>
</glyph>
<glyph name="R" format="2">
  <advance width="1348.0689655172414"/>
  <unicode hex="0052"/>
  <anchor x="570.1379310344828" y="0.0" name="bottom"/>
  <anchor x="854.8505747126437" y="1426.0" name="top"/>
  <outline>
    <contour>
      <point x="960.1149425287356" y="0.0" type="curve"/>
      <point x="1194.3678160919542" y="0.0" type="line"/>
      <point x="1123.9310344827586" y="112.0"/>
      <point x="1019.8850574712643" y="277.58620689655174"/>
      <point x="937.4482758620688" y="407.97701149425285" type="curve"/>
      <point x="769.7471264367815" y="690.3678160919541" type="line"/>
      <point x="702.3908045977012" y="612.528735632184" type="line"/>
      <point x="1083.264367816092" y="609.7241379310345"/>
      <point x="1215.1954022988505" y="751.7241379310344"/>
      <point x="1266.3908045977012" y="994.8965517241379" type="curve" smooth="yes"/>
      <point x="1322.367816091954" y="1257.9770114942528"/>
      <point x="1172.8275862068965" y="1431.5862068965516"/>
      <point x="846.8965517241379" y="1431.5862068965516" type="curve"/>
      <point x="648.1149425287356" y="1430.3908045977012"/>
      <point x="497.88505747126436" y="1427.1954022988505"/>
      <point x="369.5632183908046" y="1426.0" type="curve"/>
      <point x="474.48275862068965" y="1275.5402298850574" type="line"/>
      <point x="814.9885057471264" y="1275.5402298850574" type="line" smooth="yes"/>
      <point x="957.4942528735631" y="1275.5402298850574"/>
      <point x="1126.505747126437" y="1227.1264367816093"/>
      <point x="1078.4597701149426" y="1000.1149425287357" type="curve" smooth="yes"/>
      <point x="1032.8275862068967" y="785.9540229885058"/>
      <point x="923.5402298850573" y="728.2988505747127"/>
      <point x="676.8735632183908" y="728.2988505747127" type="curve" smooth="yes"/>
      <point x="380.3448275862069" y="728.2988505747127" type="line"/>
      <point x="348.4137931034483" y="578.6436781609195" type="line"/>
      <point x="685.5862068965517" y="578.6436781609195" type="line"/>
      <point x="590.9885057471264" y="672.3678160919541" type="line"/>
      <point x="778.2758620689655" y="338.48275862068965" type="line"/>
      <point x="836.758620689655" y="230.04597701149424"/>
      <point x="896.4367816091955" y="120.41379310344827"/>
    </contour>
    <contour>
      <point x="69.5632183908046" y="0.0" type="curve"/>
      <point x="277.448275862069" y="0.0" type="line"/>
      <point x="305.86206896551727" y="158.41379310344828"/>
      <point x="328.2758620689656" y="290.02298850574715"/>
      <point x="360.68965517241384" y="471.2183908045977" type="curve"/>
      <point x="457.1034482758621" y="923.6781609195402" type="line"/>
      <point x="499.8850574712644" y="1103.2643678160919"/>
      <point x="534.2758620689656" y="1240.0689655172414"/>
      <point x="572.6666666666667" y="1399.6781609195402" type="curve"/>
      <point x="369.5632183908046" y="1426.0" type="line"/>
      <point x="339.9540229885057" y="1269.1954022988507"/>
      <point x="315.54022988505744" y="1129.9770114942528"/>
      <point x="283.1264367816092" y="946.0" type="curve"/>
      <point x="181.9310344827586" y="471.2183908045977" type="line"/>
      <point x="139.14942528735634" y="294.82758620689657"/>
      <point x="107.95402298850574" y="161.2183908045977"/>
    </contour>
  </outline>
</glyph>
<glyph name="S" format="2">
  <advance width="1172.712643678161"/>
  <unicode hex="0053"/>
  <anchor x="489.1724137931035" y="0.0" name="bottom"/>
  <anchor x="789.1724137931035" y="1426.0" name="top"/>
  <outline>
    <contour>
      <point x="541.9770114942529" y="-21.586206896551722" type="curve" smooth="yes"/>
      <point x="856.2758620689656" y="-21.586206896551722"/>
      <point x="1011.8620689655172" y="101.63218390804597"/>
      <point x="1060.6436781609195" y="333.54022988505744" type="curve" smooth="yes"/>
      <point x="1101.0344827586207" y="526.2988505747127"/>
      <point x="1019.8390804597701" y="661.471264367816"/>
      <point x="707.816091954023" y="792.6896551724137" type="curve" smooth="yes"/>
      <point x="469.6551724137931" y="893.5632183908046"/>
      <point x="392.0" y="965.5862068965516"/>
      <point x="422.8275862068965" y="1110.1149425287354" type="curve" smooth="yes"/>
      <point x="454.06896551724134" y="1257.9080459770116"/>
      <point x="604.2298850574713" y="1291.5402298850574"/>
      <point x="745.9540229885057" y="1295.5402298850574" type="curve"/>
      <point x="788.3678160919541" y="1295.5402298850574"/>
      <point x="967.9540229885058" y="1235.5402298850577"/>
      <point x="1133.9310344827586" y="1167.5402298850574" type="curve"/>
      <point x="1183.4252873563219" y="1336.7586206896553" type="line"/>
      <point x="1058.2988505747126" y="1375.5632183908044"/>
      <point x="829.1494252873563" y="1452.3908045977012"/>
      <point x="732.8045977011494" y="1452.3908045977012" type="curve" smooth="yes"/>
      <point x="444.89655172413796" y="1452.3908045977012"/>
      <point x="281.28735632183907" y="1337.218390804598"/>
      <point x="237.70114942528735" y="1128.0919540229886" type="curve" smooth="yes"/>
      <point x="190.50574712643677" y="905.7241379310344"/>
      <point x="306.8965517241379" y="780.2068965517242"/>
      <point x="579.7701149425287" y="665.7701149425287" type="curve" smooth="yes"/>
      <point x="791.8850574712643" y="576.9195402298851"/>
      <point x="906.3448275862069" y="499.2643678160919"/>
      <point x="875.5172413793103" y="349.1264367816092" type="curve" smooth="yes"/>
      <point x="838.6666666666666" y="170.50574712643677"/>
      <point x="690.0919540229885" y="138.0689655172414"/>
      <point x="543.9770114942529" y="134.0689655172414" type="curve"/>
      <point x="459.9080459770115" y="134.0689655172414"/>
      <point x="285.5632183908046" y="200.0689655172414"/>
      <point x="96.78160919540231" y="283.67816091954023" type="curve"/>
      <point x="45.28735632183909" y="114.85057471264368" type="line"/>
      <point x="224.85057471264366" y="46.827586206896555"/>
      <point x="436.78160919540227" y="-21.586206896551722"/>
    </contour>
  </outline>
</glyph>
<glyph name="T" format="2">
  <advance width="1281.6631578947367"/>
  <unicode hex="0054"/>
  <anchor x="539.2842105263157" y="0.0" name="bottom"/>
  <anchor x="682.1684210526315" y="682.2526315789473" name="center"/>
  <anchor x="839.2842105263157" y="1426.0" name="top"/>
  <outline>
    <contour>
      <point x="434.8631578947369" y="0.0" type="curve"/>
      <point x="643.5157894736842" y="0.0" type="line"/>
      <point x="671.6842105263157" y="157.0736842105263"/>
      <point x="694.9473684210526" y="289.43157894736845"/>
      <point x="727.6631578947369" y="471.0736842105263" type="curve"/>
      <point x="824.378947368421" y="923.2" type="line"/>
      <point x="864.3789473684209" y="1105.9368421052632"/>
      <point x="897.6631578947367" y="1239.9368421052632"/>
      <point x="939.6842105263157" y="1399.7473684210527" type="curve"/>
      <point x="944.0631578947368" y="1426.0" type="line"/>
      <point x="735.4105263157895" y="1426.0" type="line"/>
      <point x="729.578947368421" y="1399.7473684210527" type="line"/>
      <point x="704.6947368421054" y="1239.9368421052632"/>
      <point x="680.8842105263158" y="1104.4842105263158"/>
      <point x="643.7894736842105" y="923.2" type="curve"/>
      <point x="547.0736842105264" y="471.0736842105263" type="line"/>
      <point x="504.69473684210527" y="294.33684210526314"/>
      <point x="473.05263157894734" y="161.07368421052632"/>
    </contour>
    <contour>
      <point x="221.7052631578947" y="1245.4315789473683" type="line"/>
      <point x="334.77894736842103" y="1250.7157894736843"/>
      <point x="455.4947368421052" y="1258.0"/>
      <point x="616.7368421052631" y="1264.9263157894736" type="curve"/>
      <point x="744.1684210526316" y="1264.9263157894736" type="line"/>
      <point x="778.421052631579" y="1426.0" type="line"/>
      <point x="259.2421052631579" y="1426.0" type="line"/>
    </contour>
    <contour>
      <point x="863.8947368421053" y="1264.9263157894736" type="line"/>
      <point x="991.3263157894737" y="1264.9263157894736" type="line"/>
      <point x="1153.1157894736841" y="1257.4526315789474"/>
      <point x="1270.0" y="1250.7157894736843"/>
      <point x="1379.7894736842106" y="1245.4315789473683" type="curve"/>
      <point x="1417.3263157894737" y="1426.0" type="line"/>
      <point x="898.1473684210526" y="1426.0" type="line"/>
    </contour>
  </outline>
</glyph>
<glyph name="V" format="2">
  <advance width="1375.4105263157894"/>
  <unicode hex="0056"/>
  <anchor x="585.1578947368421" y="0.0" name="bottom"/>
  <anchor x="885.1578947368421" y="1426.0" name="top"/>
  <outline>
    <contour>
      <point x="450.67368421052635" y="0.0" type="curve"/>
      <point x="725.621052631579" y="0.0" type="line"/>
      <point x="801.9578947368421" y="142.3578947368421"/>
      <point x="896.6526315789474" y="320.1684210526316"/>
      <point x="967.7263157894737" y="453.4526315789474" type="curve"/>
      <point x="1219.4947368421053" y="900.0" type="line"/>
      <point x="1311.8526315789472" y="1054.0"/>
      <point x="1429.6631578947367" y="1251.4526315789474"/>
      <point x="1534.021052631579" y="1426.0" type="curve"/>
      <point x="1292.2105263157896" y="1426.0" type="line"/>
      <point x="1184.2947368421053" y="1219.157894736842"/>
      <point x="1060.7578947368422" y="983.6"/>
      <point x="952.8421052631579" y="776.2105263157895" type="curve"/>
      <point x="630.1473684210526" y="187.49473684210528" type="line"/>
      <point x="612.6736842105264" y="187.49473684210528" type="line"/>
      <point x="531.8947368421053" y="772.7578947368421" type="line"/>
      <point x="506.67368421052635" y="979.0526315789474"/>
      <point x="477.0947368421053" y="1219.157894736842"/>
      <point x="451.8736842105263" y="1426.0" type="curve"/>
      <point x="234.29473684210527" y="1426.0" type="line"/>
      <point x="266.10526315789474" y="1254.0"/>
      <point x="303.36842105263156" y="1049.6421052631579"/>
      <point x="331.17894736842106" y="898.5473684210526" type="curve"/>
      <point x="396.7578947368421" y="453.4526315789474" type="line"/>
      <point x="413.64210526315793" y="317.4526315789474"/>
      <point x="434.3368421052632" y="143.09473684210525"/>
    </contour>
  </outline>
</glyph>
<glyph name="W" format="2">
  <advance width="2037.4105263157894"/>
  <unicode hex="0057"/>
  <anchor x="911.5157894736842" y="0.0" name="bottom"/>
  <anchor x="1211.5157894736842" y="1426.0" name="top"/>
  <outline>
    <contour>
      <point x="347.8526315789474" y="0.0" type="curve"/>
      <point x="603.2421052631579" y="0.0" type="line"/>
      <point x="690.4421052631578" y="192.63157894736844"/>
      <point x="793.8105263157894" y="425.2421052631579"/>
      <point x="880.4631578947369" y="615.6842105263158" type="curve"/>
      <point x="1144.821052631579" y="1172.1263157894737" type="line"/>
      <point x="1162.2947368421053" y="1172.1263157894737" type="line"/>
      <point x="1197.1368421052632" y="615.6842105263158" type="line"/>
      <point x="1204.9263157894736" y="423.0526315789474"/>
      <point x="1215.0736842105264" y="192.6315789473684"/>
      <point x="1224.3157894736844" y="0.0" type="curve"/>
      <point x="1487.7263157894736" y="0.0" type="line"/>
      <point x="1550.4421052631578" y="133.99999999999997"/>
      <point x="1630.0631578947368" y="305.4526315789474"/>
      <point x="1698.2315789473685" y="451.4526315789474" type="curve"/>
      <point x="1921.1157894736841" y="900.0" type="line"/>
      <point x="2005.4736842105262" y="1057.2631578947369"/>
      <point x="2109.1157894736834" y="1254.0"/>
      <point x="2201.115789473684" y="1426.0" type="curve"/>
      <point x="1962.042105263158" y="1426.0" type="line"/>
      <point x="1869.9368421052632" y="1225.536842105263"/>
      <point x="1762.2105263157896" y="987.0947368421052"/>
      <point x="1671.0105263157895" y="787.8947368421052" type="curve"/>
      <point x="1398.2947368421053" y="213.57894736842107" type="line"/>
      <point x="1380.821052631579" y="213.57894736842107" type="line"/>
      <point x="1349.2631578947369" y="786.8" type="line"/>
      <point x="1341.1157894736841" y="992.7157894736843"/>
      <point x="1332.6105263157895" y="1222.0842105263157"/>
      <point x="1324.4631578947367" y="1426.0" type="curve"/>
      <point x="1091.3052631578948" y="1426.0" type="line"/>
      <point x="1000.4631578947368" y="1225.8947368421052"/>
      <point x="892.0" y="984.9052631578948"/>
      <point x="804.6105263157896" y="789.3473684210526" type="curve"/>
      <point x="534.9684210526316" y="213.57894736842107" type="line"/>
      <point x="517.4947368421052" y="213.57894736842107" type="line"/>
      <point x="484.86315789473684" y="776.6315789473684" type="line"/>
      <point x="476.90526315789475" y="981.0947368421052"/>
      <point x="468.5894736842106" y="1222.0842105263157"/>
      <point x="460.6315789473684" y="1426.0" type="curve"/>
      <point x="231.20000000000002" y="1426.0" type="line"/>
      <point x="249.7473684210526" y="1257.4526315789474"/>
      <point x="274.29473684210524" y="1053.0947368421052"/>
      <point x="292.2947368421053" y="892.7368421052631" type="curve"/>
      <point x="326.0842105263158" y="450.0" type="line"/>
      <point x="333.70526315789476" y="308.0"/>
      <point x="342.2315789473684" y="142.54736842105265"/>
    </contour>
  </outline>
</glyph>
<glyph name="X" format="2">
  <advance width="1372.1894736842105"/>
  <unicode hex="0058"/>
  <outline>
    <contour>
      <point x="-43.53684210526316" y="0.0" type="curve"/>
      <point x="211.7263157894737" y="0.0" type="line"/>
      <point x="308.00000000000006" y="122.12631578947368"/>
      <point x="388.842105263158" y="226.46315789473684"/>
      <point x="478.75789473684216" y="340.58947368421053" type="curve"/>
      <point x="691.6842105263157" y="599.9368421052632" type="line"/>
      <point x="709.1578947368421" y="599.9368421052632" type="line"/>
      <point x="827.578947368421" y="342.0421052631579" type="line"/>
      <point x="873.1578947368421" y="237.7263157894737"/>
      <point x="920.1894736842105" y="125.76842105263158"/>
      <point x="972.4842105263159" y="0.0" type="curve"/>
      <point x="1208.2736842105264" y="0.0" type="line"/>
      <point x="1129.7473684210524" y="152.0"/>
      <point x="1058.6736842105263" y="286.54736842105257"/>
      <point x="980.1473684210526" y="438.5473684210526" type="curve"/>
      <point x="834.7578947368421" y="749.6421052631579" type="line"/>
      <point x="822.378947368421" y="692.1052631578947" type="line"/>
      <point x="1097.0526315789475" y="1018.5052631578948" type="line"/>
      <point x="1199.7684210526315" y="1133.6"/>
      <point x="1324.4842105263158" y="1272.8842105263159"/>
      <point x="1460.4842105263158" y="1426.0" type="curve"/>
      <point x="1203.221052631579" y="1426.0" type="line"/>
      <point x="1106.2105263157896" y="1300.9473684210527"/>
      <point x="1005.9368421052632" y="1172.6315789473683"/>
      <point x="917.8315789473684" y="1062.6736842105263" type="curve"/>
      <point x="740.1473684210526" y="847.1157894736842" type="line"/>
      <point x="722.6736842105263" y="847.1157894736842" type="line"/>
      <point x="629.4947368421052" y="1059.7684210526315" type="line"/>
      <point x="585.3684210526316" y="1168.6315789473686"/>
      <point x="535.9789473684211" y="1296.042105263158"/>
      <point x="486.0421052631579" y="1426.0" type="curve"/>
      <point x="256.2736842105263" y="1426.0" type="line"/>
      <point x="336.2526315789474" y="1263.8105263157895"/>
      <point x="399.32631578947365" y="1129.8105263157895"/>
      <point x="464.40000000000003" y="996.7157894736843" type="curve"/>
      <point x="594.3368421052631" y="704.5263157894736" type="line"/>
      <point x="605.8105263157894" y="759.3263157894737" type="line"/>
      <point x="312.9684210526316" y="406.7578947368421" type="line"/>
      <point x="185.8947368421053" y="262.56842105263155"/>
      <point x="72.82105263157897" y="133.47368421052633"/>
    </contour>
  </outline>
</glyph>
<glyph name="Y" format="2">
  <advance width="1303.9789473684211"/>
  <unicode hex="0059"/>
  <anchor x="550.0842105263158" y="0.0" name="bottom"/>
  <anchor x="851.1789473684211" y="1426.0" name="top"/>
  <anchor x="235.4526315789474" y="1426.0" name="topleft"/>
  <outline>
    <contour>
      <point x="589.1578947368421" y="557.3052631578947" type="line"/>
      <point x="750.421052631579" y="557.3052631578947" type="line"/>
      <point x="1175.3052631578948" y="1085.0315789473684" type="line"/>
      <point x="1267.8526315789475" y="1192.8631578947368"/>
      <point x="1364.9473684210525" y="1307.242105263158"/>
      <point x="1465.3263157894737" y="1426.0" type="curve"/>
      <point x="1212.421052631579" y="1426.0" type="line"/>
      <point x="1075.0947368421055" y="1238.2526315789473"/>
      <point x="1002.8000000000001" y="1141.7473684210527"/>
      <point x="888.9052631578948" y="986.1684210526316" type="curve"/>
      <point x="707.957894736842" y="751.8947368421053" type="line"/>
      <point x="691.0315789473684" y="751.8947368421053" type="line"/>
      <point x="603.4947368421052" y="993.978947368421" type="line"/>
      <point x="555.1999999999999" y="1141.2"/>
      <point x="524.336842105263" y="1236.2526315789473"/>
      <point x="462.06315789473683" y="1426.0" type="curve"/>
      <point x="235.55789473684212" y="1426.0" type="line"/>
      <point x="295.19999999999993" y="1290.8842105263159"/>
      <point x="336.84210526315786" y="1195.957894736842"/>
      <point x="385.93684210526317" y="1085.0315789473684" type="curve"/>
    </contour>
    <contour>
      <point x="446.7578947368421" y="0.0" type="curve"/>
      <point x="656.5052631578948" y="0.0" type="line"/>
      <point x="684.6736842105264" y="157.0736842105263"/>
      <point x="707.9368421052632" y="289.43157894736845"/>
      <point x="740.6526315789474" y="471.0736842105263" type="curve"/>
      <point x="791.2421052631579" y="708.3789473684211" type="line"/>
      <point x="609.5578947368421" y="708.3789473684211" type="line"/>
      <point x="558.9684210526316" y="471.0736842105263" type="line"/>
      <point x="516.5894736842106" y="294.33684210526314"/>
      <point x="484.9473684210526" y="161.07368421052632"/>
    </contour>
  </outline>
</glyph>
<glyph name="Z" format="2">
  <advance width="1342.6315789473683"/>
  <unicode hex="005A"/>
  <anchor x="567.4947368421052" y="0.0" name="bottom"/>
  <anchor x="717.4947368421052" y="714.0" name="center"/>
  <anchor x="867.4947368421052" y="1426.0" name="top"/>
  <outline>
    <contour>
      <point x="-8.231578947368426" y="0.0" type="line"/>
      <point x="1134.5052631578947" y="0.0" type="line"/>
      <point x="1172.3999999999999" y="176.54736842105262" type="line"/>
      <point x="1008.6315789473683" y="171.26315789473685"/>
      <point x="748.3578947368421" y="162.33684210526317"/>
      <point x="568.2315789473685" y="155.05263157894737" type="curve"/>
      <point x="196.35789473684216" y="155.05263157894737" type="line"/>
      <point x="223.6421052631579" y="78.96842105263158" type="line"/>
      <point x="943.5368421052632" y="822.4842105263158" type="line"/>
      <point x="1095.663157894737" y="975.3263157894737"/>
      <point x="1247.2421052631578" y="1129.621052631579"/>
      <point x="1395.3473684210526" y="1278.9894736842105" type="curve"/>
      <point x="1426.3157894736842" y="1426.0" type="line"/>
      <point x="307.6" y="1426.0" type="line"/>
      <point x="271.1578947368421" y="1248.7157894736843" type="line"/>
      <point x="475.6421052631579" y="1256.1894736842107"/>
      <point x="666.6736842105263" y="1264.5684210526317"/>
      <point x="835.8947368421053" y="1270.9473684210527" type="curve"/>
      <point x="1243.578947368421" y="1270.9473684210527" type="line"/>
      <point x="1197.578947368421" y="1335.4105263157894" type="line"/>
      <point x="515.4526315789474" y="626.3789473684211" type="line"/>
      <point x="361.1368421052631" y="471.34736842105264"/>
      <point x="149.7473684210526" y="258.33684210526314"/>
      <point x="19.45263157894736" y="126.77894736842106" type="curve"/>
    </contour>
  </outline>
</glyph>
<glyph name="bracketleft" format="2">
  <advance width="744.7368421052631"/>
  <unicode hex="005B"/>
  <outline>
    <contour>
      <point x="26.947368421052637" y="-233.85263157894738" type="curve"/>
      <point x="207.8736842105263" y="-233.85263157894738" type="line"/>
      <point x="212.25263157894736" y="-207.6" type="line"/>
      <point x="240.96842105263158" y="-49.43157894736842"/>
      <point x="265.13684210526316" y="88.73684210526316"/>
      <point x="296.4" y="264.9263157894737" type="curve"/>
      <point x="457.6631578947368" y="1029.7894736842106" type="line"/>
      <point x="500.0421052631579" y="1208.1684210526316"/>
      <point x="534.2315789473683" y="1346.5263157894738"/>
      <point x="572.421052631579" y="1506.3368421052633" type="curve"/>
      <point x="578.8" y="1532.5894736842106" type="line"/>
      <point x="397.87368421052633" y="1532.5894736842106" type="line"/>
      <point x="368.0631578947369" y="1371.6842105263158"/>
      <point x="341.34736842105264" y="1236.0631578947368"/>
      <point x="309.5368421052632" y="1056.042105263158" type="curve"/>
      <point x="137.5157894736842" y="237.22105263157894" type="line"/>
      <point x="94.77894736842106" y="61.031578947368416"/>
      <point x="64.04210526315788" y="-76.77894736842106"/>
    </contour>
    <contour>
      <point x="170.1684210526316" y="-233.85263157894738" type="line"/>
      <point x="559.6" y="-233.85263157894738" type="line"/>
      <point x="589.6631578947369" y="-87.01052631578948" type="line"/>
      <point x="493.8526315789474" y="-89.19999999999999"/>
      <point x="392.77894736842103" y="-92.84210526315789"/>
      <point x="275.87368421052633" y="-95.57894736842105" type="curve"/>
      <point x="198.58947368421053" y="-95.57894736842105" type="line"/>
    </contour>
    <contour>
      <point x="503.3684210526316" y="1394.3157894736842" type="line"/>
      <point x="578.4842105263158" y="1394.3157894736842" type="line"/>
      <point x="714.6526315789474" y="1391.578947368421"/>
      <point x="809.9157894736842" y="1387.9368421052632"/>
      <point x="897.7263157894737" y="1385.7473684210527" type="curve"/>
      <point x="929.2421052631579" y="1532.5894736842106" type="line"/>
      <point x="532.3368421052631" y="1532.5894736842106" type="line"/>
    </contour>
  </outline>
</glyph>
<glyph name="backslash" format="2">
  <advance width="901.7263157894737"/>
  <unicode hex="005C"/>
  <outline>
    <contour>
      <point x="568.5263157894738" y="0.0" type="curve"/>
      <point x="748.0" y="0.0" type="line"/>
      <point x="710.0000000000001" y="148.18947368421053"/>
      <point x="678.0" y="273.6421052631579"/>
      <point x="631.0947368421054" y="456.0" type="curve"/>
      <point x="520.5894736842106" y="950.5473684210526" type="line"/>
      <point x="482.8" y="1141.4526315789474"/>
      <point x="456.8210526315789" y="1274.3578947368421"/>
      <point x="426.8421052631579" y="1426.0" type="curve"/>
      <point x="248.46315789473684" y="1426.0" type="line"/>
      <point x="287.9157894736842" y="1268.3578947368421"/>
      <point x="320.8210526315789" y="1136.0"/>
      <point x="367.7263157894737" y="949.4526315789474" type="curve"/>
      <point x="477.6842105263158" y="456.0" type="line"/>
      <point x="514.0210526315791" y="272.0"/>
      <point x="539.0947368421052" y="148.0"/>
    </contour>
  </outline>
</glyph>
<glyph name="asciicircum" format="2">
  <advance width="1217.221052631579"/>
  <unicode hex="005E"/>
  <outline>
    <contour>
      <point x="1007.5368421052632" y="757.8947368421052" type="curve"/>
      <point x="1154.7157894736843" y="760.4421052631579" type="line"/>
      <point x="1068.0210526315789" y="964.8421052631579"/>
      <point x="982.7789473684211" y="1166.8842105263159"/>
      <point x="896.0842105263158" y="1371.2842105263157" type="curve"/>
      <point x="659.0736842105264" y="1371.2842105263157" type="line"/>
      <point x="498.0210526315789" y="1168.8842105263159"/>
      <point x="336.42105263157896" y="966.8421052631579"/>
      <point x="175.3684210526316" y="764.4421052631579" type="curve"/>
      <point x="343.3052631578948" y="764.4421052631579" type="line"/>
      <point x="481.0526315789474" y="919.4736842105262"/>
      <point x="618.0631578947368" y="1073.221052631579"/>
      <point x="755.8105263157895" y="1228.2526315789473" type="curve"/>
      <point x="772.7368421052631" y="1228.2526315789473" type="line"/>
      <point x="850.3368421052631" y="1072.3157894736842"/>
      <point x="929.9368421052632" y="913.8315789473684"/>
    </contour>
  </outline>
</glyph>
<glyph name="underscore" format="2">
  <advance width="803.7894736842105"/>
  <unicode hex="005F"/>
  <outline>
    <contour>
      <point x="-177.32631578947368" y="-248.96842105263158" type="line"/>
      <point x="-52.02105263157895" y="-245.8736842105263"/>
      <point x="88.90526315789471" y="-242.77894736842106"/>
      <point x="171.49473684210525" y="-241.68421052631578" type="curve"/>
      <point x="322.7368421052632" y="-241.68421052631578" type="line"/>
      <point x="404.23157894736846" y="-242.77894736842106"/>
      <point x="541.1578947368421" y="-245.8736842105263"/>
      <point x="666.4631578947368" y="-248.96842105263158" type="curve"/>
      <point x="699.0736842105263" y="-96.29473684210527" type="line"/>
      <point x="573.2210526315789" y="-99.38947368421053"/>
      <point x="432.2947368421053" y="-102.48421052631579"/>
      <point x="350.2526315789474" y="-103.57894736842105" type="curve"/>
      <point x="199.01052631578946" y="-103.57894736842105" type="line"/>
      <point x="116.96842105263157" y="-102.48421052631579"/>
      <point x="-19.9578947368421" y="-99.38947368421053"/>
      <point x="-144.71578947368423" y="-96.29473684210527" type="curve"/>
    </contour>
  </outline>
</glyph>
<glyph name="a" format="2">
  <advance width="1052.3218390804598"/>
  <unicode hex="0061"/>
  <anchor x="420.0" y="0.0" name="bottom"/>
  <anchor x="792.6206896551724" y="0.0" name="ogonek"/>
  <anchor x="632.0" y="992.7816091954023" name="top"/>
  <outline>
    <contour>
      <point x="330.5287356321839" y="-20.39080459770115" type="curve" smooth="yes"/>
      <point x="412.20689655172407" y="-20.39080459770115"/>
      <point x="548.2758620689654" y="50.114942528735625"/>
      <point x="663.8390804597701" y="138.13793103448276" type="curve"/>
      <point x="680.6206896551723" y="138.13793103448276" type="line"/>
      <point x="691.4022988505747" y="0.0" type="line"/>
      <point x="854.6206896551724" y="0.0" type="line"/>
      <point x="852.2068965517242" y="105.14942528735632"/>
      <point x="850.5977011494253" y="187.88505747126436"/>
      <point x="850.9885057471265" y="279.0574712643678" type="curve"/>
      <point x="881.816091954023" y="422.0" type="line" smooth="yes"/>
      <point x="899.816091954023" y="506.02298850574715"/>
      <point x="917.816091954023" y="572.8275862068965"/>
      <point x="931.0114942528736" y="633.6091954022988" type="curve" smooth="yes"/>
      <point x="980.5977011494253" y="861.1724137931035"/>
      <point x="863.8850574712643" y="1015.1724137931035"/>
      <point x="599.6091954022988" y="1015.1724137931035" type="curve" smooth="yes"/>
      <point x="533.1954022988507" y="1015.1724137931035"/>
      <point x="340.48275862068965" y="975.1494252873564"/>
      <point x="245.70114942528735" y="955.9310344827587" type="curve"/>
      <point x="218.9655172413793" y="786.6896551724138" type="line"/>
      <point x="367.4022988505747" y="830.2988505747127"/>
      <point x="521.7241379310345" y="872.2758620689655"/>
      <point x="559.7471264367816" y="872.2758620689655" type="curve" smooth="yes"/>
      <point x="722.6206896551724" y="872.2758620689655"/>
      <point x="805.8620689655173" y="795.4252873563219"/>
      <point x="767.7931034482759" y="634.7586206896552" type="curve"/>
      <point x="424.91954022988506" y="573.5172413793103" type="line" smooth="yes"/>
      <point x="258.5287356321839" y="543.9080459770115"/>
      <point x="102.89655172413794" y="496.3448275862069"/>
      <point x="62.0919540229885" y="310.3448275862069" type="curve" smooth="yes"/>
      <point x="21.287356321839077" y="127.54022988505747"/>
      <point x="133.72413793103448" y="-20.39080459770115"/>
    </contour>
    <contour>
      <point x="387.51724137931035" y="115.72413793103449" type="curve" smooth="yes"/>
      <point x="275.74712643678157" y="115.72413793103449"/>
      <point x="206.43678160919538" y="177.79310344827587"/>
      <point x="230.48275862068965" y="298.3908045977011" type="curve" smooth="yes"/>
      <point x="251.3103448275862" y="401.31034482758616"/>
      <point x="346.6666666666667" y="430.91954022988506"/>
      <point x="466.39080459770116" y="454.94252873563215" type="curve" smooth="yes"/>
      <point x="653.7931034482758" y="493.37931034482756"/>
      <point x="703.8390804597701" y="510.98850574712645"/>
      <point x="739.8620689655173" y="529.3793103448276" type="curve"/>
      <point x="691.4022988505748" y="298.32183908045977" type="line"/>
      <point x="560.9655172413792" y="176.59770114942523"/>
      <point x="440.4367816091954" y="115.72413793103449"/>
    </contour>
  </outline>
</glyph>
<glyph name="b" format="2">
  <advance width="1184.378947368421"/>
  <unicode hex="0062"/>
  <outline>
    <contour>
      <point x="599.957894736842" y="-21.83157894736842" type="curve" smooth="yes"/>
      <point x="840.6736842105263" y="-21.83157894736842"/>
      <point x="1013.0105263157893" y="160.21052631578948"/>
      <point x="1073.0105263157893" y="446.56842105263155" type="curve" smooth="yes"/>
      <point x="1135.557894736842" y="747.6631578947369"/>
      <point x="1022.5052631578947" y="1015.6631578947369"/>
      <point x="729.0947368421052" y="1015.6631578947369" type="curve" smooth="yes"/>
      <point x="651.3052631578947" y="1015.6631578947369"/>
      <point x="513.5578947368421" y="937.1578947368421"/>
      <point x="436.27368421052637" y="876.778947368421" type="curve"/>
      <point x="418.80000000000007" y="876.778947368421" type="line"/>
      <point x="441.51578947368426" y="987.4526315789474" type="line"/>
      <point x="484.98947368421057" y="1163.4736842105262"/>
      <point x="524.8210526315789" y="1325.3052631578948"/>
      <point x="567.0105263157895" y="1486.5684210526315" type="curve"/>
      <point x="350.0" y="1459.6421052631579" type="line"/>
      <point x="327.4736842105263" y="1309.621052631579"/>
      <point x="302.94736842105266" y="1154.1684210526316"/>
      <point x="276.42105263157896" y="987.4526315789474" type="curve"/>
      <point x="159.8736842105263" y="437.62105263157895" type="line"/>
      <point x="118.58947368421052" y="273.9789473684211"/>
      <point x="88.94736842105262" y="146.7157894736842"/>
      <point x="52.7578947368421" y="0.0" type="curve"/>
      <point x="198.88421052631577" y="0.0" type="line"/>
      <point x="250.7368421052632" y="151.7684210526316" type="line"/>
      <point x="266.5684210526316" y="151.7684210526316" type="line"/>
      <point x="365.6631578947368" y="58.863157894736844"/>
      <point x="502.1684210526316" y="-21.83157894736842"/>
    </contour>
    <contour>
      <point x="562.1894736842105" y="127.55789473684212" type="curve"/>
      <point x="488.6105263157895" y="132.10526315789474"/>
      <point x="367.28421052631575" y="194.0421052631579"/>
      <point x="292.27368421052637" y="282.6736842105263" type="curve"/>
      <point x="385.3052631578948" y="720.4" type="line"/>
      <point x="471.2210526315789" y="801.2421052631578"/>
      <point x="607.2631578947368" y="864.2736842105263"/>
      <point x="662.5052631578947" y="867.9157894736842" type="curve"/>
      <point x="875.578947368421" y="861.9157894736842"/>
      <point x="950.4210526315788" y="678.9473684210526"/>
      <point x="905.3684210526314" y="461.13684210526316" type="curve" smooth="yes"/>
      <point x="865.5789473684209" y="270.5473684210526"/>
      <point x="756.5684210526316" y="134.10526315789474"/>
    </contour>
  </outline>
</glyph>
<glyph name="d" format="2">
  <advance width="1156.042105263158"/>
  <unicode hex="0064"/>
  <anchor x="516.2105263157895" y="0.0" name="bottom"/>
  <anchor x="581.8315789473684" y="496.18947368421055" name="center"/>
  <anchor x="821.3052631578947" y="1451.4736842105262" name="top"/>
  <anchor x="1212.0631578947368" y="992.3789473684211" name="topright"/>
  <outline>
    <contour>
      <point x="455.83157894736837" y="-21.83157894736842" type="curve" smooth="yes"/>
      <point x="540.3578947368422" y="-21.83157894736842"/>
      <point x="674.863157894737" y="49.6"/>
      <point x="772.6947368421053" y="143.22105263157897" type="curve"/>
      <point x="788.5263157894738" y="143.22105263157897" type="line"/>
      <point x="762.9263157894737" y="0.0" type="line"/>
      <point x="918.1684210526316" y="0.0" type="line"/>
      <point x="944.8842105263158" y="146.7157894736842"/>
      <point x="967.6" y="273.9789473684211"/>
      <point x="996.8631578947369" y="437.62105263157895" type="curve"/>
      <point x="1113.4105263157894" y="987.4526315789474" type="line"/>
      <point x="1156.8842105263157" y="1163.4736842105262"/>
      <point x="1196.715789473684" y="1325.3052631578948"/>
      <point x="1238.9052631578948" y="1486.5684210526315" type="curve"/>
      <point x="1021.8947368421052" y="1459.6421052631579" type="line"/>
      <point x="999.3684210526316" y="1309.621052631579"/>
      <point x="974.8421052631578" y="1154.1684210526316"/>
      <point x="948.3157894736842" y="987.4526315789474" type="curve"/>
      <point x="924.1473684210525" y="868.0631578947367" type="line"/>
      <point x="906.6736842105263" y="868.0631578947367" type="line"/>
      <point x="822.6736842105262" y="939.1578947368421"/>
      <point x="681.8315789473686" y="1015.6631578947369"/>
      <point x="584.9684210526316" y="1015.6631578947369" type="curve" smooth="yes"/>
      <point x="344.2526315789474" y="1015.6631578947369"/>
      <point x="171.9157894736842" y="833.6210526315789"/>
      <point x="111.91578947368421" y="547.2631578947369" type="curve" smooth="yes"/>
      <point x="49.36842105263158" y="246.1684210526316"/>
      <point x="162.42105263157896" y="-21.83157894736842"/>
    </contour>
    <contour>
      <point x="522.421052631579" y="125.91578947368421" type="curve"/>
      <point x="309.34736842105264" y="130.46315789473684"/>
      <point x="233.0526315789474" y="316.33684210526314"/>
      <point x="279.5578947368421" y="532.6947368421053" type="curve" smooth="yes"/>
      <point x="320.8" y="726.1894736842105"/>
      <point x="428.3578947368421" y="859.7263157894737"/>
      <point x="622.7368421052631" y="866.2736842105263" type="curve"/>
      <point x="700.6736842105264" y="863.1789473684211"/>
      <point x="817.642105263158" y="801.2421052631578"/>
      <point x="894.1052631578947" y="737.3052631578947" type="curve"/>
      <point x="803.978947368421" y="305.3894736842105" type="line"/>
      <point x="726.7789473684211" y="210.02105263157895"/>
      <point x="608.1684210526316" y="131.01052631578946"/>
    </contour>
  </outline>
</glyph>
<glyph name="e" format="2">
  <advance width="1056.4022988505749"/>
  <unicode hex="0065"/>
  <anchor x="467.2298850574712" y="0.0" name="bottom"/>
  <anchor x="683.0919540229885" y="0.0" name="ogonek"/>
  <anchor x="661.2068965517241" y="992.7816091954023" name="top"/>
  <outline>
    <contour>
      <point x="551.9655172413793" y="-21.586206896551722" type="curve" smooth="yes"/>
      <point x="625.5517241379308" y="-21.586206896551722"/>
      <point x="759.9425287356321" y="8.022988505747131"/>
      <point x="856.3333333333334" y="40.02298850574713" type="curve"/>
      <point x="879.4827586206897" y="198.91954022988506" type="line"/>
      <point x="751.4827586206895" y="150.5057471264368"/>
      <point x="627.0689655172414" y="122.50574712643679"/>
      <point x="580.6551724137931" y="122.50574712643679" type="curve" smooth="yes"/>
      <point x="344.10344827586204" y="122.50574712643679"/>
      <point x="218.86206896551724" y="268.6666666666667"/>
      <point x="268.4942528735632" y="508.8045977011494" type="curve"/>
      <point x="273.2758620689655" y="532.735632183908" type="line"/>
      <point x="325.71264367816093" y="765.7701149425287"/>
      <point x="469.85057471264366" y="872.6436781609195"/>
      <point x="627.2298850574713" y="878.6436781609195" type="curve"/>
      <point x="789.4137931034483" y="872.6436781609195"/>
      <point x="865.1149425287357" y="756.5747126436781"/>
      <point x="829.4827586206897" y="589.5862068965517" type="curve" smooth="yes"/>
      <point x="825.4827586206897" y="570.7816091954023"/>
      <point x="819.4827586206897" y="549.9770114942529"/>
      <point x="813.4827586206897" y="531.9770114942529" type="curve"/>
      <point x="947.9425287356322" y="463.2413793103448" type="line"/>
      <point x="959.1379310344828" y="494.82758620689657"/>
      <point x="971.9425287356322" y="536.4367816091954"/>
      <point x="980.3333333333334" y="572.4137931034483" type="curve" smooth="yes"/>
      <point x="1038.287356321839" y="821.5402298850574"/>
      <point x="910.3563218390805" y="1014.3678160919541"/>
      <point x="626.448275862069" y="1014.3678160919541" type="curve" smooth="yes"/>
      <point x="366.9080459770115" y="1014.3678160919541"/>
      <point x="167.68965517241378" y="829.5862068965517"/>
      <point x="107.6896551724138" y="543.1954022988506" type="curve" smooth="yes"/>
      <point x="35.689655172413794" y="202.82758620689657"/>
      <point x="217.64367816091954" y="-21.586206896551722"/>
    </contour>
    <contour>
      <point x="158.35632183908046" y="463.2413793103448" type="line"/>
      <point x="947.9425287356322" y="463.2413793103448" type="line"/>
      <point x="965.919540229885" y="552.735632183908" type="line"/>
      <point x="867.735632183908" y="590.183908045977" type="line"/>
      <point x="176.33333333333334" y="584.2068965517242" type="line"/>
    </contour>
  </outline>
</glyph>
<glyph name="g" format="2">
  <advance width="1086.344827586207"/>
  <unicode hex="0067"/>
  <anchor x="380.2758620689656" y="-384.0" name="bottom"/>
  <anchor x="616.344827586207" y="992.7816091954023" name="top"/>
  <outline>
    <contour>
      <point x="351.56321839080465" y="-404.39080459770116" type="curve" smooth="yes"/>
      <point x="581.5172413793103" y="-404.39080459770116"/>
      <point x="820.6666666666666" y="-316.78160919540227"/>
      <point x="863.448275862069" y="-114.8735632183908" type="curve" smooth="yes"/>
      <point x="898.2298850574713" y="50.229885057471265"/>
      <point x="784.6666666666666" y="160.20689655172413"/>
      <point x="520.2298850574713" y="160.20689655172413" type="curve" smooth="yes"/>
      <point x="439.88505747126436" y="160.20689655172413" type="line" smooth="yes"/>
      <point x="331.264367816092" y="160.20689655172413"/>
      <point x="283.33333333333337" y="195.1264367816092"/>
      <point x="292.9425287356322" y="243.5632183908046" type="curve" smooth="yes"/>
      <point x="302.96551724137936" y="292.04597701149424"/>
      <point x="377.7701149425287" y="315.2413793103448"/>
      <point x="522.2758620689656" y="334.4597701149425" type="curve" smooth="yes"/>
      <point x="710.7126436781609" y="360.06896551724134"/>
      <point x="872.2528735632184" y="436.48275862068965"/>
      <point x="912.2528735632184" y="639.6091954022988" type="curve" smooth="yes"/>
      <point x="933.8620689655172" y="750.8275862068965"/>
      <point x="901.0574712643678" y="852.0689655172414"/>
      <point x="792.9885057471265" y="931.6781609195402" type="curve"/>
      <point x="745.080459770115" y="887.4022988505748" type="line"/>
      <point x="868.7126436781609" y="882.5977011494253"/>
      <point x="991.9540229885058" y="873.816091954023"/>
      <point x="1119.5862068965519" y="854.6666666666666" type="curve"/>
      <point x="1149.126436781609" y="993.9770114942529" type="line"/>
      <point x="809.8620689655172" y="993.9770114942529" type="line" smooth="yes"/>
      <point x="703.5172413793103" y="993.9770114942529"/>
      <point x="660.735632183908" y="1015.1724137931035"/>
      <point x="543.2413793103448" y="1015.1724137931035" type="curve" smooth="yes"/>
      <point x="333.3333333333333" y="1015.1724137931035"/>
      <point x="182.8965517241379" y="914.0229885057471"/>
      <point x="145.28735632183907" y="731.5862068965517" type="curve" smooth="yes"/>
      <point x="113.67816091954023" y="579.9540229885057"/>
      <point x="224.9655172413793" y="467.51724137931035"/>
      <point x="317.7011494252873" y="392.39080459770116" type="curve"/>
      <point x="317.7011494252873" y="377.60919540229884" type="line"/>
      <point x="224.0689655172414" y="354.02298850574715"/>
      <point x="154.50574712643677" y="312.41379310344826"/>
      <point x="136.50574712643677" y="231.63218390804596" type="curve" smooth="yes"/>
      <point x="116.50574712643679" y="139.24137931034483"/>
      <point x="181.70114942528733" y="88.85057471264368"/>
      <point x="208.91954022988506" y="73.65517241379311" type="curve"/>
      <point x="208.91954022988506" y="60.873563218390814" type="line"/>
      <point x="99.72413793103449" y="12.505747126436782"/>
      <point x="-8.735632183908045" y="-52.344827586206904"/>
      <point x="-25.54022988505747" y="-130.7816091954023" type="curve" smooth="yes"/>
      <point x="-64.73563218390805" y="-315.14942528735634"/>
      <point x="134.7816091954023" y="-404.39080459770116"/>
    </contour>
    <contour>
      <point x="369.4942528735632" y="-271.0574712643678" type="curve"/>
      <point x="245.81609195402302" y="-268.66666666666663"/>
      <point x="104.0689655172414" y="-227.83908045977012"/>
      <point x="127.31034482758622" y="-120.43678160919539" type="curve" smooth="yes"/>
      <point x="137.33333333333334" y="-73.54022988505747"/>
      <point x="236.25287356321834" y="-22.689655172413794"/>
      <point x="339.10344827586204" y="21.701149425287355" type="curve"/>
      <point x="460.0229885057471" y="21.701149425287355" type="line" smooth="yes"/>
      <point x="683.3793103448276" y="21.701149425287355"/>
      <point x="723.8390804597701" y="-43.54022988505747"/>
      <point x="707.816091954023" y="-117.63218390804597" type="curve" smooth="yes"/>
      <point x="692.1839080459771" y="-188.16091954022988"/>
      <point x="586.0689655172413" y="-262.6896551724137"/>
    </contour>
    <contour>
      <point x="450.6896551724138" y="458.183908045977" type="curve"/>
      <point x="359.7931034482758" y="522.6436781609195"/>
      <point x="278.5057471264368" y="608.7126436781608"/>
      <point x="296.1379310344828" y="700.4597701149426" type="curve" smooth="yes"/>
      <point x="319.7701149425288" y="821.0114942528736"/>
      <point x="417.4712643678161" y="874.6666666666666"/>
      <point x="546.8045977011494" y="874.6666666666666" type="curve"/>
      <point x="683.7011494252874" y="874.6666666666666"/>
      <point x="787.0344827586207" y="778.1839080459771"/>
      <point x="758.2068965517242" y="646.4367816091955" type="curve" smooth="yes"/>
      <point x="726.1609195402299" y="499.816091954023"/>
      <point x="587.6091954022988" y="471.40229885057477"/>
    </contour>
  </outline>
</glyph>
<glyph name="l" format="2">
  <advance width="511.0315789473685"/>
  <unicode hex="006C"/>
  <anchor x="149.51578947368424" y="0.0" name="bottom"/>
  <anchor x="326.2526315789474" y="818.0" name="center"/>
  <anchor x="453.1368421052632" y="1451.4736842105262" name="top"/>
  <anchor x="537.4315789473684" y="992.3789473684211" name="topright"/>
  <outline>
    <contour>
      <point x="52.7578947368421" y="0.0" type="curve"/>
      <point x="244.82105263157897" y="0.0" type="line"/>
      <point x="271.53684210526325" y="146.7157894736842"/>
      <point x="295.7052631578948" y="273.9789473684211"/>
      <point x="324.96842105263164" y="437.62105263157895" type="curve"/>
      <point x="441.51578947368426" y="987.4526315789474" type="line"/>
      <point x="484.98947368421057" y="1163.4736842105262"/>
      <point x="524.8210526315789" y="1325.3052631578948"/>
      <point x="567.0105263157895" y="1486.5684210526315" type="curve"/>
      <point x="350.0" y="1459.6421052631579" type="line"/>
      <point x="327.4736842105263" y="1309.621052631579"/>
      <point x="302.94736842105266" y="1154.1684210526316"/>
      <point x="276.42105263157896" y="987.4526315789474" type="curve"/>
      <point x="159.8736842105263" y="437.62105263157895" type="line"/>
      <point x="118.58947368421052" y="273.9789473684211"/>
      <point x="88.94736842105262" y="146.7157894736842"/>
    </contour>
  </outline>
</glyph>
<glyph name="m" format="2">
  <advance width="1761.6631578947367"/>
  <unicode hex="006D"/>
  <anchor x="795.8105263157895" y="0.0" name="bottom"/>
  <anchor x="1004.9052631578948" y="992.3789473684211" name="top"/>
  <outline>
    <contour>
      <point x="63.663157894736834" y="0.0" type="curve"/>
      <point x="255.7263157894737" y="0.0" type="line"/>
      <point x="282.44210526315794" y="146.7157894736842"/>
      <point x="305.1578947368422" y="273.9789473684211"/>
      <point x="334.23157894736846" y="430.5052631578947" type="curve"/>
      <point x="386.75789473684216" y="673.5157894736843" type="line"/>
      <point x="497.9157894736843" y="777.4105263157894"/>
      <point x="629.4526315789473" y="859.7052631578947"/>
      <point x="699.0105263157894" y="859.7052631578947" type="curve" smooth="yes"/>
      <point x="834.5263157894736" y="859.7052631578947"/>
      <point x="874.4842105263157" y="762.4842105263158"/>
      <point x="835.957894736842" y="584.9473684210526" type="curve"/>
      <point x="804.5263157894736" y="430.5052631578947" type="line"/>
      <point x="765.978947368421" y="273.9789473684211"/>
      <point x="736.3368421052631" y="146.7157894736842"/>
      <point x="700.6947368421052" y="0.0" type="curve"/>
      <point x="891.6631578947369" y="0.0" type="line"/>
      <point x="918.3789473684211" y="146.7157894736842"/>
      <point x="940.5473684210526" y="273.9789473684211"/>
      <point x="971.2631578947369" y="437.62105263157895" type="curve"/>
      <point x="987.2631578947369" y="514.1684210526315"/>
      <point x="1004.1894736842106" y="575.1157894736842"/>
      <point x="1016.1894736842106" y="630.2105263157895" type="curve" smooth="yes"/>
      <point x="1027.2842105263157" y="682.5894736842105"/>
      <point x="1032.1894736842105" y="730.421052631579"/>
      <point x="1030.0" y="771.7052631578947" type="curve"/>
      <point x="1023.621052631579" y="777.5157894736842" type="line"/>
      <point x="1017.4315789473684" y="928.9473684210526"/>
      <point x="929.9789473684211" y="1015.6631578947369"/>
      <point x="774.357894736842" y="1015.6631578947369" type="curve" smooth="yes"/>
      <point x="670.3999999999999" y="1015.6631578947369"/>
      <point x="516.2526315789474" y="909.8947368421052"/>
      <point x="417.68421052631584" y="829.7052631578948" type="curve"/>
      <point x="401.1157894736843" y="829.7052631578948" type="line"/>
      <point x="424.00000000000006" y="1002.2105263157895" type="line"/>
      <point x="259.4736842105263" y="992.3789473684211" type="line"/>
      <point x="243.47368421052622" y="872.8631578947369"/>
      <point x="230.02105263157895" y="753.7263157894737"/>
      <point x="214.56842105263155" y="640.757894736842" type="curve"/>
      <point x="170.77894736842103" y="437.62105263157895" type="line"/>
      <point x="129.49473684210523" y="273.9789473684211"/>
      <point x="99.85263157894735" y="146.7157894736842"/>
    </contour>
    <contour>
      <point x="1327.3684210526317" y="0.0" type="curve"/>
      <point x="1518.3368421052633" y="0.0" type="line"/>
      <point x="1545.0526315789473" y="146.7157894736842"/>
      <point x="1567.221052631579" y="273.9789473684211"/>
      <point x="1597.9368421052632" y="437.62105263157895" type="curve"/>
      <point x="1613.9368421052632" y="514.1684210526315"/>
      <point x="1630.8631578947368" y="575.1157894736842"/>
      <point x="1642.8631578947368" y="630.2105263157895" type="curve" smooth="yes"/>
      <point x="1695.221052631579" y="869.8315789473685"/>
      <point x="1602.6736842105263" y="1015.6631578947369"/>
      <point x="1401.0315789473684" y="1015.6631578947369" type="curve" smooth="yes"/>
      <point x="1297.073684210526" y="1015.6631578947369"/>
      <point x="1136.5684210526315" y="906.9894736842107"/>
      <point x="1034.3578947368421" y="822.2526315789474" type="curve"/>
      <point x="1015.4315789473684" y="822.2526315789474" type="line"/>
      <point x="1013.4315789473684" y="673.5157894736843" type="line"/>
      <point x="1124.5894736842104" y="777.4105263157894"/>
      <point x="1256.126315789474" y="859.7052631578947"/>
      <point x="1325.6842105263158" y="859.7052631578947" type="curve" smooth="yes"/>
      <point x="1461.1999999999998" y="859.7052631578947"/>
      <point x="1501.157894736842" y="762.4842105263158"/>
      <point x="1462.6315789473686" y="584.9473684210526" type="curve"/>
      <point x="1431.2" y="430.5052631578947" type="line"/>
      <point x="1392.6526315789474" y="273.9789473684211"/>
      <point x="1363.0105263157895" y="146.7157894736842"/>
    </contour>
  </outline>
</glyph>
<glyph name="n" format="2">
  <advance width="1163.3263157894735"/>
  <unicode hex="006E"/>
  <anchor x="486.18947368421055" y="0.0" name="bottom"/>
  <anchor x="695.2842105263157" y="992.3789473684211" name="top"/>
  <outline>
    <contour>
      <point x="63.663157894736834" y="0.0" type="curve"/>
      <point x="255.7263157894737" y="0.0" type="line"/>
      <point x="282.44210526315794" y="146.7157894736842"/>
      <point x="305.1578947368422" y="273.9789473684211"/>
      <point x="334.23157894736846" y="430.5052631578947" type="curve"/>
      <point x="386.75789473684216" y="673.5157894736843" type="line"/>
      <point x="497.9157894736842" y="777.4105263157895"/>
      <point x="637.8105263157894" y="859.7052631578947"/>
      <point x="708.8210526315788" y="859.7052631578947" type="curve" smooth="yes"/>
      <point x="862.8631578947368" y="859.7052631578947"/>
      <point x="902.8210526315789" y="762.4842105263158"/>
      <point x="864.2947368421053" y="584.9473684210526" type="curve"/>
      <point x="832.8631578947369" y="430.5052631578947" type="line"/>
      <point x="794.3157894736843" y="273.9789473684211"/>
      <point x="764.6736842105264" y="146.7157894736842"/>
      <point x="729.0315789473684" y="0.0" type="curve"/>
      <point x="920.0" y="0.0" type="line"/>
      <point x="946.7157894736843" y="146.7157894736842"/>
      <point x="968.8842105263158" y="273.9789473684211"/>
      <point x="999.6" y="437.62105263157895" type="curve"/>
      <point x="1015.6" y="514.1684210526315"/>
      <point x="1032.5263157894738" y="575.1157894736842"/>
      <point x="1044.5263157894738" y="630.2105263157895" type="curve" smooth="yes"/>
      <point x="1096.8842105263159" y="869.8315789473684"/>
      <point x="1004.3368421052631" y="1015.6631578947369"/>
      <point x="785.621052631579" y="1015.6631578947369" type="curve" smooth="yes"/>
      <point x="678.757894736842" y="1015.6631578947369"/>
      <point x="515.7052631578948" y="909.8947368421052"/>
      <point x="417.1368421052632" y="829.7052631578948" type="curve"/>
      <point x="400.56842105263166" y="829.7052631578948" type="line"/>
      <point x="425.45263157894743" y="1002.2105263157895" type="line"/>
      <point x="259.4736842105263" y="992.3789473684211" type="line"/>
      <point x="243.47368421052622" y="872.8631578947369"/>
      <point x="230.02105263157895" y="753.7263157894737"/>
      <point x="214.56842105263155" y="640.757894736842" type="curve"/>
      <point x="170.77894736842103" y="437.62105263157895" type="line"/>
      <point x="129.49473684210523" y="273.9789473684211"/>
      <point x="99.85263157894735" y="146.7157894736842"/>
    </contour>
  </outline>
</glyph>
<glyph name="p" format="2">
  <advance width="1195.2842105263157"/>
  <unicode hex="0070"/>
  <outline>
    <contour>
      <point x="-19.789473684210535" y="-390.18947368421055" type="curve"/>
      <point x="177.01052631578952" y="-384.0" type="line"/>
      <point x="202.63157894736847" y="-237.2842105263158"/>
      <point x="224.2526315789474" y="-110.02105263157895"/>
      <point x="252.7789473684211" y="46.50526315789474" type="curve"/>
      <point x="274.04210526315796" y="143.01052631578943" type="line"/>
      <point x="288.7789473684211" y="143.01052631578943" type="line"/>
      <point x="384.0421052631579" y="55.578947368421055"/>
      <point x="515.8105263157894" y="-21.83157894736842"/>
      <point x="610.8631578947368" y="-21.83157894736842" type="curve" smooth="yes"/>
      <point x="851.578947368421" y="-21.83157894736842"/>
      <point x="1023.9157894736842" y="160.21052631578948"/>
      <point x="1083.9157894736843" y="446.56842105263155" type="curve" smooth="yes"/>
      <point x="1146.463157894737" y="747.6631578947369"/>
      <point x="1033.4105263157896" y="1015.6631578947369"/>
      <point x="740.0" y="1015.6631578947369" type="curve" smooth="yes"/>
      <point x="658.021052631579" y="1015.6631578947369"/>
      <point x="512.7999999999998" y="935.5157894736842"/>
      <point x="430.2315789473684" y="866.2105263157894" type="curve"/>
      <point x="411.66315789473686" y="866.2105263157894" type="line"/>
      <point x="426.0210526315789" y="1002.2105263157895" type="line"/>
      <point x="259.4736842105263" y="992.3789473684211" type="line"/>
      <point x="243.47368421052624" y="872.8631578947369"/>
      <point x="230.02105263157893" y="753.7263157894737"/>
      <point x="214.56842105263155" y="640.757894736842" type="curve"/>
      <point x="89.32631578947368" y="53.62105263157895" type="line"/>
      <point x="50.042105263157886" y="-110.02105263157895"/>
      <point x="15.85263157894736" y="-243.47368421052633"/>
    </contour>
    <contour>
      <point x="573.0947368421052" y="127.55789473684212" type="curve"/>
      <point x="499.51578947368426" y="132.10526315789474"/>
      <point x="378.1894736842105" y="194.0421052631579"/>
      <point x="303.1789473684211" y="282.6736842105263" type="curve"/>
      <point x="396.21052631578954" y="720.4" type="line"/>
      <point x="482.12631578947367" y="801.2421052631578"/>
      <point x="618.1684210526315" y="864.2736842105263"/>
      <point x="673.4105263157894" y="867.9157894736842" type="curve"/>
      <point x="886.4842105263158" y="861.9157894736842"/>
      <point x="961.3263157894736" y="678.9473684210526"/>
      <point x="916.2736842105262" y="461.13684210526316" type="curve" smooth="yes"/>
      <point x="876.4842105263157" y="270.5473684210526"/>
      <point x="767.4736842105264" y="134.10526315789474"/>
    </contour>
  </outline>
</glyph>
<glyph name="q" format="2">
  <advance width="1174.1894736842105"/>
  <unicode hex="0071"/>
  <outline>
    <contour>
      <point x="644.1052631578947" y="-390.18947368421055" type="curve"/>
      <point x="837.621052631579" y="-384.0" type="line"/>
      <point x="864.3368421052631" y="-237.2842105263158"/>
      <point x="887.0526315789474" y="-110.02105263157895"/>
      <point x="917.7684210526317" y="53.62105263157895" type="curve"/>
      <point x="1042.1052631578948" y="640.757894736842" type="line"/>
      <point x="1072.6736842105263" y="756.8210526315789"/>
      <point x="1110.1473684210525" y="879.5999999999999"/>
      <point x="1145.8105263157893" y="1002.2105263157895" type="curve"/>
      <point x="977.4526315789474" y="992.3789473684211" type="line"/>
      <point x="937.8105263157895" y="856.0421052631577" type="line"/>
      <point x="920.3368421052631" y="856.0421052631577" type="line"/>
      <point x="831.6" y="933.5157894736842"/>
      <point x="685.4736842105262" y="1015.6631578947369"/>
      <point x="584.9684210526316" y="1015.6631578947369" type="curve" smooth="yes"/>
      <point x="344.2526315789474" y="1015.6631578947369"/>
      <point x="171.9157894736842" y="833.6210526315789"/>
      <point x="111.91578947368421" y="547.2631578947369" type="curve" smooth="yes"/>
      <point x="49.36842105263158" y="246.1684210526316"/>
      <point x="162.42105263157896" y="-21.83157894736842"/>
      <point x="455.83157894736837" y="-21.83157894736842" type="curve" smooth="yes"/>
      <point x="535.0736842105263" y="-21.83157894736842"/>
      <point x="662.6526315789474" y="43.95789473684211"/>
      <point x="752.4631578947368" y="130.29473684210527" type="curve"/>
      <point x="769.3894736842105" y="130.29473684210527" type="line"/>
      <point x="751.0315789473684" y="46.50526315789474" type="line"/>
      <point x="713.9368421052632" y="-110.02105263157895"/>
      <point x="679.7473684210527" y="-243.47368421052633"/>
    </contour>
    <contour>
      <point x="522.421052631579" y="125.91578947368421" type="curve"/>
      <point x="309.34736842105264" y="130.46315789473684"/>
      <point x="233.0526315789474" y="316.33684210526314"/>
      <point x="279.5578947368421" y="532.6947368421053" type="curve" smooth="yes"/>
      <point x="320.8" y="726.1894736842105"/>
      <point x="428.3578947368421" y="859.7263157894737"/>
      <point x="622.7368421052631" y="866.2736842105263" type="curve"/>
      <point x="700.6736842105264" y="863.1789473684211"/>
      <point x="817.642105263158" y="801.2421052631578"/>
      <point x="897.0105263157894" y="732.9473684210526" type="curve"/>
      <point x="805.4315789473684" y="305.3894736842105" type="line"/>
      <point x="726.7789473684211" y="210.02105263157895"/>
      <point x="608.1684210526316" y="131.01052631578946"/>
    </contour>
  </outline>
</glyph>
<glyph name="r" format="2">
  <advance width="812.0842105263157"/>
  <unicode hex="0072"/>
  <anchor x="149.6842105263158" y="0.0" name="bottom"/>
  <anchor x="571.2842105263157" y="992.3789473684211" name="top"/>
  <outline>
    <contour>
      <point x="63.663157894736834" y="0.0" type="curve"/>
      <point x="255.7263157894737" y="0.0" type="line"/>
      <point x="282.44210526315794" y="146.7157894736842"/>
      <point x="305.1578947368422" y="273.9789473684211"/>
      <point x="334.23157894736846" y="430.5052631578947" type="curve"/>
      <point x="379.66315789473686" y="634.4000000000001" type="line"/>
      <point x="516.9894736842107" y="772.0842105263158"/>
      <point x="636.9473684210527" y="847.1157894736842"/>
      <point x="688.9052631578946" y="847.1157894736842" type="curve" smooth="yes"/>
      <point x="705.4526315789474" y="847.1157894736842"/>
      <point x="760.9052631578946" y="833.1157894736841"/>
      <point x="816.3789473684211" y="818.9263157894736" type="curve"/>
      <point x="868.1263157894737" y="994.2105263157895" type="line"/>
      <point x="820.3157894736842" y="1007.6631578947369"/>
      <point x="757.0526315789474" y="1015.6631578947369"/>
      <point x="737.2421052631579" y="1015.6631578947369" type="curve" smooth="yes"/>
      <point x="657.0526315789474" y="1015.6631578947369"/>
      <point x="551.4736842105262" y="945.5157894736841"/>
      <point x="412.7789473684211" y="809.3684210526316" type="curve"/>
      <point x="396.2105263157895" y="809.3684210526316" type="line"/>
      <point x="424.00000000000006" y="1002.2105263157895" type="line"/>
      <point x="259.4736842105263" y="992.3789473684211" type="line"/>
      <point x="243.47368421052622" y="872.8631578947369"/>
      <point x="230.02105263157895" y="753.7263157894737"/>
      <point x="214.56842105263155" y="640.757894736842" type="curve"/>
      <point x="170.77894736842103" y="437.62105263157895" type="line"/>
      <point x="129.49473684210523" y="273.9789473684211"/>
      <point x="99.85263157894735" y="146.7157894736842"/>
    </contour>
  </outline>
</glyph>
<glyph name="s" format="2">
  <advance width="909.9310344827586"/>
  <unicode hex="0073"/>
  <anchor x="350.7586206896552" y="0.0" name="bottom"/>
  <anchor x="559.9540229885058" y="992.7816091954023" name="top"/>
  <outline>
    <contour>
      <point x="391.1494252873564" y="-21.586206896551722" type="curve" smooth="yes"/>
      <point x="613.0574712643679" y="-21.586206896551722"/>
      <point x="734.2298850574713" y="67.97701149425286"/>
      <point x="764.2298850574713" y="211.95402298850576" type="curve" smooth="yes"/>
      <point x="801.0344827586207" y="388.735632183908"/>
      <point x="693.7701149425287" y="475.9310344827586"/>
      <point x="510.62068965517244" y="556.7126436781609" type="curve" smooth="yes"/>
      <point x="351.31034482758616" y="628.3678160919541"/>
      <point x="324.0919540229885" y="676.8045977011494"/>
      <point x="340.50574712643675" y="754.1149425287357" type="curve" smooth="yes"/>
      <point x="363.3333333333333" y="856.2528735632184"/>
      <point x="465.4712643678161" y="869.471264367816"/>
      <point x="532.2988505747127" y="873.471264367816" type="curve"/>
      <point x="563.9080459770115" y="873.471264367816"/>
      <point x="688.7126436781609" y="829.8850574712644"/>
      <point x="807.5172413793103" y="782.2988505747127" type="curve"/>
      <point x="850.2298850574713" y="933.9770114942528" type="line"/>
      <point x="755.8850574712644" y="962.3678160919541"/>
      <point x="585.1264367816092" y="1015.1724137931035"/>
      <point x="512.367816091954" y="1015.1724137931035" type="curve" smooth="yes"/>
      <point x="336.0919540229885" y="1015.1724137931035"/>
      <point x="205.70114942528735" y="930.0"/>
      <point x="172.91954022988506" y="775.6781609195402" type="curve" smooth="yes"/>
      <point x="137.72413793103448" y="614.8965517241379"/>
      <point x="217.35632183908046" y="528.9425287356322"/>
      <point x="388.13793103448273" y="450.13793103448273" type="curve" smooth="yes"/>
      <point x="560.6206896551724" y="371.28735632183907"/>
      <point x="615.8620689655172" y="324.45977011494256"/>
      <point x="594.6436781609195" y="233.9080459770115" type="curve" smooth="yes"/>
      <point x="572.6206896551724" y="139.7471264367816"/>
      <point x="472.91954022988506" y="124.11494252873563"/>
      <point x="378.8045977011494" y="121.3103448275862" type="curve"/>
      <point x="320.7586206896552" y="121.3103448275862"/>
      <point x="202.39080459770116" y="171.70114942528738"/>
      <point x="72.80459770114942" y="234.09195402298855" type="curve"/>
      <point x="28.09195402298851" y="76.43678160919539" type="line"/>
      <point x="159.24137931034483" y="28.022988505747122"/>
      <point x="311.9770114942529" y="-21.586206896551722"/>
    </contour>
  </outline>
</glyph>
<glyph name="t" format="2">
  <advance width="819.7052631578947"/>
  <unicode hex="0074"/>
  <anchor x="366.7157894736842" y="0.0" name="bottom"/>
  <anchor x="420.4" y="496.18947368421055" name="center"/>
  <anchor x="564.9684210526317" y="1278.6526315789474" name="top"/>
  <anchor x="584.9052631578948" y="992.3789473684211" name="topright"/>
  <outline>
    <contour>
      <point x="470.7578947368421" y="-21.83157894736842" type="curve" smooth="yes"/>
      <point x="513.4736842105262" y="-21.83157894736842"/>
      <point x="603.7052631578947" y="3.4315789473684197"/>
      <point x="663.1789473684211" y="23.978947368421053" type="curve"/>
      <point x="679.4105263157895" y="178.06315789473686" type="line"/>
      <point x="613.2421052631579" y="146.8"/>
      <point x="540.5263157894736" y="121.53684210526316"/>
      <point x="514.9052631578948" y="121.53684210526316" type="curve" smooth="yes"/>
      <point x="399.3473684210526" y="121.53684210526316"/>
      <point x="337.0315789473684" y="192.2526315789474"/>
      <point x="372.4631578947368" y="357.7894736842105" type="curve" smooth="yes"/>
      <point x="497.32631578947365" y="943.578947368421" type="line"/>
      <point x="530.6105263157895" y="1100.0"/>
      <point x="555.178947368421" y="1202.778947368421"/>
      <point x="592.8421052631578" y="1350.8" type="curve"/>
      <point x="402.4" y="1312.9263157894736" type="line"/>
      <point x="381.32631578947365" y="1188.0"/>
      <point x="362.06315789473683" y="1079.621052631579"/>
      <point x="333.8736842105263" y="943.578947368421" type="curve"/>
      <point x="294.378947368421" y="757.3894736842105"/>
      <point x="248.39999999999998" y="562.0631578947368"/>
      <point x="199.70526315789473" y="332.94736842105266" type="curve" smooth="yes"/>
      <point x="150.42105263157893" y="100.88421052631578"/>
      <point x="266.86315789473684" y="-21.83157894736842"/>
    </contour>
    <contour>
      <point x="122.27368421052633" y="848.2736842105263" type="line"/>
      <point x="361.41052631578947" y="867.578947368421" type="line"/>
      <point x="428.8631578947368" y="867.578947368421" type="line"/>
      <point x="556.1052631578947" y="862.8421052631579"/>
      <point x="693.8947368421052" y="855.5578947368422"/>
      <point x="824.7789473684211" y="848.2736842105263" type="curve"/>
      <point x="855.7473684210527" y="992.3789473684211" type="line"/>
      <point x="153.2421052631579" y="992.3789473684211" type="line"/>
    </contour>
  </outline>
</glyph>
<glyph name="u" format="2">
  <advance width="1123.178947368421"/>
  <unicode hex="0075"/>
  <anchor x="456.94736842105266" y="0.0" name="bottom"/>
  <anchor x="874.3789473684211" y="0.0" name="ogonek"/>
  <anchor x="665.4947368421052" y="992.3789473684211" name="top"/>
  <anchor x="1171.7473684210527" y="992.3789473684211" name="topright"/>
  <outline>
    <contour>
      <point x="375.8736842105263" y="-21.83157894736842" type="curve" smooth="yes"/>
      <point x="474.0210526315789" y="-21.83157894736842"/>
      <point x="637.0736842105264" y="83.93684210526315"/>
      <point x="735.642105263158" y="164.12631578947367" type="curve"/>
      <point x="752.2105263157895" y="164.12631578947367" type="line"/>
      <point x="721.5157894736843" y="0.0" type="line"/>
      <point x="877.6631578947369" y="0.0" type="line"/>
      <point x="904.3789473684211" y="146.7157894736842"/>
      <point x="926.5473684210526" y="273.9789473684211"/>
      <point x="955.8105263157895" y="437.62105263157895" type="curve"/>
      <point x="978.9052631578948" y="543.0947368421052" type="line"/>
      <point x="1020.378947368421" y="715.4947368421052"/>
      <point x="1052.9263157894736" y="845.6631578947369"/>
      <point x="1088.5684210526317" y="992.3789473684211" type="curve"/>
      <point x="896.6947368421053" y="992.3789473684211" type="line"/>
      <point x="870.5263157894738" y="845.6631578947369"/>
      <point x="845.8105263157895" y="715.4947368421052"/>
      <point x="817.0947368421052" y="558.9684210526316" type="curve"/>
      <point x="765.4736842105264" y="317.57894736842104" type="line"/>
      <point x="654.3157894736842" y="213.68421052631584"/>
      <point x="514.421052631579" y="131.38947368421054"/>
      <point x="452.12631578947367" y="131.38947368421054" type="curve" smooth="yes"/>
      <point x="298.08421052631576" y="131.38947368421054"/>
      <point x="257.57894736842104" y="228.61052631578949"/>
      <point x="296.1052631578948" y="406.14736842105265" type="curve"/>
      <point x="327.17894736842106" y="558.9684210526316" type="line"/>
      <point x="364.27368421052637" y="715.4947368421052"/>
      <point x="399.36842105263156" y="851.8526315789474"/>
      <point x="435.0105263157895" y="998.5684210526316" type="curve"/>
      <point x="239.49473684210525" y="992.3789473684211" type="line"/>
      <point x="213.32631578947368" y="845.6631578947369"/>
      <point x="188.61052631578949" y="715.4947368421052"/>
      <point x="158.8" y="543.0947368421052" type="curve"/>
      <point x="142.80000000000004" y="470.90526315789475"/>
      <point x="130.61052631578949" y="418.7157894736842"/>
      <point x="118.61052631578947" y="363.62105263157895" type="curve" smooth="yes"/>
      <point x="66.25263157894737" y="124.00000000000001"/>
      <point x="157.1578947368421" y="-21.83157894736842"/>
    </contour>
  </outline>
</glyph>
<glyph name="v" format="2">
  <advance width="1039.621052631579"/>
  <unicode hex="0076"/>
  <outline>
    <contour>
      <point x="316.06315789473683" y="0.0" type="curve"/>
      <point x="519.0105263157895" y="0.0" type="line"/>
      <point x="589.7263157894737" y="124.54736842105264"/>
      <point x="658.4421052631578" y="247.09473684210528"/>
      <point x="727.7052631578947" y="371.64210526315793" type="curve"/>
      <point x="831.5157894736842" y="548.7368421052631" type="line"/>
      <point x="920.0631578947368" y="695.8315789473684"/>
      <point x="1010.9684210526316" y="845.8315789473684"/>
      <point x="1100.4210526315787" y="992.3789473684211" type="curve"/>
      <point x="891.978947368421" y="992.3789473684211" type="line"/>
      <point x="805.5157894736842" y="830.1052631578947"/>
      <point x="721.7684210526317" y="670.1684210526316"/>
      <point x="632.2105263157895" y="499.5157894736842" type="curve"/>
      <point x="457.62105263157895" y="181.11578947368423" type="line"/>
      <point x="440.14736842105265" y="181.11578947368423" type="line"/>
      <point x="397.85263157894735" y="499.5157894736842" type="line"/>
      <point x="378.4421052631579" y="668.1684210526316"/>
      <point x="360.4842105263158" y="832.1052631578947"/>
      <point x="340.52631578947364" y="998.5684210526316" type="curve"/>
      <point x="151.2" y="992.3789473684211" type="line"/>
      <point x="178.6526315789474" y="848.9263157894736"/>
      <point x="206.65263157894736" y="697.2842105263157"/>
      <point x="234.10526315789474" y="552.1894736842105" type="curve"/>
      <point x="262.4631578947368" y="375.6421052631579" type="line"/>
      <point x="279.17894736842106" y="255.45263157894738"/>
      <point x="299.34736842105264" y="121.64210526315792"/>
    </contour>
  </outline>
</glyph>
<glyph name="w" format="2">
  <advance width="1613.7894736842106"/>
  <unicode hex="0077"/>
  <anchor x="701.5157894736842" y="0.0" name="bottom"/>
  <anchor x="910.0631578947368" y="992.3789473684211" name="top"/>
  <outline>
    <contour>
      <point x="266.0631578947369" y="0.0" type="curve"/>
      <point x="466.0842105263158" y="0.0" type="line"/>
      <point x="540.9263157894737" y="153.7263157894737"/>
      <point x="622.1263157894737" y="317.2631578947368"/>
      <point x="696.9684210526316" y="469.5368421052632" type="curve"/>
      <point x="845.0315789473684" y="762.2736842105263" type="line"/>
      <point x="861.4105263157894" y="762.2736842105263" type="line"/>
      <point x="888.821052631579" y="475.178947368421" type="line"/>
      <point x="899.1578947368421" y="329.0736842105263"/>
      <point x="913.8526315789475" y="146.46315789473687"/>
      <point x="924.7368421052633" y="0.0" type="curve"/>
      <point x="1142.2526315789473" y="0.0" type="line"/>
      <point x="1204.0631578947368" y="121.09473684210528"/>
      <point x="1267.3263157894737" y="247.6421052631579"/>
      <point x="1334.5894736842106" y="379.6421052631579" type="curve"/>
      <point x="1427.4947368421053" y="553.6421052631579" type="line"/>
      <point x="1509.1368421052632" y="699.8315789473684"/>
      <point x="1589.6842105263158" y="843.8315789473684"/>
      <point x="1674.2315789473685" y="992.3789473684211" type="curve"/>
      <point x="1465.242105263158" y="992.3789473684211" type="line"/>
      <point x="1394.2105263157896" y="844.9894736842106"/>
      <point x="1305.0105263157895" y="659.4315789473684"/>
      <point x="1227.0736842105264" y="497.13684210526316" type="curve"/>
      <point x="1067.0105263157895" y="176.54736842105262" type="line"/>
      <point x="1051.536842105263" y="176.54736842105262" type="line"/>
      <point x="1024.863157894737" y="494.58947368421053" type="line"/>
      <point x="1014.1684210526316" y="657.4315789473684"/>
      <point x="1002.5684210526316" y="833.5368421052632"/>
      <point x="991.8736842105262" y="992.3789473684211" type="curve"/>
      <point x="812.6105263157895" y="992.3789473684211" type="line"/>
      <point x="731.7684210526317" y="823.7263157894737"/>
      <point x="652.9263157894737" y="658.5263157894736"/>
      <point x="572.9894736842106" y="491.6842105263158" type="curve"/>
      <point x="417.2842105263158" y="176.54736842105262" type="line"/>
      <point x="401.8105263157895" y="176.54736842105262" type="line"/>
      <point x="373.6842105263158" y="485.87368421052633" type="line"/>
      <point x="362.9894736842105" y="648.7157894736843"/>
      <point x="349.93684210526317" y="832.8210526315789"/>
      <point x="337.7894736842105" y="998.5684210526316" type="curve"/>
      <point x="146.4631578947368" y="992.3789473684211" type="line"/>
      <point x="168.46315789473687" y="842.378947368421"/>
      <point x="189.01052631578946" y="700.7368421052631"/>
      <point x="209.5578947368421" y="553.6421052631579" type="curve"/>
      <point x="230.82105263157894" y="376.1894736842105" type="line"/>
      <point x="243.53684210526313" y="246.73684210526315"/>
      <point x="254.8" y="124.54736842105264"/>
    </contour>
  </outline>
</glyph>
<glyph name="x" format="2">
  <advance width="1076.378947368421"/>
  <unicode hex="0078"/>
  <outline>
    <contour>
      <point x="-53.705263157894734" y="0.0" type="curve"/>
      <point x="172.02105263157898" y="0.0" type="line"/>
      <point x="243.7684210526316" y="88.69473684210526"/>
      <point x="296.4421052631579" y="153.03157894736842"/>
      <point x="366.7368421052632" y="241.3684210526316" type="curve"/>
      <point x="510.6105263157894" y="410.2105263157895" type="line"/>
      <point x="524.9894736842105" y="410.2105263157895" type="line"/>
      <point x="608.5263157894736" y="235.7263157894737" type="line"/>
      <point x="647.2" y="149.03157894736842"/>
      <point x="674.2526315789473" y="85.6"/>
      <point x="712.9263157894737" y="0.0" type="curve"/>
      <point x="920.2736842105263" y="0.0" type="line"/>
      <point x="850.1052631578947" y="125.83157894736843"/>
      <point x="804.8421052631579" y="208.02105263157895"/>
      <point x="750.6736842105263" y="304.5684210526316" type="curve"/>
      <point x="631.6210526315789" y="533.1368421052632" type="line"/>
      <point x="630.3578947368421" y="489.2631578947368" type="line"/>
      <point x="824.6947368421053" y="702.0" type="line"/>
      <point x="917.4105263157894" y="800.5473684210526"/>
      <point x="975.4105263157894" y="862.7368421052631"/>
      <point x="1097.578947368421" y="992.3789473684211" type="curve"/>
      <point x="871.3052631578947" y="992.3789473684211" type="line"/>
      <point x="798.4631578947368" y="903.6842105263157"/>
      <point x="746.1473684210526" y="838.2526315789473"/>
      <point x="679.1157894736842" y="754.2736842105263" type="curve"/>
      <point x="542.8631578947368" y="594.1473684210526" type="line"/>
      <point x="528.8421052631578" y="594.1473684210526" type="line"/>
      <point x="455.8315789473684" y="754.8210526315789" type="line"/>
      <point x="423.8736842105263" y="834.4421052631578"/>
      <point x="393.36842105263156" y="909.3263157894737"/>
      <point x="355.6" y="998.5684210526316" type="curve"/>
      <point x="160.46315789473684" y="992.3789473684211" type="line"/>
      <point x="223.53684210526316" y="870.7368421052631"/>
      <point x="261.34736842105264" y="797.0947368421052"/>
      <point x="314.42105263157896" y="695.6421052631579" type="curve"/>
      <point x="416.9263157894737" y="483.4526315789474" type="line"/>
      <point x="424.7578947368421" y="530.2315789473685" type="line"/>
      <point x="227.3473684210526" y="306.2105263157895" type="line"/>
      <point x="133.17894736842106" y="203.47368421052633"/>
      <point x="68.82105263157894" y="132.73684210526315"/>
    </contour>
  </outline>
</glyph>
<glyph name="y" format="2">
  <advance width="1045.4315789473685"/>
  <unicode hex="0079"/>
  <anchor x="685.0315789473684" y="0.0" name="bottom"/>
  <anchor x="628.4421052631579" y="992.3789473684211" name="top"/>
  <outline>
    <contour>
      <point x="70.02105263157891" y="-390.18947368421055" type="curve"/>
      <point x="279.5578947368421" y="-384.0" type="line"/>
      <point x="362.27368421052637" y="-241.45263157894738"/>
      <point x="458.08421052631576" y="-75.81052631578947"/>
      <point x="606.0631578947368" y="178.18947368421053" type="curve"/>
      <point x="774.421052631579" y="457.2842105263158" type="line"/>
      <point x="926.7789473684211" y="707.2842105263157"/>
      <point x="1001.3263157894737" y="828.9263157894737"/>
      <point x="1101.6842105263158" y="992.3789473684211" type="curve"/>
      <point x="894.8842105263158" y="992.3789473684211" type="line"/>
      <point x="806.7789473684211" y="826.6315789473684"/>
      <point x="720.6736842105264" y="666.8842105263158"/>
      <point x="629.6631578947369" y="496.7789473684211" type="curve"/>
      <point x="449.6210526315789" y="176.73684210526318" type="line"/>
      <point x="432.14736842105265" y="176.73684210526318" type="line"/>
      <point x="392.75789473684205" y="495.87368421052633" type="line"/>
      <point x="374.79999999999995" y="667.0736842105263"/>
      <point x="356.8421052631579" y="827.3684210526316"/>
      <point x="338.88421052631577" y="998.5684210526316" type="curve"/>
      <point x="149.5578947368421" y="992.3789473684211" type="line"/>
      <point x="175.5578947368421" y="849.8315789473684"/>
      <point x="203.01052631578946" y="697.8315789473684"/>
      <point x="229.01052631578946" y="555.2842105263157" type="curve"/>
      <point x="256.82105263157894" y="375.2842105263158" type="line"/>
      <point x="274.98947368421045" y="238.73684210526312"/>
      <point x="293.70526315789476" y="100.73684210526316"/>
      <point x="311.87368421052633" y="-35.810526315789474" type="curve"/>
      <point x="324.63157894736844" y="10.610526315789475" type="line"/>
      <point x="241.15789473684208" y="-120.86315789473683"/>
      <point x="153.49473684210528" y="-258.7157894736842"/>
    </contour>
  </outline>
</glyph>
<glyph name="z" format="2">
  <advance width="993.5578947368421"/>
  <unicode hex="007A"/>
  <anchor x="388.7789473684211" y="0.0" name="bottom"/>
  <anchor x="493.3263157894737" y="496.18947368421055" name="center"/>
  <anchor x="597.8736842105263" y="992.3789473684211" name="top"/>
  <outline>
    <contour>
      <point x="-27.49473684210526" y="0.0" type="line"/>
      <point x="817.7684210526315" y="0.0" type="line"/>
      <point x="849.2842105263157" y="146.2947368421053" type="line"/>
      <point x="710.2315789473685" y="139.91578947368424"/>
      <point x="529.3894736842105" y="132.98947368421054"/>
      <point x="420.33684210526314" y="128.2526315789474" type="curve"/>
      <point x="178.9684210526316" y="128.2526315789474" type="line"/>
      <point x="198.27368421052634" y="91.09473684210528" type="line"/>
      <point x="596.6105263157895" y="501.7894736842105" type="line"/>
      <point x="719.8315789473685" y="625.1789473684211"/>
      <point x="874.1263157894737" y="779.0947368421052"/>
      <point x="970.821052631579" y="875.0526315789473" type="curve"/>
      <point x="995.0526315789474" y="992.3789473684211" type="line"/>
      <point x="185.4315789473684" y="992.3789473684211" type="line"/>
      <point x="153.36842105263156" y="843.3473684210526" type="line"/>
      <point x="300.7789473684211" y="850.2736842105262"/>
      <point x="487.2631578947369" y="858.2947368421053"/>
      <point x="595.957894736842" y="863.578947368421" type="curve"/>
      <point x="815.1578947368421" y="863.578947368421" type="line"/>
      <point x="790.9263157894737" y="919.8315789473684" type="line"/>
      <point x="388.56842105263155" y="500.7368421052632" type="line"/>
      <point x="272.2526315789474" y="383.15789473684214"/>
      <point x="136.1263157894737" y="245.7684210526316"/>
      <point x="-5.452631578947367" y="103.47368421052632" type="curve"/>
    </contour>
  </outline>
</glyph>
<glyph name="braceleft" format="2">
  <advance width="808.5894736842106"/>
  <unicode hex="007B"/>
  <outline>
    <contour>
      <point x="462.8421052631579" y="-233.85263157894738" type="curve" smooth="yes"/>
      <point x="624.9052631578948" y="-233.85263157894738" type="line"/>
      <point x="653.8736842105263" y="-91.38947368421053" type="line"/>
      <point x="587.3263157894737" y="-93.93684210526314"/>
      <point x="532.7789473684211" y="-95.03157894736842"/>
      <point x="498.77894736842103" y="-95.57894736842105" type="curve"/>
      <point x="373.7684210526316" y="-93.38947368421053"/>
      <point x="330.16842105263163" y="-16.694736842105257"/>
      <point x="350.88421052631577" y="93.62105263157895" type="curve" smooth="yes"/>
      <point x="426.65263157894736" y="486.33684210526314" type="line" smooth="yes"/>
      <point x="429.7473684210526" y="504.35789473684207"/>
      <point x="358.63157894736844" y="592.5263157894738"/>
      <point x="303.6842105263158" y="636.5473684210526" type="curve"/>
      <point x="306.7789473684211" y="653.4736842105262" type="line"/>
      <point x="376.82105263157894" y="696.5894736842105"/>
      <point x="492.84210526315786" y="799.6631578947369"/>
      <point x="497.03157894736853" y="819.3263157894737" type="curve" smooth="yes"/>
      <point x="590.6315789473684" y="1233.8315789473684" type="line" smooth="yes"/>
      <point x="616.4421052631578" y="1348.505263157895"/>
      <point x="680.9473684210527" y="1392.1263157894737"/>
      <point x="799.2421052631579" y="1394.3157894736842" type="curve"/>
      <point x="837.6" y="1393.7684210526315"/>
      <point x="909.936842105263" y="1391.221052631579"/>
      <point x="962.1263157894737" y="1390.1263157894737" type="curve"/>
      <point x="993.0947368421052" y="1532.5894736842106" type="line"/>
      <point x="795.221052631579" y="1532.5894736842106" type="line" smooth="yes"/>
      <point x="598.4" y="1532.5894736842106"/>
      <point x="468.50526315789466" y="1454.378947368421"/>
      <point x="434.31578947368416" y="1271.9368421052632" type="curve"/>
      <point x="430.8631578947368" y="1254.1263157894737"/>
      <point x="368.1684210526315" y="927.8736842105263"/>
      <point x="364.7157894736842" y="910.6105263157895" type="curve"/>
      <point x="338.90526315789475" y="781.5578947368422"/>
      <point x="218.4421052631579" y="711.578947368421"/>
      <point x="150.96842105263156" y="711.578947368421" type="curve" smooth="yes"/>
      <point x="70.58947368421053" y="711.578947368421" type="line"/>
      <point x="44.357894736842105" y="585.7052631578947" type="line"/>
      <point x="124.73684210526316" y="585.7052631578947" type="line" smooth="yes"/>
      <point x="192.2105263157895" y="585.7052631578947"/>
      <point x="284.31578947368416" y="530.2526315789474"/>
      <point x="254.1473684210526" y="386.6736842105263" type="curve"/>
      <point x="250.69473684210524" y="369.41052631578947"/>
      <point x="189.62105263157892" y="100.0842105263158"/>
      <point x="186.16842105263154" y="82.82105263157895" type="curve"/>
      <point x="149.7894736842105" y="-94.71578947368421"/>
      <point x="252.94736842105263" y="-233.85263157894738"/>
    </contour>
  </outline>
</glyph>
<glyph name="bar" format="2">
  <advance width="528.4631578947368"/>
  <unicode hex="007C"/>
  <outline>
    <contour>
      <point x="9.326315789473675" y="-313.4736842105263" type="curve"/>
      <point x="175.8526315789474" y="-313.4736842105263" type="line"/>
      <point x="231.11578947368423" y="-38.56842105263158"/>
      <point x="290.92631578947373" y="267.978947368421"/>
      <point x="306.3789473684211" y="344.5263157894737" type="curve"/>
      <point x="426.3789473684211" y="908.5263157894736" type="line"/>
      <point x="443.47368421052636" y="985.621052631579"/>
      <point x="513.6631578947369" y="1289.621052631579"/>
      <point x="575.8526315789475" y="1566.5263157894738" type="curve"/>
      <point x="409.3263157894737" y="1566.5263157894738" type="line"/>
      <point x="354.06315789473683" y="1289.621052631579"/>
      <point x="294.2526315789474" y="985.0736842105264"/>
      <point x="278.8" y="908.5263157894736" type="curve"/>
      <point x="158.79999999999998" y="344.5263157894737" type="line"/>
      <point x="142.25263157894736" y="269.07368421052627"/>
      <point x="71.51578947368418" y="-38.02105263157895"/>
    </contour>
  </outline>
</glyph>
<glyph name="cent" format="2">
  <advance width="988.6736842105263"/>
  <unicode hex="00A2"/>
  <anchor x="466.69473684210527" y="0.0" name="bottom"/>
  <anchor x="662.7157894736843" y="992.3789473684211" name="top"/>
  <outline>
    <contour>
      <point x="326.8" y="-274.0" type="curve"/>
      <point x="469.9789473684211" y="-274.0" type="line"/>
      <point x="523.0526315789474" y="-10.589473684210526"/>
      <point x="578.4842105263158" y="269.6842105263158"/>
      <point x="600.5052631578948" y="384.5473684210526" type="curve"/>
      <point x="644.5052631578948" y="590.1894736842105" type="line"/>
      <point x="670.9052631578948" y="705.0526315789473"/>
      <point x="734.5263157894736" y="982.778947368421"/>
      <point x="793.9789473684211" y="1248.7368421052631" type="curve"/>
      <point x="650.8" y="1248.7368421052631" type="line"/>
      <point x="597.1789473684211" y="981.6842105263157"/>
      <point x="542.2947368421053" y="704.5052631578947"/>
      <point x="520.2736842105263" y="590.1894736842105" type="curve"/>
      <point x="476.2736842105263" y="384.5473684210526" type="line"/>
      <point x="450.42105263157896" y="271.87368421052633"/>
      <point x="386.25263157894733" y="-9.494736842105263"/>
    </contour>
    <contour>
      <point x="561.1157894736842" y="-20.189473684210526" type="curve" smooth="yes"/>
      <point x="628.1894736842105" y="-20.189473684210526"/>
      <point x="750.9052631578948" y="16.33684210526316"/>
      <point x="804.9052631578948" y="36.694736842105264" type="curve"/>
      <point x="821.8736842105263" y="196.2526315789474" type="line"/>
      <point x="751.7052631578947" y="162.63157894736844"/>
      <point x="631.5368421052632" y="125.72631578947369"/>
      <point x="586.2947368421053" y="124.27368421052633" type="curve" smooth="yes"/>
      <point x="353.34736842105264" y="128.2736842105263"/>
      <point x="221.41052631578947" y="278.5263157894737"/>
      <point x="276.10526315789474" y="533.4526315789473" type="curve" smooth="yes"/>
      <point x="322.8" y="747.8315789473685"/>
      <point x="470.3157894736842" y="857.9157894736842"/>
      <point x="655.4526315789474" y="867.9157894736842" type="curve"/>
      <point x="687.0736842105263" y="867.9157894736842"/>
      <point x="817.2421052631579" y="827.5578947368422"/>
      <point x="939.2210526315789" y="776.8421052631578" type="curve"/>
      <point x="984.2105263157895" y="929.1368421052631" type="line"/>
      <point x="891.621052631579" y="961.3263157894736"/>
      <point x="719.6210526315791" y="1015.1157894736842"/>
      <point x="656.357894736842" y="1015.1157894736842" type="curve" smooth="yes"/>
      <point x="373.36842105263156" y="1015.1157894736842"/>
      <point x="166.10526315789474" y="826.7578947368421"/>
      <point x="109.01052631578948" y="552.021052631579" type="curve" smooth="yes"/>
      <point x="39.72631578947369" y="215.97894736842105"/>
      <point x="221.6" y="-20.189473684210526"/>
    </contour>
  </outline>
</glyph>
<glyph name="sterling" format="2">
  <advance width="1182.0842105263157"/>
  <unicode hex="00A3"/>
  <outline>
    <contour>
      <point x="23.55789473684211" y="0.0" type="line"/>
      <point x="1010.2736842105264" y="0.0" type="line"/>
      <point x="1046.1684210526316" y="168.90526315789475" type="line"/>
      <point x="889.4526315789474" y="164.1684210526316"/>
      <point x="642.7789473684211" y="158.33684210526317"/>
      <point x="463.87368421052633" y="153.05263157894737" type="curve"/>
      <point x="179.3684210526316" y="153.05263157894737" type="line"/>
      <point x="220.37894736842105" y="109.03157894736843" type="line"/>
      <point x="397.0736842105264" y="343.87368421052633"/>
      <point x="438.8842105263159" y="412.94736842105266"/>
      <point x="453.7894736842106" y="485.4736842105263" type="curve" smooth="yes"/>
      <point x="546.6315789473684" y="920.6315789473684" type="line" smooth="yes"/>
      <point x="593.8736842105263" y="1141.221052631579"/>
      <point x="699.2842105263157" y="1241.7052631578947"/>
      <point x="881.5368421052632" y="1245.3473684210526" type="curve"/>
      <point x="914.6105263157896" y="1245.3473684210526"/>
      <point x="1048.778947368421" y="1204.9894736842105"/>
      <point x="1174.757894736842" y="1153.7263157894736" type="curve"/>
      <point x="1226.6736842105263" y="1313.136842105263" type="line"/>
      <point x="1123.5157894736842" y="1344.2315789473682"/>
      <point x="936.2105263157896" y="1397.4736842105262"/>
      <point x="868.2105263157895" y="1397.4736842105262" type="curve" smooth="yes"/>
      <point x="613.7263157894737" y="1397.4736842105262"/>
      <point x="434.9684210526316" y="1249.7894736842104"/>
      <point x="371.87368421052633" y="946.6736842105264" type="curve" smooth="yes"/>
      <point x="339.15789473684214" y="797.2631578947369"/>
      <point x="303.7263157894737" y="600.2105263157895"/>
      <point x="270.821052631579" y="443.13684210526316" type="curve"/>
      <point x="259.3684210526316" y="390.61052631578946"/>
      <point x="216.6526315789474" y="318.82105263157894"/>
      <point x="45.95789473684211" y="104.90526315789474" type="curve"/>
    </contour>
    <contour>
      <point x="158.46315789473684" y="683.0947368421052" type="line"/>
      <point x="284.3157894736842" y="686.1894736842105"/>
      <point x="424.69473684210527" y="689.2842105263157"/>
      <point x="507.28421052631586" y="690.378947368421" type="curve"/>
      <point x="574.9473684210526" y="690.378947368421" type="line"/>
      <point x="656.4421052631578" y="689.2842105263157"/>
      <point x="793.9157894736842" y="686.1894736842105"/>
      <point x="918.6736842105264" y="683.0947368421052" type="curve"/>
      <point x="948.0" y="820.4421052631578" type="line"/>
      <point x="822.6947368421052" y="817.3473684210526"/>
      <point x="683.2210526315788" y="814.2526315789473"/>
      <point x="600.6315789473683" y="813.1578947368421" type="curve"/>
      <point x="532.9684210526316" y="813.1578947368421" type="line"/>
      <point x="451.4736842105263" y="814.2526315789473"/>
      <point x="313.09473684210525" y="817.3473684210526"/>
      <point x="187.78947368421055" y="820.4421052631578" type="curve"/>
    </contour>
  </outline>
</glyph>
<glyph name="currency" format="2">
  <advance width="1245.9789473684211"/>
  <unicode hex="00A4"/>
  <outline>
    <contour>
      <point x="622.2526315789474" y="229.89473684210523" type="curve" smooth="yes"/>
      <point x="852.6947368421053" y="229.89473684210523"/>
      <point x="1007.8315789473685" y="343.178947368421"/>
      <point x="1056.7578947368422" y="586.6947368421053" type="curve" smooth="yes"/>
      <point x="1107.1368421052632" y="835.6631578947369"/>
      <point x="936.0" y="1050.463157894737"/>
      <point x="680.9894736842106" y="1050.463157894737" type="curve" smooth="yes"/>
      <point x="460.71578947368425" y="1050.463157894737"/>
      <point x="293.05263157894734" y="938.6315789473684"/>
      <point x="244.12631578947367" y="695.1157894736842" type="curve" smooth="yes"/>
      <point x="193.7473684210526" y="444.6947368421052"/>
      <point x="361.43157894736845" y="229.89473684210523"/>
    </contour>
    <contour>
      <point x="196.33684210526317" y="101.47368421052632" type="line"/>
      <point x="286.35789473684207" y="188.58947368421053"/>
      <point x="385.09473684210525" y="284.9684210526315"/>
      <point x="443.85263157894735" y="342.2736842105263" type="curve"/>
      <point x="341.4526315789474" y="451.9578947368421" type="line"/>
      <point x="280.14736842105265" y="398.29473684210524"/>
      <point x="175.76842105263157" y="306.10526315789474"/>
      <point x="84.10526315789474" y="222.6315789473684" type="curve"/>
    </contour>
    <contour>
      <point x="632.8210526315789" y="373.8105263157895" type="curve"/>
      <point x="468.9263157894737" y="380.00000000000006"/>
      <point x="361.17894736842106" y="512.8210526315789"/>
      <point x="393.15789473684214" y="675.0736842105263" type="curve" smooth="yes"/>
      <point x="422.58947368421053" y="828.0421052631579"/>
      <point x="533.6" y="902.5473684210526"/>
      <point x="672.6105263157895" y="908.1894736842105" type="curve"/>
      <point x="833.2421052631579" y="901.4526315789474"/>
      <point x="940.8" y="767.5368421052632"/>
      <point x="909.3684210526316" y="608.9263157894737" type="curve" smooth="yes"/>
      <point x="877.9368421052632" y="450.67368421052635"/>
      <point x="780.0" y="377.8105263157895"/>
    </contour>
    <contour>
      <point x="391.62105263157895" y="815.8736842105263" type="curve"/>
      <point x="498.2105263157895" y="915.5368421052632" type="line"/>
      <point x="443.99999999999994" y="976.8421052631579"/>
      <point x="351.81052631578945" y="1081.221052631579"/>
      <point x="268.3368421052632" y="1173.4315789473685" type="curve"/>
      <point x="150.82105263157897" y="1062.842105263158" type="line"/>
      <point x="236.4842105263158" y="974.2736842105263"/>
      <point x="333.41052631578947" y="874.0842105263157"/>
    </contour>
    <contour>
      <point x="1040.5473684210526" y="109.4736842105263" type="curve"/>
      <point x="1158.0631578947368" y="220.06315789473683" type="line"/>
      <point x="1072.4" y="308.6315789473684"/>
      <point x="975.4736842105262" y="408.82105263157894"/>
      <point x="917.2631578947369" y="467.0315789473684" type="curve"/>
      <point x="810.6736842105263" y="367.36842105263156" type="line"/>
      <point x="864.8842105263158" y="306.0631578947368"/>
      <point x="957.0736842105264" y="201.68421052631578"/>
    </contour>
    <contour>
      <point x="967.4315789473684" y="830.9473684210527" type="line"/>
      <point x="1028.7368421052631" y="884.6105263157895"/>
      <point x="1133.1157894736843" y="976.8000000000001"/>
      <point x="1224.778947368421" y="1060.2736842105264" type="curve"/>
      <point x="1112.5473684210526" y="1181.4315789473685" type="line"/>
      <point x="1022.5263157894738" y="1094.3157894736842"/>
      <point x="923.7894736842105" y="997.9368421052632"/>
      <point x="865.0315789473684" y="940.6315789473684" type="curve"/>
    </contour>
  </outline>
</glyph>
<glyph name="yen" format="2">
  <advance width="1249.7894736842104"/>
  <unicode hex="00A5"/>
  <outline>
    <contour>
      <point x="557.7052631578947" y="538.7789473684211" type="line"/>
      <point x="712.042105263158" y="538.7789473684211" type="line"/>
      <point x="1113.4736842105262" y="1041.4105263157894" type="line"/>
      <point x="1210.5684210526315" y="1156.8842105263159"/>
      <point x="1303.6631578947367" y="1269.2631578947369"/>
      <point x="1389.3052631578948" y="1371.2842105263157" type="curve"/>
      <point x="1153.3473684210526" y="1371.2842105263157" type="line"/>
      <point x="1020.378947368421" y="1190.9894736842105"/>
      <point x="959.7052631578948" y="1107.2"/>
      <point x="853.6210526315789" y="963.0736842105264" type="curve"/>
      <point x="671.2210526315789" y="725.3473684210526" type="line"/>
      <point x="654.8421052631578" y="725.3473684210526" type="line"/>
      <point x="573.6631578947369" y="953.9789473684211" type="line"/>
      <point x="527.3684210526314" y="1098.463157894737"/>
      <point x="499.41052631578947" y="1188.0842105263157"/>
      <point x="440.5894736842105" y="1371.2842105263157" type="curve"/>
      <point x="228.4842105263158" y="1371.2842105263157" type="line"/>
      <point x="299.9368421052631" y="1202.5263157894738"/>
      <point x="326.48421052631574" y="1138.1473684210528"/>
      <point x="367.93684210526317" y="1039.7684210526315" type="curve"/>
    </contour>
    <contour>
      <point x="420.9473684210526" y="0.0" type="curve"/>
      <point x="621.0315789473684" y="0.0" type="line"/>
      <point x="649.2" y="153.62105263157892"/>
      <point x="672.4631578947368" y="280.88421052631577"/>
      <point x="703.1789473684211" y="449.9789473684211" type="curve"/>
      <point x="751.7684210526315" y="679.6421052631579" type="line"/>
      <point x="578.6526315789473" y="679.6421052631579" type="line"/>
      <point x="530.0631578947368" y="450.5263157894737" type="line"/>
      <point x="488.77894736842103" y="281.4315789473684"/>
      <point x="458.58947368421053" y="155.0736842105263"/>
    </contour>
    <contour>
      <point x="114.65263157894735" y="275.32631578947365" type="line"/>
      <point x="239.95789473684212" y="278.42105263157896"/>
      <point x="379.4315789473684" y="281.5157894736842"/>
      <point x="461.4736842105263" y="282.61052631578946" type="curve"/>
      <point x="700.0842105263158" y="282.61052631578946" type="line"/>
      <point x="782.1263157894736" y="281.5157894736842"/>
      <point x="920.5052631578948" y="278.42105263157896"/>
      <point x="1045.8105263157895" y="275.32631578947365" type="curve"/>
      <point x="1070.9473684210525" y="398.9894736842105" type="line"/>
      <point x="945.0947368421054" y="396.9894736842105"/>
      <point x="806.1684210526315" y="394.9894736842105"/>
      <point x="724.1263157894738" y="394.4421052631579" type="curve"/>
      <point x="485.5157894736842" y="394.4421052631579" type="line"/>
      <point x="403.4736842105263" y="394.9894736842105"/>
      <point x="264.5473684210526" y="396.9894736842105"/>
      <point x="139.78947368421052" y="398.9894736842105" type="curve"/>
    </contour>
    <contour>
      <point x="175.22105263157894" y="564.8842105263158" type="line"/>
      <point x="301.978947368421" y="566.8842105263158"/>
      <point x="440.9052631578947" y="568.8842105263158"/>
      <point x="522.9473684210527" y="569.4315789473684" type="curve"/>
      <point x="761.5578947368422" y="569.4315789473684" type="line"/>
      <point x="843.5999999999999" y="568.8842105263158"/>
      <point x="982.5263157894738" y="566.8842105263158"/>
      <point x="1106.378947368421" y="564.8842105263158" type="curve"/>
      <point x="1132.9684210526316" y="688.5473684210526" type="line"/>
      <point x="1007.1157894736842" y="685.4526315789474"/>
      <point x="867.6421052631578" y="682.3578947368421"/>
      <point x="785.6" y="681.2631578947369" type="curve"/>
      <point x="546.9894736842106" y="681.2631578947369" type="line"/>
      <point x="464.9473684210526" y="682.3578947368421"/>
      <point x="326.56842105263155" y="685.4526315789474"/>
      <point x="201.8105263157895" y="688.5473684210526" type="curve"/>
    </contour>
  </outline>
</glyph>
<glyph name="copyright" format="2">
  <advance width="1635.0105263157895"/>
  <unicode hex="00A9"/>
  <outline>
    <contour>
      <point x="864.5052631578948" y="-21.83157894736842" type="curve" smooth="yes"/>
      <point x="1308.7368421052631" y="-21.83157894736842"/>
      <point x="1574.7157894736843" y="281.2631578947368"/>
      <point x="1574.7157894736843" y="688.5473684210526" type="curve" smooth="yes"/>
      <point x="1574.7157894736843" y="1082.1894736842105"/>
      <point x="1321.2842105263157" y="1397.4736842105262"/>
      <point x="858.3157894736842" y="1397.4736842105262" type="curve" smooth="yes"/>
      <point x="402.8" y="1397.4736842105262"/>
      <point x="140.29473684210527" y="1087.0947368421052"/>
      <point x="140.29473684210527" y="688.0" type="curve" smooth="yes"/>
      <point x="140.29473684210527" y="304.7368421052632"/>
      <point x="381.53684210526313" y="-21.83157894736842"/>
    </contour>
    <contour>
      <point x="880.1473684210526" y="311.4526315789474" type="curve" smooth="yes"/>
      <point x="953.0105263157894" y="311.4526315789474"/>
      <point x="1043.7894736842104" y="338.5263157894737"/>
      <point x="1097.4315789473685" y="356.88421052631577" type="curve"/>
      <point x="1085.4315789473685" y="478.8842105263158" type="line"/>
      <point x="1021.6421052631579" y="447.4526315789474"/>
      <point x="953.0947368421054" y="426.0"/>
      <point x="903.6842105263158" y="426.0" type="curve"/>
      <point x="738.5052631578948" y="429.4526315789474"/>
      <point x="647.4526315789474" y="528.6526315789474"/>
      <point x="647.4526315789474" y="691.0947368421052" type="curve" smooth="yes"/>
      <point x="647.4526315789474" y="858.7789473684211"/>
      <point x="744.1052631578948" y="944.7157894736843"/>
      <point x="877.4526315789474" y="949.2631578947369" type="curve"/>
      <point x="909.4315789473685" y="949.2631578947369"/>
      <point x="993.6210526315789" y="929.0736842105264"/>
      <point x="1083.7894736842106" y="888.0" type="curve"/>
      <point x="1095.621052631579" y="1012.1894736842105" type="line"/>
      <point x="1030.8631578947368" y="1035.2842105263157"/>
      <point x="931.1999999999999" y="1066.0"/>
      <point x="866.5052631578948" y="1066.0" type="curve" smooth="yes"/>
      <point x="642.1052631578947" y="1066.0"/>
      <point x="514.2947368421053" y="902.5473684210526"/>
      <point x="514.2947368421053" y="688.3578947368421" type="curve" smooth="yes"/>
      <point x="514.2947368421053" y="474.1684210526316"/>
      <point x="646.6736842105263" y="311.4526315789474"/>
    </contour>
    <contour>
      <point x="863.9578947368421" y="86.50526315789475" type="curve"/>
      <point x="476.1684210526316" y="96.69473684210527"/>
      <point x="253.0105263157895" y="321.22105263157897"/>
      <point x="253.0105263157895" y="688.0" type="curve" smooth="yes"/>
      <point x="253.0105263157895" y="1052.9894736842105"/>
      <point x="484.7157894736842" y="1278.9473684210527"/>
      <point x="858.8631578947368" y="1289.1368421052632" type="curve"/>
      <point x="1235.5578947368422" y="1278.9473684210527"/>
      <point x="1462.0" y="1055.3473684210526"/>
      <point x="1462.0" y="688.5473684210526" type="curve" smooth="yes"/>
      <point x="1462.0" y="317.5578947368421"/>
      <point x="1231.3684210526317" y="96.69473684210527"/>
    </contour>
  </outline>
</glyph>
<glyph name="ordfeminine" format="2">
  <advance width="790.3448275862069"/>
  <unicode hex="00AA"/>
  <outline>
    <contour>
      <point x="365.67816091954023" y="665.2183908045977" type="curve" smooth="yes"/>
      <point x="428.91954022988506" y="665.2183908045977"/>
      <point x="539.7471264367816" y="733.2413793103448"/>
      <point x="622.1379310344827" y="802.0459770114942" type="curve"/>
      <point x="634.5287356321838" y="802.0459770114942" type="line"/>
      <point x="638.528735632184" y="680.4137931034483" type="line"/>
      <point x="764.2758620689655" y="680.4137931034483" type="line"/>
      <point x="763.471264367816" y="758.7816091954023"/>
      <point x="762.6666666666666" y="818.7586206896551"/>
      <point x="763.0574712643678" y="894.7126436781609" type="curve"/>
      <point x="785.0804597701149" y="1000.8275862068965" type="line" smooth="yes"/>
      <point x="797.8850574712643" y="1061.6551724137933"/>
      <point x="815.0804597701149" y="1121.6551724137933"/>
      <point x="822.2758620689655" y="1160.4137931034484" type="curve" smooth="yes"/>
      <point x="859.471264367816" y="1336.390804597701"/>
      <point x="771.1264367816092" y="1452.3908045977012"/>
      <point x="577.9770114942529" y="1452.3908045977012" type="curve" smooth="yes"/>
      <point x="526.3678160919541" y="1452.3908045977012"/>
      <point x="378.82758620689657" y="1419.5862068965516"/>
      <point x="306.04597701149424" y="1402.781609195402" type="curve"/>
      <point x="286.48275862068965" y="1270.6206896551723" type="line"/>
      <point x="408.4597701149426" y="1308.2068965517242"/>
      <point x="516.8505747126437" y="1337.4022988505747"/>
      <point x="544.8735632183908" y="1337.4022988505747" type="curve" smooth="yes"/>
      <point x="665.7241379310345" y="1337.4022988505747"/>
      <point x="728.1609195402299" y="1281.7701149425288"/>
      <point x="700.1149425287356" y="1169.5862068965519" type="curve"/>
      <point x="444.85057471264366" y="1122.7586206896551" type="line" smooth="yes"/>
      <point x="312.4827586206897" y="1098.7586206896551"/>
      <point x="198.04597701149424" y="1049.9999999999998"/>
      <point x="166.04597701149424" y="905.6091954022988" type="curve" smooth="yes"/>
      <point x="134.04597701149424" y="766.4137931034483"/>
      <point x="221.6551724137931" y="665.2183908045977"/>
    </contour>
    <contour>
      <point x="421.1034482758621" y="771.4252873563219" type="curve" smooth="yes"/>
      <point x="333.816091954023" y="771.4252873563219"/>
      <point x="271.7701149425288" y="819.0574712643678"/>
      <point x="291.7931034482759" y="915.1724137931034" type="curve" smooth="yes"/>
      <point x="310.2068965517241" y="1000.0459770114942"/>
      <point x="390.2758620689655" y="1019.6551724137931"/>
      <point x="476.7586206896552" y="1038.0689655172412" type="curve" smooth="yes"/>
      <point x="618.5057471264367" y="1068.0919540229886"/>
      <point x="648.919540229885" y="1078.896551724138"/>
      <point x="682.9425287356321" y="1094.896551724138" type="curve"/>
      <point x="642.1149425287356" y="909.9540229885057" type="line"/>
      <point x="558.8275862068966" y="818.2528735632184"/>
      <point x="465.14942528735634" y="771.4252873563219"/>
    </contour>
  </outline>
</glyph>
<glyph name="logicalnot" format="2">
  <advance width="1136.421052631579"/>
  <unicode hex="00AC"/>
  <outline>
    <contour>
      <point x="773.9578947368421" y="118.50526315789473" type="curve"/>
      <point x="939.3894736842105" y="118.50526315789473" type="line"/>
      <point x="963.9368421052632" y="246.71578947368423"/>
      <point x="989.9368421052632" y="382.18947368421055"/>
      <point x="1005.578947368421" y="463.6842105263158" type="curve"/>
      <point x="1051.7894736842106" y="678.7368421052631" type="line"/>
      <point x="926.4842105263158" y="675.6421052631579"/>
      <point x="785.5578947368421" y="672.5473684210526"/>
      <point x="703.5157894736842" y="671.4526315789474" type="curve"/>
      <point x="506.8" y="671.4526315789474" type="line"/>
      <point x="424.7578947368421" y="672.5473684210526"/>
      <point x="287.8315789473684" y="675.6421052631579"/>
      <point x="162.52631578947367" y="678.7368421052631" type="curve"/>
      <point x="128.27368421052628" y="516.5894736842106" type="line"/>
      <point x="254.12631578947367" y="519.6842105263158"/>
      <point x="393.59999999999997" y="522.7789473684211"/>
      <point x="475.6421052631579" y="523.8736842105263" type="curve"/>
      <point x="672.3578947368421" y="523.8736842105263" type="line"/>
      <point x="747.1157894736841" y="522.7789473684211"/>
      <point x="873.6631578947369" y="519.6842105263158"/>
      <point x="986.5894736842106" y="516.5894736842106" type="curve"/>
      <point x="889.4526315789474" y="627.3684210526316" type="line"/>
      <point x="854.7157894736841" y="464.2315789473684" type="line"/>
      <point x="835.4315789473684" y="381.2842105263158"/>
      <point x="803.2421052631579" y="244.35789473684213"/>
    </contour>
  </outline>
</glyph>
<glyph name="degree" format="2">
  <advance width="956.7157894736843"/>
  <unicode hex="00B0"/>
  <outline>
    <contour>
      <point x="563.3473684210527" y="630.2736842105263" type="curve" smooth="yes"/>
      <point x="775.6" y="630.2736842105263"/>
      <point x="934.1684210526315" y="738.4631578947368"/>
      <point x="982.9052631578948" y="968.5052631578948" type="curve" smooth="yes"/>
      <point x="1029.0947368421052" y="1190.9052631578948"/>
      <point x="870.3368421052631" y="1397.4736842105262"/>
      <point x="615.7052631578947" y="1397.4736842105262" type="curve" smooth="yes"/>
      <point x="395.99999999999994" y="1397.4736842105262"/>
      <point x="240.5263157894737" y="1275.8315789473684"/>
      <point x="193.97894736842107" y="1058.3578947368421" type="curve" smooth="yes"/>
      <point x="142.69473684210527" y="823.3894736842105"/>
      <point x="298.9052631578947" y="630.2736842105263"/>
    </contour>
    <contour>
      <point x="569.7263157894737" y="756.8631578947368" type="curve"/>
      <point x="390.2105263157895" y="761.957894736842"/>
      <point x="300.82105263157894" y="883.157894736842"/>
      <point x="332.2526315789474" y="1037.7684210526318" type="curve" smooth="yes"/>
      <point x="362.23157894736846" y="1188.021052631579"/>
      <point x="462.88421052631577" y="1264.6947368421054"/>
      <point x="609.8736842105263" y="1270.8842105263159" type="curve"/>
      <point x="778.4842105263158" y="1264.6947368421054"/>
      <point x="872.2315789473685" y="1133.1368421052632"/>
      <point x="841.3473684210527" y="985.621052631579" type="curve" smooth="yes"/>
      <point x="807.9157894736842" y="828.2736842105263"/>
      <point x="712.8842105263158" y="762.5052631578947"/>
    </contour>
  </outline>
</glyph>
<glyph name="plusminus" format="2">
  <advance width="1136.421052631579"/>
  <unicode hex="00B1"/>
  <outline>
    <contour>
      <point x="16.484210526315792" y="-7.28421052631579" type="line"/>
      <point x="142.33684210526317" y="-4.189473684210526"/>
      <point x="281.2631578947368" y="-1.0947368421052632"/>
      <point x="363.85263157894735" y="0.0" type="curve"/>
      <point x="560.5684210526316" y="0.0" type="line"/>
      <point x="642.0631578947368" y="-1.0947368421052632"/>
      <point x="780.9894736842106" y="-4.189473684210526"/>
      <point x="905.7473684210527" y="-7.28421052631579" type="curve"/>
      <point x="940.0" y="154.86315789473684" type="line"/>
      <point x="814.1473684210526" y="151.76842105263157"/>
      <point x="674.6736842105263" y="148.67368421052632"/>
      <point x="592.6315789473684" y="147.57894736842104" type="curve"/>
      <point x="395.9157894736842" y="147.57894736842104" type="line"/>
      <point x="313.8736842105263" y="148.67368421052632"/>
      <point x="175.49473684210528" y="151.76842105263157"/>
      <point x="50.73684210526316" y="154.86315789473684" type="curve"/>
    </contour>
    <contour>
      <point x="168.67368421052632" y="710.2105263157895" type="line"/>
      <point x="294.52631578947364" y="713.3052631578947"/>
      <point x="435.4526315789473" y="716.4"/>
      <point x="517.4947368421052" y="717.4947368421052" type="curve"/>
      <point x="714.2105263157895" y="717.4947368421052" type="line"/>
      <point x="796.2526315789473" y="716.4"/>
      <point x="933.1789473684211" y="713.3052631578947"/>
      <point x="1057.9368421052632" y="710.2105263157895" type="curve"/>
      <point x="1092.1894736842105" y="872.3578947368421" type="line"/>
      <point x="966.8842105263158" y="869.2631578947369"/>
      <point x="827.4105263157894" y="866.1684210526316"/>
      <point x="745.3684210526316" y="865.0736842105264" type="curve"/>
      <point x="548.6526315789473" y="865.0736842105264" type="line"/>
      <point x="466.61052631578946" y="866.1684210526316"/>
      <point x="328.2315789473684" y="869.2631578947369"/>
      <point x="202.92631578947368" y="872.3578947368421" type="curve"/>
    </contour>
    <contour>
      <point x="446.79999999999995" y="323.0736842105263" type="curve"/>
      <point x="614.2315789473683" y="323.0736842105263" type="line"/>
      <point x="638.778947368421" y="451.2842105263158"/>
      <point x="664.7789473684211" y="587.3052631578948"/>
      <point x="680.421052631579" y="669.3473684210526" type="curve"/>
      <point x="732.7578947368421" y="913.2210526315789" type="line"/>
      <point x="752.0421052631579" y="995.2631578947368"/>
      <point x="784.2315789473683" y="1134.1894736842105"/>
      <point x="813.5157894736841" y="1259.4947368421053" type="curve"/>
      <point x="646.0842105263158" y="1259.4947368421053" type="line"/>
      <point x="622.9894736842106" y="1135.6421052631579"/>
      <point x="595.5368421052632" y="993.8105263157894"/>
      <point x="579.8947368421053" y="913.2210526315789" type="curve"/>
      <point x="527.5578947368422" y="669.3473684210526" type="line"/>
      <point x="509.7263157894737" y="588.7578947368422"/>
      <point x="477.5368421052632" y="449.8315789473684"/>
    </contour>
  </outline>
</glyph>
<glyph name="micro" format="2">
  <advance width="1120.9894736842105"/>
  <unicode hex="00B5"/>
  <outline>
    <contour>
      <point x="-55.410526315789475" y="-390.18947368421055" type="curve"/>
      <point x="141.38947368421054" y="-384.0" type="line"/>
      <point x="167.01052631578952" y="-237.2842105263158"/>
      <point x="188.63157894736847" y="-110.02105263157895"/>
      <point x="217.15789473684214" y="46.50526315789474" type="curve" smooth="yes"/>
      <point x="234.23157894736846" y="126.61052631578946" type="line"/>
      <point x="163.49473684210525" y="126.61052631578946" type="line"/>
      <point x="191.68421052631578" y="31.76842105263158"/>
      <point x="268.37894736842105" y="-21.83157894736842"/>
      <point x="393.93684210526317" y="-21.83157894736842" type="curve" smooth="yes"/>
      <point x="488.8" y="-21.83157894736842"/>
      <point x="651.9999999999999" y="89.74736842105264"/>
      <point x="743.642105263158" y="171.38947368421054" type="curve"/>
      <point x="760.2105263157896" y="171.38947368421054" type="line"/>
      <point x="767.1157894736841" y="0.0" type="line"/>
      <point x="925.8105263157895" y="0.0" type="line"/>
      <point x="923.0947368421052" y="104.58947368421053"/>
      <point x="921.8315789473684" y="188.10526315789474"/>
      <point x="922.021052631579" y="279.22105263157897" type="curve"/>
      <point x="978.3578947368421" y="544.1894736842105" type="line"/>
      <point x="1017.0947368421052" y="716.0421052631579"/>
      <point x="1046.5473684210526" y="845.6631578947369"/>
      <point x="1080.0" y="992.3789473684211" type="curve"/>
      <point x="896.1473684210526" y="992.3789473684211" type="line"/>
      <point x="869.4315789473684" y="845.6631578947369"/>
      <point x="844.7157894736843" y="712.9473684210526"/>
      <point x="816.5473684210526" y="558.9684210526316" type="curve"/>
      <point x="764.9263157894737" y="317.578947368421" type="line"/>
      <point x="653.7684210526315" y="213.68421052631584"/>
      <point x="513.8736842105263" y="131.38947368421054"/>
      <point x="451.5789473684211" y="131.38947368421054" type="curve" smooth="yes"/>
      <point x="297.5368421052632" y="131.38947368421054"/>
      <point x="257.5789473684211" y="228.61052631578949"/>
      <point x="295.5578947368422" y="406.14736842105265" type="curve"/>
      <point x="326.6315789473685" y="558.9684210526316" type="line"/>
      <point x="362.08421052631587" y="714.0421052631579"/>
      <point x="394.0842105263158" y="851.8526315789474"/>
      <point x="428.0842105263158" y="998.5684210526316" type="curve"/>
      <point x="238.94736842105263" y="992.3789473684211" type="line"/>
      <point x="212.77894736842103" y="846.7578947368421"/>
      <point x="188.06315789473683" y="714.0421052631579"/>
      <point x="158.25263157894736" y="543.0947368421052" type="curve"/>
      <point x="53.705263157894734" y="53.62105263157895" type="line"/>
      <point x="14.421052631578945" y="-110.02105263157895"/>
      <point x="-19.76842105263158" y="-243.47368421052633"/>
    </contour>
  </outline>
</glyph>
<glyph name="paragraph" format="2">
  <advance width="1094.3578947368421"/>
  <unicode hex="00B6"/>
  <outline>
    <contour>
      <point x="514.9052631578948" y="599.1789473684211" type="curve" smooth="yes"/>
      <point x="527.8526315789474" y="599.1789473684211" type="line"/>
      <point x="681.4315789473685" y="1426.0" type="line"/>
      <point x="610.7368421052631" y="1426.0" type="line"/>
      <point x="405.7473684210526" y="1426.0"/>
      <point x="233.57894736842107" y="1290.5263157894738"/>
      <point x="184.4842105263158" y="1054.5052631578947" type="curve" smooth="yes"/>
      <point x="135.38947368421054" y="820.8421052631579"/>
      <point x="257.41052631578947" y="599.1789473684211"/>
    </contour>
    <contour>
      <point x="259.2421052631579" y="-349.6421052631579" type="curve"/>
      <point x="391.2842105263158" y="-349.6421052631579" type="line"/>
      <point x="438.1894736842105" y="-115.09473684210529"/>
      <point x="480.5473684210526" y="95.2631578947368"/>
      <point x="523.4526315789474" y="310.3578947368421" type="curve"/>
      <point x="620.0" y="766.0" type="line"/>
      <point x="669.6421052631579" y="985.4526315789473"/>
      <point x="715.8315789473684" y="1189.0947368421052"/>
      <point x="769.4736842105264" y="1426.0" type="curve"/>
      <point x="645.2631578947369" y="1426.0" type="line"/>
      <point x="595.2631578947369" y="1191.4526315789474"/>
      <point x="551.2631578947369" y="982.5473684210526"/>
      <point x="505.2631578947368" y="766.0" type="curve"/>
      <point x="408.7157894736842" y="310.3578947368421" type="line"/>
      <point x="359.0736842105263" y="90.90526315789471"/>
      <point x="312.88421052631577" y="-112.73684210526318"/>
    </contour>
    <contour>
      <point x="553.7263157894738" y="-349.6421052631579" type="curve"/>
      <point x="685.7684210526317" y="-349.6421052631579" type="line"/>
      <point x="732.1263157894737" y="-115.09473684210529"/>
      <point x="773.9368421052632" y="95.2631578947368"/>
      <point x="816.2947368421053" y="310.3578947368421" type="curve"/>
      <point x="912.8421052631579" y="766.0" type="line"/>
      <point x="962.4842105263158" y="985.4526315789473"/>
      <point x="1010.1263157894737" y="1196.3578947368421"/>
      <point x="1062.3157894736842" y="1426.0" type="curve"/>
      <point x="928.6315789473684" y="1426.0" type="line"/>
      <point x="882.2736842105264" y="1191.4526315789474"/>
      <point x="840.4631578947369" y="981.0947368421052"/>
      <point x="798.1052631578948" y="766.0" type="curve"/>
      <point x="701.5578947368422" y="310.3578947368421" type="line"/>
      <point x="652.4631578947369" y="90.90526315789471"/>
      <point x="606.821052631579" y="-112.73684210526318"/>
    </contour>
    <contour>
      <point x="671.8947368421053" y="1316.7368421052631" type="line"/>
      <point x="868.6105263157895" y="1316.7368421052631" type="line"/>
      <point x="950.1052631578947" y="1315.6421052631579"/>
      <point x="1087.578947368421" y="1312.5473684210526"/>
      <point x="1212.336842105263" y="1309.4526315789474" type="curve"/>
      <point x="1237.2842105263157" y="1426.0" type="line"/>
      <point x="1111.9789473684211" y="1426.0"/>
      <point x="973.0526315789473" y="1426.0"/>
      <point x="891.0105263157894" y="1426.0" type="curve"/>
      <point x="694.2947368421053" y="1426.0" type="line"/>
    </contour>
  </outline>
</glyph>
